<svg width="226" height="216" viewBox="0 0 226 216" fill="none" xmlns="http://www.w3.org/2000/svg">
<path fill-rule="evenodd" clip-rule="evenodd" d="M220.209 0.00012207H114.073C111.656 0.00012207 109.564 1.39284 109.061 3.33914L103.183 26.1103C102.681 28.0566 100.589 29.4494 98.1718 29.4494H51.757C49.3394 29.4494 47.2482 30.8421 46.7454 32.7884L0.935048 210.187C0.26113 212.81 2.68937 215.279 5.94664 215.279H174.025C176.443 215.279 178.534 213.886 179.037 211.94L184.915 189.169C185.417 187.222 187.509 185.829 189.926 185.829H218.404C220.821 185.829 222.913 184.437 223.415 182.49L225.22 5.09212C225.894 2.46924 223.466 0.00012207 220.209 0.00012207Z" fill="currentColor"/>
</svg>
