<svg width="9" height="12" viewBox="0 0 9 12" fill="none" xmlns="http://www.w3.org/2000/svg">
<path d="M3.53297 8.44288L3.53297 1.16252C3.53297 0.883953 3.62915 0.64556 3.82152 0.447346C4.01388 0.249131 4.24524 0.150024 4.51559 0.150024C4.78594 0.150024 5.0173 0.249131 5.20967 0.447346C5.40203 0.64556 5.49822 0.883953 5.49822 1.16252L5.49822 8.42681L7.33869 6.51431C7.52585 6.31074 7.75721 6.20895 8.03276 6.20895C8.30831 6.20895 8.53967 6.31074 8.72684 6.51431C8.914 6.70717 9.00499 6.94556 8.99979 7.22949C8.99459 7.51342 8.89841 7.75181 8.71124 7.94467L5.20187 11.5607C5.10828 11.6572 4.9991 11.7295 4.87433 11.7777C4.74955 11.8259 4.62477 11.85 4.49999 11.85C4.37522 11.85 4.25304 11.8259 4.13346 11.7777C4.01388 11.7295 3.9073 11.6572 3.81372 11.5607L0.288748 7.94467C0.101581 7.75181 0.00539938 7.5161 0.000199962 7.23753C-0.00499946 6.95895 0.0911834 6.71788 0.288748 6.51431C0.486313 6.31074 0.717671 6.20895 0.982824 6.20895C1.24798 6.20895 1.47933 6.31074 1.6769 6.51431L3.53297 8.44288Z" fill="currentColor"/>
</svg>
