<svg width="14" height="18" viewBox="0 0 14 18" fill="none" xmlns="http://www.w3.org/2000/svg">
<path d="M5.95 8.68574L5.225 7.96074C5.025 7.77741 4.79167 7.68574 4.525 7.68574C4.25833 7.68574 4.025 7.78574 3.825 7.98574C3.625 8.18574 3.525 8.41908 3.525 8.68574C3.525 8.95241 3.625 9.18574 3.825 9.38574L5.225 10.8107C5.425 11.0107 5.6625 11.1107 5.9375 11.1107C6.2125 11.1107 6.45 11.0107 6.65 10.8107L10.175 7.26074C10.375 7.06074 10.475 6.82741 10.475 6.56074C10.475 6.29408 10.375 6.06074 10.175 5.86074C9.975 5.66074 9.74167 5.56074 9.475 5.56074C9.20833 5.56074 8.975 5.66074 8.775 5.86074L5.95 8.68574ZM7 15.5107L2.8 17.3107C2.13333 17.5941 1.5 17.5399 0.9 17.1482C0.3 16.7566 0 16.2024 0 15.4857V2.51074C0 1.96074 0.195833 1.48991 0.5875 1.09824C0.979167 0.706576 1.45 0.510742 2 0.510742H12C12.55 0.510742 13.0208 0.706576 13.4125 1.09824C13.8042 1.48991 14 1.96074 14 2.51074V15.4857C14 16.2024 13.7 16.7566 13.1 17.1482C12.5 17.5399 11.8667 17.5941 11.2 17.3107L7 15.5107Z" fill="currentColor"/>
</svg>