<svg width="64" height="64" viewBox="0 0 64 64" fill="none" xmlns="http://www.w3.org/2000/svg">
<rect width="64" height="64" rx="32" fill="#DCFCE7"/>
<path d="M33.5375 17.4193L45.575 24.7382C46.025 25.0178 46.375 25.399 46.625 25.8818C46.875 26.3647 47 26.8729 47 27.4066V43.9504C47 44.7891 46.7063 45.507 46.1188 46.1042C45.5313 46.7014 44.825 47 44 47H20C19.175 47 18.4688 46.7014 17.8813 46.1042C17.2937 45.507 17 44.7891 17 43.9504V27.4066C17 26.8729 17.125 26.3647 17.375 25.8818C17.625 25.399 17.975 25.0178 18.425 24.7382L30.4625 17.4193C30.9375 17.1398 31.45 17 32 17C32.55 17 33.0625 17.1398 33.5375 17.4193ZM32 34.2681L43.7 27.1779L32 20.0877L20.3 27.1779L32 34.2681Z" fill="#22C55E"/>
</svg>
