<svg width="64" height="64" viewBox="0 0 64 64" fill="none" xmlns="http://www.w3.org/2000/svg">
<rect width="64" height="64" rx="32" fill="#DCFCE7"/>
<path d="M26.6272 38.7617L45.262 20.6414C45.7018 20.2138 46.2149 20 46.8012 20C47.3875 20 47.9006 20.2138 48.3404 20.6414C48.7801 21.069 49 21.5768 49 22.1648C49 22.7528 48.7801 23.2606 48.3404 23.6882L28.1664 43.3586C27.7266 43.7862 27.2136 44 26.6272 44C26.0409 44 25.5278 43.7862 25.0881 43.3586L15.6333 34.1648C15.1935 33.7372 14.9828 33.2294 15.0011 32.6414C15.0194 32.0535 15.2485 31.5457 15.6882 31.118C16.128 30.6904 16.6502 30.4766 17.2549 30.4766C17.8595 30.4766 18.3817 30.6904 18.8215 31.118L26.6272 38.7617Z" fill="#22C55E"/>
</svg>
