<svg width="20" height="24" viewBox="0 0 20 24" fill="none" xmlns="http://www.w3.org/2000/svg">
<path d="M1.53741 20.4C1.20096 20.4 0.918925 20.285 0.691321 20.055C0.463717 19.825 0.349915 19.54 0.349915 19.2C0.349915 18.86 0.463717 18.575 0.691321 18.345C0.918925 18.115 1.20096 18 1.53741 18H2.72491V9.6C2.72491 7.94 3.21971 6.465 4.20929 5.175C5.19887 3.885 6.48533 3.04 8.06866 2.64V1.8C8.06866 1.3 8.24184 0.875 8.5882 0.525C8.93455 0.175 9.35512 0 9.84991 0C10.3447 0 10.7653 0.175 11.1116 0.525C11.458 0.875 11.6312 1.3 11.6312 1.8V2.64C13.2145 3.04 14.501 3.885 15.4905 5.175C16.4801 6.465 16.9749 7.94 16.9749 9.6V18H18.1624C18.4989 18 18.7809 18.115 19.0085 18.345C19.2361 18.575 19.3499 18.86 19.3499 19.2C19.3499 19.54 19.2361 19.825 19.0085 20.055C18.7809 20.285 18.4989 20.4 18.1624 20.4H1.53741ZM9.84991 24C9.19679 24 8.63768 23.765 8.17257 23.295C7.70747 22.825 7.47491 22.26 7.47491 21.6H12.2249C12.2249 22.26 11.9924 22.825 11.5273 23.295C11.0622 23.765 10.503 24 9.84991 24ZM5.09991 18H14.5999V9.6C14.5999 8.28 14.1348 7.15 13.2046 6.21C12.2744 5.27 11.1562 4.8 9.84991 4.8C8.54366 4.8 7.42544 5.27 6.49523 6.21C5.56502 7.15 5.09991 8.28 5.09991 9.6V18Z" fill="currentColor"/>
</svg>
