<svg width="140" height="150" viewBox="0 0 140 150" fill="none" xmlns="http://www.w3.org/2000/svg">
<path d="M105.237 88.9867L123.394 3.54796C123.781 1.72041 122.39 0 120.52 0H33.5674C32.1828 0 30.9824 0.970408 30.6938 2.32653L19.6504 54.2786C19.2636 56.1061 20.6544 57.8265 22.5241 57.8265H51.4388C53.3085 57.8265 54.7024 59.5469 54.3125 61.3745L48.1844 90.2082C47.8959 91.5643 46.6985 92.5347 45.3108 92.5347H13.9031C12.5154 92.5347 11.318 93.5051 11.0294 94.8612L0.0658951 146.452C-0.320945 148.28 1.06984 150 2.93956 150H126.099C127.487 150 128.684 149.03 128.973 147.673L139.936 96.0857C140.323 94.2582 138.932 92.5378 137.062 92.5378H108.111C106.244 92.5378 104.85 90.8174 105.237 88.9898V88.9867Z" fill="currentColor"/>
</svg>
