<svg width="23" height="21" viewBox="0 0 23 21" fill="none" xmlns="http://www.w3.org/2000/svg">
<path d="M19.5 6.5C19.2167 6.5 18.9792 6.40417 18.7875 6.2125C18.5958 6.02083 18.5 5.78333 18.5 5.5V4.5H17.5C17.2167 4.5 16.9792 4.40417 16.7875 4.2125C16.5958 4.02083 16.5 3.78333 16.5 3.5C16.5 3.21667 16.5958 2.97917 16.7875 2.7875C16.9792 2.59583 17.2167 2.5 17.5 2.5H18.5V1.5C18.5 1.21667 18.5958 0.979167 18.7875 0.7875C18.9792 0.595833 19.2167 0.5 19.5 0.5C19.7833 0.5 20.0208 0.595833 20.2125 0.7875C20.4042 0.979167 20.5 1.21667 20.5 1.5V2.5H21.5C21.7833 2.5 22.0208 2.59583 22.2125 2.7875C22.4042 2.97917 22.5 3.21667 22.5 3.5C22.5 3.78333 22.4042 4.02083 22.2125 4.2125C22.0208 4.40417 21.7833 4.5 21.5 4.5H20.5V5.5C20.5 5.78333 20.4042 6.02083 20.2125 6.2125C20.0208 6.40417 19.7833 6.5 19.5 6.5ZM10.5 17C11.75 17 12.8125 16.5625 13.6875 15.6875C14.5625 14.8125 15 13.75 15 12.5C15 11.25 14.5625 10.1875 13.6875 9.3125C12.8125 8.4375 11.75 8 10.5 8C9.25 8 8.1875 8.4375 7.3125 9.3125C6.4375 10.1875 6 11.25 6 12.5C6 13.75 6.4375 14.8125 7.3125 15.6875C8.1875 16.5625 9.25 17 10.5 17ZM10.5 15C9.8 15 9.20833 14.7583 8.725 14.275C8.24167 13.7917 8 13.2 8 12.5C8 11.8 8.24167 11.2083 8.725 10.725C9.20833 10.2417 9.8 10 10.5 10C11.2 10 11.7917 10.2417 12.275 10.725C12.7583 11.2083 13 11.8 13 12.5C13 13.2 12.7583 13.7917 12.275 14.275C11.7917 14.7583 11.2 15 10.5 15ZM2.5 20.5C1.95 20.5 1.47917 20.3042 1.0875 19.9125C0.695833 19.5208 0.5 19.05 0.5 18.5V6.5C0.5 5.95 0.695833 5.47917 1.0875 5.0875C1.47917 4.69583 1.95 4.5 2.5 4.5H5.65L6.9 3.15C7.08333 2.95 7.30417 2.79167 7.5625 2.675C7.82083 2.55833 8.09167 2.5 8.375 2.5H13.5C13.7833 2.5 14.0208 2.59583 14.2125 2.7875C14.4042 2.97917 14.5 3.21667 14.5 3.5V5C14.5 5.41667 14.6458 5.77083 14.9375 6.0625C15.2292 6.35417 15.5833 6.5 16 6.5H16.5V7C16.5 7.41667 16.6458 7.77083 16.9375 8.0625C17.2292 8.35417 17.5833 8.5 18 8.5H19.5C19.7833 8.5 20.0208 8.59583 20.2125 8.7875C20.4042 8.97917 20.5 9.21667 20.5 9.5V18.5C20.5 19.05 20.3042 19.5208 19.9125 19.9125C19.5208 20.3042 19.05 20.5 18.5 20.5H2.5Z" fill="currentColor"/>
</svg>
