<svg width="19" height="20" viewBox="0 0 19 20" fill="none" xmlns="http://www.w3.org/2000/svg">
<path d="M8.14286 11.3571H1.35714C0.972619 11.3571 0.650298 11.2271 0.390179 10.967C0.13006 10.7068 0 10.3845 0 10C0 9.61548 0.13006 9.29316 0.390179 9.03304C0.650298 8.77292 0.972619 8.64286 1.35714 8.64286H8.14286V1.85714C8.14286 1.47262 8.27292 1.1503 8.53304 0.890179C8.79316 0.63006 9.11548 0.5 9.5 0.5C9.88452 0.5 10.2068 0.63006 10.467 0.890179C10.7271 1.1503 10.8571 1.47262 10.8571 1.85714V8.64286H17.6429C18.0274 8.64286 18.3497 8.77292 18.6098 9.03304C18.8699 9.29316 19 9.61548 19 10C19 10.3845 18.8699 10.7068 18.6098 10.967C18.3497 11.2271 18.0274 11.3571 17.6429 11.3571H10.8571V18.1429C10.8571 18.5274 10.7271 18.8497 10.467 19.1098C10.2068 19.3699 9.88452 19.5 9.5 19.5C9.11548 19.5 8.79316 19.3699 8.53304 19.1098C8.27292 18.8497 8.14286 18.5274 8.14286 18.1429V11.3571Z" fill="currentColor"/>
</svg>
