<svg width="28" height="28" viewBox="0 0 28 28" fill="none" xmlns="http://www.w3.org/2000/svg">
<path d="M11.6854 23.3708C8.41948 23.3708 5.65543 22.2397 3.39326 19.9775C1.13109 17.7154 0 14.9513 0 11.6854C0 8.41948 1.13109 5.65543 3.39326 3.39326C5.65543 1.13109 8.41948 0 11.6854 0C14.9513 0 17.7154 1.13109 19.9775 3.39326C22.2397 5.65543 23.3708 8.41948 23.3708 11.6854C23.3708 13.0037 23.161 14.2472 22.7416 15.4157C22.3221 16.5843 21.7528 17.618 21.0337 18.5169L27.5056 24.9888C27.8352 25.3184 28 25.7378 28 26.2472C28 26.7566 27.8352 27.176 27.5056 27.5056C27.176 27.8352 26.7566 28 26.2472 28C25.7378 28 25.3184 27.8352 24.9888 27.5056L18.5169 21.0337C17.618 21.7528 16.5843 22.3221 15.4157 22.7416C14.2472 23.161 13.0037 23.3708 11.6854 23.3708ZM11.6854 19.7753C13.9326 19.7753 15.8427 18.9888 17.4157 17.4157C18.9888 15.8427 19.7753 13.9326 19.7753 11.6854C19.7753 9.4382 18.9888 7.52809 17.4157 5.95506C15.8427 4.38202 13.9326 3.59551 11.6854 3.59551C9.4382 3.59551 7.52809 4.38202 5.95506 5.95506C4.38202 7.52809 3.59551 9.4382 3.59551 11.6854C3.59551 13.9326 4.38202 15.8427 5.95506 17.4157C7.52809 18.9888 9.4382 19.7753 11.6854 19.7753Z" fill="currentColor"/>
</svg>
