<svg width="18" height="18" viewBox="0 0 18 18" fill="none" xmlns="http://www.w3.org/2000/svg">
<path d="M7.88918 18C7.46376 18 7.09743 17.865 6.79018 17.595C6.48293 17.325 6.29779 16.995 6.23477 16.605L6.02206 15.12C5.81723 15.045 5.62421 14.955 5.44302 14.85C5.26182 14.745 5.08456 14.6325 4.91124 14.5125L3.4459 15.0975C3.052 15.2625 2.65809 15.2775 2.26418 15.1425C1.87027 15.0075 1.56303 14.7675 1.34244 14.4225L0.231618 12.5775C0.0110294 12.2325 -0.0519958 11.865 0.042542 11.475C0.13708 11.085 0.34979 10.7625 0.680672 10.5075L1.9333 9.6075C1.91754 9.5025 1.90966 9.40125 1.90966 9.30375V8.69625C1.90966 8.59875 1.91754 8.4975 1.9333 8.3925L0.680672 7.4925C0.34979 7.2375 0.13708 6.915 0.042542 6.525C-0.0519958 6.135 0.0110294 5.7675 0.231618 5.4225L1.34244 3.5775C1.56303 3.2325 1.87027 2.9925 2.26418 2.8575C2.65809 2.7225 3.052 2.7375 3.4459 2.9025L4.91124 3.4875C5.08456 3.3675 5.26576 3.255 5.45483 3.15C5.64391 3.045 5.83298 2.955 6.02206 2.88L6.23477 1.395C6.29779 1.005 6.48293 0.675 6.79018 0.405C7.09743 0.135 7.46376 0 7.88918 0H10.1108C10.5362 0 10.9026 0.135 11.2098 0.405C11.5171 0.675 11.7022 1.005 11.7652 1.395L11.9779 2.88C12.1828 2.955 12.3758 3.045 12.557 3.15C12.7382 3.255 12.9154 3.3675 13.0888 3.4875L14.5541 2.9025C14.948 2.7375 15.3419 2.7225 15.7358 2.8575C16.1297 2.9925 16.437 3.2325 16.6576 3.5775L17.7684 5.4225C17.989 5.7675 18.052 6.135 17.9575 6.525C17.8629 6.915 17.6502 7.2375 17.3193 7.4925L16.0667 8.3925C16.0825 8.4975 16.0903 8.59875 16.0903 8.69625V9.30375C16.0903 9.40125 16.0746 9.5025 16.0431 9.6075L17.2957 10.5075C17.6266 10.7625 17.8393 11.085 17.9338 11.475C18.0284 11.865 17.9653 12.2325 17.7447 12.5775L16.6103 14.4225C16.3897 14.7675 16.0825 15.0075 15.6885 15.1425C15.2946 15.2775 14.9007 15.2625 14.5068 15.0975L13.0888 14.5125C12.9154 14.6325 12.7342 14.745 12.5452 14.85C12.3561 14.955 12.167 15.045 11.9779 15.12L11.7652 16.605C11.7022 16.995 11.5171 17.325 11.2098 17.595C10.9026 17.865 10.5362 18 10.1108 18H7.88918ZM9.04727 12.15C9.96113 12.15 10.7411 11.8425 11.3871 11.2275C12.0331 10.6125 12.3561 9.87 12.3561 9C12.3561 8.13 12.0331 7.3875 11.3871 6.7725C10.7411 6.1575 9.96113 5.85 9.04727 5.85C8.11765 5.85 7.33377 6.1575 6.69564 6.7725C6.05751 7.3875 5.73845 8.13 5.73845 9C5.73845 9.87 6.05751 10.6125 6.69564 11.2275C7.33377 11.8425 8.11765 12.15 9.04727 12.15Z" fill="currentColor"/>
</svg>
