<svg width="16" height="16" viewBox="0 0 16 16" fill="none" xmlns="http://www.w3.org/2000/svg">
<path d="M7.96 12.8C8.24 12.8 8.47667 12.7033 8.67 12.51C8.86333 12.3167 8.96 12.08 8.96 11.8C8.96 11.52 8.86333 11.2833 8.67 11.09C8.47667 10.8967 8.24 10.8 7.96 10.8C7.68 10.8 7.44333 10.8967 7.25 11.09C7.05667 11.2833 6.96 11.52 6.96 11.8C6.96 12.08 7.05667 12.3167 7.25 12.51C7.44333 12.7033 7.68 12.8 7.96 12.8ZM8 16C6.89333 16 5.85333 15.79 4.88 15.37C3.90667 14.95 3.06 14.38 2.34 13.66C1.62 12.94 1.05 12.0933 0.63 11.12C0.21 10.1467 0 9.10667 0 8C0 6.89333 0.21 5.85333 0.63 4.88C1.05 3.90667 1.62 3.06 2.34 2.34C3.06 1.62 3.90667 1.05 4.88 0.63C5.85333 0.21 6.89333 0 8 0C9.10667 0 10.1467 0.21 11.12 0.63C12.0933 1.05 12.94 1.62 13.66 2.34C14.38 3.06 14.95 3.90667 15.37 4.88C15.79 5.85333 16 6.89333 16 8C16 9.10667 15.79 10.1467 15.37 11.12C14.95 12.0933 14.38 12.94 13.66 13.66C12.94 14.38 12.0933 14.95 11.12 15.37C10.1467 15.79 9.10667 16 8 16ZM8.08 4.56C8.41333 4.56 8.70333 4.66667 8.95 4.88C9.19667 5.09333 9.32 5.36 9.32 5.68C9.32 5.97333 9.23 6.23333 9.05 6.46C8.87 6.68667 8.66667 6.9 8.44 7.1C8.13333 7.36667 7.86333 7.66 7.63 7.98C7.39667 8.3 7.28 8.66 7.28 9.06C7.28 9.24667 7.35 9.40333 7.49 9.53C7.63 9.65667 7.79333 9.72 7.98 9.72C8.18 9.72 8.35 9.65333 8.49 9.52C8.63 9.38667 8.72 9.22 8.76 9.02C8.81333 8.74 8.93333 8.49 9.12 8.27C9.30667 8.05 9.50667 7.84 9.72 7.64C10.0267 7.34667 10.29 7.02667 10.51 6.68C10.73 6.33333 10.84 5.94667 10.84 5.52C10.84 4.84 10.5633 4.28333 10.01 3.85C9.45667 3.41667 8.81333 3.2 8.08 3.2C7.57333 3.2 7.09 3.30667 6.63 3.52C6.17 3.73333 5.82 4.06 5.58 4.5C5.48667 4.66 5.45667 4.83 5.49 5.01C5.52333 5.19 5.61333 5.32667 5.76 5.42C5.94667 5.52667 6.14 5.56 6.34 5.52C6.54 5.48 6.70667 5.36667 6.84 5.18C6.98667 4.98 7.17 4.82667 7.39 4.72C7.61 4.61333 7.84 4.56 8.08 4.56Z" fill="currentColor"/>
</svg>
