<svg width="14" height="16" viewBox="0 0 14 16" fill="none" xmlns="http://www.w3.org/2000/svg">
<path d="M2.625 16C2.14375 16 1.73177 15.8259 1.38906 15.4778C1.04635 15.1296 0.875 14.7111 0.875 14.2222V2.66667C0.627083 2.66667 0.419271 2.58148 0.251563 2.41111C0.0838542 2.24074 0 2.02963 0 1.77778C0 1.52593 0.0838542 1.31481 0.251563 1.14444C0.419271 0.974074 0.627083 0.888889 0.875 0.888889H4.375C4.375 0.637037 4.45885 0.425926 4.62656 0.255556C4.79427 0.0851852 5.00208 0 5.25 0H8.75C8.99792 0 9.20573 0.0851852 9.37344 0.255556C9.54115 0.425926 9.625 0.637037 9.625 0.888889H13.125C13.3729 0.888889 13.5807 0.974074 13.7484 1.14444C13.9161 1.31481 14 1.52593 14 1.77778C14 2.02963 13.9161 2.24074 13.7484 2.41111C13.5807 2.58148 13.3729 2.66667 13.125 2.66667V14.2222C13.125 14.7111 12.9536 15.1296 12.6109 15.4778C12.2682 15.8259 11.8562 16 11.375 16H2.625ZM7 9.68889L8.6625 11.3778C8.82292 11.5407 9.02708 11.6222 9.275 11.6222C9.52292 11.6222 9.72708 11.5407 9.8875 11.3778C10.0479 11.2148 10.1281 11.0074 10.1281 10.7556C10.1281 10.5037 10.0479 10.2963 9.8875 10.1333L8.225 8.44444L9.8875 6.75556C10.0479 6.59259 10.1281 6.38519 10.1281 6.13333C10.1281 5.88148 10.0479 5.67407 9.8875 5.51111C9.72708 5.34815 9.52292 5.26667 9.275 5.26667C9.02708 5.26667 8.82292 5.34815 8.6625 5.51111L7 7.2L5.3375 5.51111C5.17708 5.34815 4.97292 5.26667 4.725 5.26667C4.47708 5.26667 4.27292 5.34815 4.1125 5.51111C3.95208 5.67407 3.87188 5.88148 3.87188 6.13333C3.87188 6.38519 3.95208 6.59259 4.1125 6.75556L5.775 8.44444L4.1125 10.1333C3.95208 10.2963 3.87188 10.5037 3.87188 10.7556C3.87188 11.0074 3.95208 11.2148 4.1125 11.3778C4.27292 11.5407 4.47708 11.6222 4.725 11.6222C4.97292 11.6222 5.17708 11.5407 5.3375 11.3778L7 9.68889Z" fill="currentColor"/>
</svg>
