<svg width="28" height="28" viewBox="0 0 28 28" fill="none" xmlns="http://www.w3.org/2000/svg"><path d="M13.871 28c-3.405 0-6.398-1.045-8.977-3.134-2.58-2.09-4.202-4.75-4.866-7.98a.965.965 0 01.18-.841c.191-.247.445-.39.762-.43.316-.04.595.035.836.224s.405.44.49.754c.603 2.674 1.978 4.875 4.126 6.604 2.148 1.728 4.631 2.593 7.45 2.593 3.32 0 6.134-1.143 8.44-3.427 2.304-2.284 3.457-5.072 3.457-8.363 0-3.291-1.152-6.079-3.458-8.363-2.305-2.284-5.118-3.426-8.44-3.426-2.236 0-4.294.569-6.173 1.707-1.88 1.138-3.328 2.7-4.346 4.683h3.284c.315 0 .58.106.794.318.214.212.32.475.32.788 0 .313-.106.576-.32.787a1.086 1.086 0 01-.794.318H2.044c-.495 0-.89-.199-1.182-.595C.57 9.82.51 9.399.684 8.956c1.031-2.672 2.745-4.833 5.14-6.482C8.22.824 10.904 0 13.872 0c1.955 0 3.792.367 5.51 1.102 1.72.735 3.215 1.733 4.486 2.992a14.127 14.127 0 013.02 4.445C27.63 10.242 28 12.06 28 13.997c0 1.937-.37 3.757-1.113 5.46a14.133 14.133 0 01-3.02 4.447c-1.271 1.26-2.767 2.258-4.486 2.993-1.718.735-3.555 1.103-5.51 1.103zm1.116-14.448l3.718 3.699c.206.2.309.456.309.767 0 .31-.103.57-.31.779-.205.208-.466.31-.783.306a1.09 1.09 0 01-.783-.314l-3.975-3.938a1.337 1.337 0 01-.31-.455 1.346 1.346 0 01-.097-.504V8.275a1.089 1.089 0 011.116-1.105c.316 0 .58.106.794.318.214.212.32.474.32.787v5.277z" fill="#2453E1"/></svg>3853C27.6291 10.2416 28 12.0612 28 13.9974C28 15.9338 27.6291 17.754 26.8872 19.4578C26.1455 21.1616 25.1389 22.6436 23.8673 23.9039C22.5958 25.1641 21.1005 26.1619 19.3815 26.8973C17.6625 27.6324 15.8258 28 13.8713 28ZM14.9867 13.5524L18.7048 17.2506C18.9108 17.4515 19.0138 17.7072 19.0138 18.0176C19.0138 18.3281 18.9108 18.5877 18.7048 18.7965C18.4988 19.0052 18.2375 19.1073 17.921 19.1026C17.6045 19.098 17.3433 18.9936 17.1376 18.7895L13.1634 14.8514C13.0213 14.7107 12.918 14.559 12.8533 14.3964C12.7883 14.2338 12.7559 14.0658 12.7559 13.8924V8.27547C12.7559 7.96232 12.8628 7.69975 13.0767 7.48779C13.2906 7.27607 13.5556 7.17021 13.8717 7.17021C14.1879 7.17021 14.4528 7.27607 14.6662 7.48779C14.8799 7.69975 14.9867 7.96232 14.9867 8.27547V13.5524Z" fill="#2453E1"/>
</svg>
