<svg width="32" height="30" viewBox="0 0 32 30" fill="none" xmlns="http://www.w3.org/2000/svg"><path d="M6.28 22.747c.577 0 1.066-.198 1.467-.595a1.96 1.96 0 00.602-1.446c0-.567-.202-1.048-.605-1.443a2.026 2.026 0 00-1.47-.592c-.577 0-1.066.199-1.467.596-.402.397-.602.879-.602 1.446s.202 1.048.605 1.442c.404.395.894.592 1.47.592zm14.379 0c.497 0 .935-.153 1.311-.46.377-.306.606-.697.688-1.17a5.633 5.633 0 01-1.392-.526 5.691 5.691 0 01-1.238-.91l-.61-.6a1.979 1.979 0 00-.831 1.628c0 .566.201 1.047.604 1.444.403.396.892.594 1.468.594zM0 17.36c0-.162.01-.324.032-.486.021-.162.059-.316.111-.461l3.093-8.62c.118-.357.334-.642.65-.852a1.841 1.841 0 011.05-.317h4.266c.337 0 .619.112.847.337.228.224.341.501.341.833A1.16 1.16 0 019.202 8.96H5.338L3.34 14.536h11.27c.337 0 .62.112.847.336.228.224.342.502.342.833 0 .331-.114.609-.342.832a1.16 1.16 0 01-.846.336H2.377v7.672h22.182v-1.633c0-.331.114-.609.342-.833a1.16 1.16 0 01.847-.336c.337 0 .619.112.846.336.228.224.342.502.342.833v5.44c0 .457-.163.847-.49 1.167-.326.32-.722.481-1.188.481a1.63 1.63 0 01-1.187-.48 1.579 1.579 0 01-.487-1.168v-1.469H3.352v1.469c0 .457-.164.847-.49 1.167-.326.32-.722.481-1.188.481-.466 0-.861-.16-1.186-.48A1.578 1.578 0 010 28.351V17.359zM19.805 7.193c.389 0 .714-.13.977-.388s.395-.578.395-.96-.132-.703-.394-.961a1.337 1.337 0 00-.977-.388 1.34 1.34 0 00-.977.387 1.293 1.293 0 00-.394.96 1.338 1.338 0 001.37 1.349zM22.43 17.22l-7.928-7.798a2.169 2.169 0 01-.46-.679 2.002 2.002 0 01-.177-.817V2.113c0-.6.209-1.102.627-1.506A2.106 2.106 0 0116.012 0h5.911c.283 0 .56.058.831.174.271.116.501.267.69.452l7.928 7.799c.419.411.628.91.628 1.498s-.21 1.087-.628 1.498l-5.896 5.8a2.091 2.091 0 01-1.523.617 2.092 2.092 0 01-1.524-.617zm1.185-2.128a.47.47 0 00.343.135.469.469 0 00.343-.135l4.909-4.828a.453.453 0 00.137-.337.454.454 0 00-.137-.338l-7.237-7.118a.429.429 0 00-.168-.104.583.583 0 00-.182-.03h-5.138a.231.231 0 00-.244.24V7.63c0 .06.01.12.031.18a.42.42 0 00.107.164l7.236 7.118z" fill="#2453E1"/></svg>9.1987 2.86231 29.5192C2.53618 29.8397 2.14007 30 1.67397 30C1.20814 30 0.812692 29.8397 0.487615 29.5192C0.162538 29.1987 0 28.8095 0 28.3516V17.3587ZM19.8053 7.1926C20.1935 7.1926 20.5191 7.06351 20.7821 6.80532C21.0451 6.54688 21.1766 6.22662 21.1766 5.84455C21.1766 5.46273 21.0454 5.14247 20.7829 4.88377C20.5201 4.62506 20.1945 4.49571 19.8061 4.49571C19.4179 4.49571 19.0923 4.62481 18.8292 4.88299C18.5662 5.14143 18.4347 5.46169 18.4347 5.84377C18.4347 6.22558 18.566 6.54585 18.8284 6.80455C19.0912 7.06325 19.4168 7.1926 19.8053 7.1926ZM22.4291 17.2208L14.5009 9.42273C14.3121 9.23701 14.1588 9.01091 14.041 8.74442C13.923 8.47766 13.864 8.2052 13.864 7.92701V2.11286C13.864 1.51338 14.0728 1.01143 14.4906 0.607014C14.9084 0.202338 15.4155 0 16.0121 0H21.9233C22.2061 0 22.4831 0.0580508 22.7543 0.174155C23.0253 0.289999 23.2551 0.44078 23.444 0.626494L31.3722 8.42454C31.7907 8.83623 32 9.33571 32 9.92299C32 10.5105 31.7907 11.01 31.3722 11.4214L25.476 17.2208C25.0577 17.6325 24.5499 17.8383 23.9526 17.8383C23.3555 17.8383 22.8477 17.6325 22.4291 17.2208ZM23.6143 15.0931C23.7057 15.183 23.82 15.2279 23.9573 15.2279C24.0944 15.2279 24.2086 15.183 24.3 15.0931L29.209 10.2647C29.3004 10.1748 29.346 10.0625 29.346 9.92766C29.346 9.7926 29.3004 9.68013 29.209 9.59026L21.972 2.47247C21.9213 2.4226 21.8654 2.38766 21.8044 2.36766C21.7434 2.34766 21.6826 2.33766 21.6218 2.33766H16.4842C16.4132 2.33766 16.3549 2.36013 16.3092 2.40506C16.2635 2.45 16.2406 2.5074 16.2406 2.57727V7.63052C16.2406 7.69026 16.2508 7.75013 16.2711 7.81013C16.2915 7.87013 16.327 7.92507 16.3777 7.97494L23.6143 15.0931Z" fill="#2453E1"/>
</svg>
