<svg width="16" height="12" viewBox="0 0 16 12" fill="none" xmlns="http://www.w3.org/2000/svg">
<path d="M12.15 7.27858H1C0.716667 7.27858 0.479167 7.18274 0.2875 6.99108C0.0958333 6.79941 0 6.56191 0 6.27858C0 5.99524 0.0958333 5.75774 0.2875 5.56608C0.479167 5.37441 0.716667 5.27858 1 5.27858H12.15L9.3 2.42858C9.1 2.22858 9.00417 1.99524 9.0125 1.72858C9.02083 1.46191 9.11667 1.22858 9.3 1.02858C9.5 0.828576 9.7375 0.72441 10.0125 0.716076C10.2875 0.707743 10.525 0.803576 10.725 1.00358L15.3 5.57858C15.4 5.67858 15.4708 5.78691 15.5125 5.90358C15.5542 6.02024 15.575 6.14524 15.575 6.27858C15.575 6.41191 15.5542 6.53691 15.5125 6.65358C15.4708 6.77024 15.4 6.87858 15.3 6.97858L10.725 11.5536C10.525 11.7536 10.2875 11.8494 10.0125 11.8411C9.7375 11.8327 9.5 11.7286 9.3 11.5286C9.11667 11.3286 9.02083 11.0952 9.0125 10.8286C9.00417 10.5619 9.1 10.3286 9.3 10.1286L12.15 7.27858Z" fill="currentColor"/>
</svg>
