<svg width="20" height="22" viewBox="0 0 20 22" fill="none" xmlns="http://www.w3.org/2000/svg">
<path d="M10 15.9708C9.83333 15.9708 9.67708 15.9434 9.53125 15.8887C9.38542 15.834 9.25 15.7411 9.125 15.6098L4.625 10.8848C4.375 10.6223 4.25521 10.3161 4.26562 9.96606C4.27604 9.61606 4.39583 9.30981 4.625 9.04731C4.875 8.78481 5.17188 8.6481 5.51562 8.63716C5.85938 8.62622 6.15625 8.752 6.40625 9.0145L8.75 11.4754V2.09106C8.75 1.71919 8.86979 1.40747 9.10938 1.15591C9.34896 0.904346 9.64583 0.778564 10 0.778564C10.3542 0.778564 10.651 0.904346 10.8906 1.15591C11.1302 1.40747 11.25 1.71919 11.25 2.09106V11.4754L13.5938 9.0145C13.8438 8.752 14.1406 8.62622 14.4844 8.63716C14.8281 8.6481 15.125 8.78481 15.375 9.04731C15.6042 9.30981 15.724 9.61606 15.7344 9.96606C15.7448 10.3161 15.625 10.6223 15.375 10.8848L10.875 15.6098C10.75 15.7411 10.6146 15.834 10.4688 15.8887C10.3229 15.9434 10.1667 15.9708 10 15.9708ZM2.5 21.7786C1.8125 21.7786 1.22396 21.5215 0.734375 21.0075C0.244792 20.4934 0 19.8754 0 19.1536V16.5286C0 16.1567 0.119792 15.845 0.359375 15.5934C0.598958 15.3418 0.895833 15.2161 1.25 15.2161C1.60417 15.2161 1.90104 15.3418 2.14062 15.5934C2.38021 15.845 2.5 16.1567 2.5 16.5286V19.1536H17.5V16.5286C17.5 16.1567 17.6198 15.845 17.8594 15.5934C18.099 15.3418 18.3958 15.2161 18.75 15.2161C19.1042 15.2161 19.401 15.3418 19.6406 15.5934C19.8802 15.845 20 16.1567 20 16.5286V19.1536C20 19.8754 19.7552 20.4934 19.2656 21.0075C18.776 21.5215 18.1875 21.7786 17.5 21.7786H2.5Z" fill="currentColor"/>
</svg>
