<svg width="22" height="16" viewBox="0 0 22 16" fill="none" xmlns="http://www.w3.org/2000/svg">
<path d="M11.275 12.5C12.525 12.5 13.5875 12.0625 14.4625 11.1875C15.3375 10.3125 15.775 9.25 15.775 8C15.775 6.75 15.3375 5.6875 14.4625 4.8125C13.5875 3.9375 12.525 3.5 11.275 3.5C10.025 3.5 8.96249 3.9375 8.08749 4.8125C7.21249 5.6875 6.77499 6.75 6.77499 8C6.77499 9.25 7.21249 10.3125 8.08749 11.1875C8.96249 12.0625 10.025 12.5 11.275 12.5ZM11.275 10.7C10.525 10.7 9.88749 10.4375 9.36249 9.9125C8.83749 9.3875 8.57499 8.75 8.57499 8C8.57499 7.25 8.83749 6.6125 9.36249 6.0875C9.88749 5.5625 10.525 5.3 11.275 5.3C12.025 5.3 12.6625 5.5625 13.1875 6.0875C13.7125 6.6125 13.975 7.25 13.975 8C13.975 8.75 13.7125 9.3875 13.1875 9.9125C12.6625 10.4375 12.025 10.7 11.275 10.7ZM11.275 15.5C9.04165 15.5 7.00415 14.9 5.16249 13.7C3.32082 12.5 1.86665 10.9167 0.799988 8.95C0.716654 8.8 0.654154 8.64583 0.612488 8.4875C0.570821 8.32917 0.549988 8.16667 0.549988 8C0.549988 7.83333 0.570821 7.67083 0.612488 7.5125C0.654154 7.35417 0.716654 7.2 0.799988 7.05C1.86665 5.08333 3.32082 3.5 5.16249 2.3C7.00415 1.1 9.04165 0.5 11.275 0.5C13.5083 0.5 15.5458 1.1 17.3875 2.3C19.2292 3.5 20.6833 5.08333 21.75 7.05C21.8333 7.2 21.8958 7.35417 21.9375 7.5125C21.9792 7.67083 22 7.83333 22 8C22 8.16667 21.9792 8.32917 21.9375 8.4875C21.8958 8.64583 21.8333 8.8 21.75 8.95C20.6833 10.9167 19.2292 12.5 17.3875 13.7C15.5458 14.9 13.5083 15.5 11.275 15.5Z" fill="currentColor"/>
</svg>
