<svg width="21" height="23" viewBox="0 0 21 23" fill="none" xmlns="http://www.w3.org/2000/svg">
<path d="M14.175 18.0881C14.91 18.0881 15.5312 17.8349 16.0387 17.3286C16.5462 16.8222 16.8 16.2024 16.8 15.469C16.8 14.7357 16.5462 14.1159 16.0387 13.6095C15.5312 13.1032 14.91 12.85 14.175 12.85C13.44 12.85 12.8187 13.1032 12.3112 13.6095C11.8038 14.1159 11.55 14.7357 11.55 15.469C11.55 16.2024 11.8038 16.8222 12.3112 17.3286C12.8187 17.8349 13.44 18.0881 14.175 18.0881ZM19.53 22.2786L16.695 19.4762C16.3275 19.7032 15.9294 19.8778 15.5006 20C15.0719 20.1222 14.63 20.1833 14.175 20.1833C12.8625 20.1833 11.7469 19.725 10.8281 18.8083C9.90937 17.8917 9.45 16.7786 9.45 15.469C9.45 14.1595 9.90937 13.0464 10.8281 12.1298C11.7469 11.2131 12.8625 10.7548 14.175 10.7548C15.4875 10.7548 16.6031 11.2131 17.5219 12.1298C18.4406 13.0464 18.9 14.1595 18.9 15.469C18.9 15.9405 18.8344 16.3901 18.7031 16.8179C18.5719 17.2456 18.3925 17.6429 18.165 18.0095L21 20.8119L19.53 22.2786ZM2.1 21.2309C1.5225 21.2309 1.02812 21.0258 0.616875 20.6155C0.205625 20.2052 0 19.7119 0 19.1357V2.3738C0 1.79761 0.205625 1.30436 0.616875 0.894041C1.02812 0.483723 1.5225 0.278564 2.1 0.278564H10.5L16.8 6.56428V9.18333C16.38 9.00872 15.9512 8.87777 15.5137 8.79047C15.0762 8.70317 14.63 8.65952 14.175 8.65952C12.0225 8.65952 10.3381 9.37103 9.12187 10.794C7.90562 12.2171 7.2975 13.8016 7.2975 15.5476C7.2975 16.6302 7.55562 17.6778 8.07187 18.6905C8.58812 19.7032 9.40625 20.55 10.5262 21.2309H2.1ZM9.45 7.6119H14.7L9.45 2.3738V7.6119Z" fill="currentColor"/>
</svg>
