<svg width="18" height="16" viewBox="0 0 18 16" fill="none" xmlns="http://www.w3.org/2000/svg">
<path d="M3 16C2.71667 16 2.47917 15.9042 2.2875 15.7125C2.09583 15.5208 2 15.2833 2 15V9H1C0.716667 9 0.479167 8.90417 0.2875 8.7125C0.0958333 8.52083 0 8.28333 0 8C0 7.71667 0.0958333 7.47917 0.2875 7.2875C0.479167 7.09583 0.716667 7 1 7H5C5.28333 7 5.52083 7.09583 5.7125 7.2875C5.90417 7.47917 6 7.71667 6 8C6 8.28333 5.90417 8.52083 5.7125 8.7125C5.52083 8.90417 5.28333 9 5 9H4V15C4 15.2833 3.90417 15.5208 3.7125 15.7125C3.52083 15.9042 3.28333 16 3 16ZM3 5C2.71667 5 2.47917 4.90417 2.2875 4.7125C2.09583 4.52083 2 4.28333 2 4V1C2 0.716667 2.09583 0.479167 2.2875 0.2875C2.47917 0.0958333 2.71667 0 3 0C3.28333 0 3.52083 0.0958333 3.7125 0.2875C3.90417 0.479167 4 0.716667 4 1V4C4 4.28333 3.90417 4.52083 3.7125 4.7125C3.52083 4.90417 3.28333 5 3 5ZM7 5C6.71667 5 6.47917 4.90417 6.2875 4.7125C6.09583 4.52083 6 4.28333 6 4C6 3.71667 6.09583 3.47917 6.2875 3.2875C6.47917 3.09583 6.71667 3 7 3H8V1C8 0.716667 8.09583 0.479167 8.2875 0.2875C8.47917 0.0958333 8.71667 0 9 0C9.28333 0 9.52083 0.0958333 9.7125 0.2875C9.90417 0.479167 10 0.716667 10 1V3H11C11.2833 3 11.5208 3.09583 11.7125 3.2875C11.9042 3.47917 12 3.71667 12 4C12 4.28333 11.9042 4.52083 11.7125 4.7125C11.5208 4.90417 11.2833 5 11 5H7ZM9 16C8.71667 16 8.47917 15.9042 8.2875 15.7125C8.09583 15.5208 8 15.2833 8 15V8C8 7.71667 8.09583 7.47917 8.2875 7.2875C8.47917 7.09583 8.71667 7 9 7C9.28333 7 9.52083 7.09583 9.7125 7.2875C9.90417 7.47917 10 7.71667 10 8V15C10 15.2833 9.90417 15.5208 9.7125 15.7125C9.52083 15.9042 9.28333 16 9 16ZM15 16C14.7167 16 14.4792 15.9042 14.2875 15.7125C14.0958 15.5208 14 15.2833 14 15V13H13C12.7167 13 12.4792 12.9042 12.2875 12.7125C12.0958 12.5208 12 12.2833 12 12C12 11.7167 12.0958 11.4792 12.2875 11.2875C12.4792 11.0958 12.7167 11 13 11H17C17.2833 11 17.5208 11.0958 17.7125 11.2875C17.9042 11.4792 18 11.7167 18 12C18 12.2833 17.9042 12.5208 17.7125 12.7125C17.5208 12.9042 17.2833 13 17 13H16V15C16 15.2833 15.9042 15.5208 15.7125 15.7125C15.5208 15.9042 15.2833 16 15 16ZM15 9C14.7167 9 14.4792 8.90417 14.2875 8.7125C14.0958 8.52083 14 8.28333 14 8V1C14 0.716667 14.0958 0.479167 14.2875 0.2875C14.4792 0.0958333 14.7167 0 15 0C15.2833 0 15.5208 0.0958333 15.7125 0.2875C15.9042 0.479167 16 0.716667 16 1V8C16 8.28333 15.9042 8.52083 15.7125 8.7125C15.5208 8.90417 15.2833 9 15 9Z" fill="currentColor"/>
</svg>
