<svg width="20" height="21" viewBox="0 0 20 21" fill="none" xmlns="http://www.w3.org/2000/svg">
<path d="M18.3077 15.7426C18.3077 16.0426 18.241 16.3509 18.0993 16.6509C17.9577 16.9509 17.7744 17.2342 17.5327 17.5009C17.1244 17.9509 16.6743 18.2759 16.166 18.4842C15.666 18.6926 15.1244 18.8009 14.541 18.8009C13.691 18.8009 12.7827 18.6009 11.8243 18.1926C10.866 17.7842 9.90768 17.2342 8.95768 16.5426C7.99935 15.8426 7.09102 15.0676 6.22435 14.2092C5.36602 13.3426 4.59102 12.4342 3.89935 11.4842C3.21602 10.5342 2.66602 9.58422 2.26602 8.64255C1.86602 7.69255 1.66602 6.78422 1.66602 5.91755C1.66602 5.35088 1.76602 4.80922 1.96602 4.30922C2.16602 3.80088 2.48268 3.33422 2.92435 2.91755C3.45768 2.39255 4.04102 2.13422 4.65768 2.13422C4.89102 2.13422 5.12435 2.18422 5.33268 2.28422C5.54935 2.38422 5.74102 2.53422 5.89102 2.75088L7.82435 5.47588C7.97435 5.68422 8.08268 5.87588 8.15768 6.05922C8.23268 6.23422 8.27435 6.40922 8.27435 6.56755C8.27435 6.76755 8.21602 6.96755 8.09935 7.15922C7.99102 7.35088 7.83268 7.55088 7.63268 7.75088L6.99935 8.40922C6.90768 8.50088 6.86602 8.60922 6.86602 8.74255C6.86602 8.80922 6.87435 8.86755 6.89102 8.93422C6.91602 9.00088 6.94102 9.05088 6.95768 9.10088C7.10768 9.37588 7.36602 9.73422 7.73268 10.1676C8.10768 10.6009 8.50768 11.0426 8.94102 11.4842C9.39102 11.9259 9.82435 12.3342 10.266 12.7092C10.6993 13.0759 11.0577 13.3259 11.341 13.4759C11.3827 13.4925 11.4327 13.5175 11.491 13.5425C11.5577 13.5675 11.6243 13.5759 11.6993 13.5759C11.841 13.5759 11.9493 13.5259 12.041 13.4342L12.6743 12.8092C12.8827 12.6009 13.0827 12.4426 13.2743 12.3426C13.466 12.2259 13.6577 12.1676 13.866 12.1676C14.0243 12.1676 14.191 12.2009 14.3743 12.2759C14.5577 12.3509 14.7494 12.4592 14.9577 12.6009L17.716 14.5592C17.9327 14.7092 18.0827 14.8842 18.1743 15.0925C18.2577 15.3009 18.3077 15.5092 18.3077 15.7426Z" stroke="currentColor" stroke-miterlimit="10"/>
<path d="M15.4167 7.96751C15.4167 7.46751 15.025 6.70084 14.4417 6.07584C13.9083 5.50084 13.2 5.05084 12.5 5.05084" stroke="currentColor" stroke-linecap="round" stroke-linejoin="round"/>
<path d="M18.3333 7.96755C18.3333 4.74255 15.725 2.13422 12.5 2.13422" stroke="currentColor" stroke-linecap="round" stroke-linejoin="round"/>
</svg>
