<svg width="21" height="20" viewBox="0 0 21 20" fill="none" xmlns="http://www.w3.org/2000/svg">
<path d="M4.69998 15.1C5.54998 14.45 6.49998 13.9375 7.54998 13.5625C8.59998 13.1875 9.69998 13 10.85 13C12 13 13.1 13.1875 14.15 13.5625C15.2 13.9375 16.15 14.45 17 15.1C17.5833 14.4167 18.0375 13.6417 18.3625 12.775C18.6875 11.9083 18.85 10.9833 18.85 10C18.85 7.78333 18.0708 5.89583 16.5125 4.3375C14.9541 2.77917 13.0666 2 10.85 2C8.63331 2 6.74581 2.77917 5.18748 4.3375C3.62914 5.89583 2.84998 7.78333 2.84998 10C2.84998 10.9833 3.01248 11.9083 3.33748 12.775C3.66248 13.6417 4.11664 14.4167 4.69998 15.1ZM10.85 11C9.86664 11 9.03748 10.6625 8.36248 9.9875C7.68748 9.3125 7.34998 8.48333 7.34998 7.5C7.34998 6.51667 7.68748 5.6875 8.36248 5.0125C9.03748 4.3375 9.86664 4 10.85 4C11.8333 4 12.6625 4.3375 13.3375 5.0125C14.0125 5.6875 14.35 6.51667 14.35 7.5C14.35 8.48333 14.0125 9.3125 13.3375 9.9875C12.6625 10.6625 11.8333 11 10.85 11ZM10.85 20C9.46664 20 8.16664 19.7375 6.94998 19.2125C5.73331 18.6875 4.67498 17.975 3.77498 17.075C2.87498 16.175 2.16248 15.1167 1.63748 13.9C1.11248 12.6833 0.849976 11.3833 0.849976 10C0.849976 8.61667 1.11248 7.31667 1.63748 6.1C2.16248 4.88333 2.87498 3.825 3.77498 2.925C4.67498 2.025 5.73331 1.3125 6.94998 0.7875C8.16664 0.2625 9.46664 0 10.85 0C12.2333 0 13.5333 0.2625 14.75 0.7875C15.9666 1.3125 17.025 2.025 17.925 2.925C18.825 3.825 19.5375 4.88333 20.0625 6.1C20.5875 7.31667 20.85 8.61667 20.85 10C20.85 11.3833 20.5875 12.6833 20.0625 13.9C19.5375 15.1167 18.825 16.175 17.925 17.075C17.025 17.975 15.9666 18.6875 14.75 19.2125C13.5333 19.7375 12.2333 20 10.85 20Z" fill="currentColor"/>
</svg>
