<svg width="21" height="19" viewBox="0 0 21 19" fill="none" xmlns="http://www.w3.org/2000/svg">
<path d="M0.988461 18.5C0.805128 18.5 0.638462 18.4542 0.488462 18.3625C0.338462 18.2708 0.221795 18.15 0.138462 18C0.0551282 17.85 0.00929487 17.6875 0.000961539 17.5125C-0.0073718 17.3375 0.0384615 17.1667 0.138462 17L9.38846 1C9.48846 0.833333 9.61763 0.708333 9.77596 0.625C9.93429 0.541667 10.0968 0.5 10.2635 0.5C10.4301 0.5 10.5926 0.541667 10.751 0.625C10.9093 0.708333 11.0385 0.833333 11.1385 1L20.3885 17C20.4885 17.1667 20.5343 17.3375 20.526 17.5125C20.5176 17.6875 20.4718 17.85 20.3885 18C20.3051 18.15 20.1885 18.2708 20.0385 18.3625C19.8885 18.4542 19.7218 18.5 19.5385 18.5H0.988461ZM10.2635 15.5C10.5468 15.5 10.7843 15.4042 10.976 15.2125C11.1676 15.0208 11.2635 14.7833 11.2635 14.5C11.2635 14.2167 11.1676 13.9792 10.976 13.7875C10.7843 13.5958 10.5468 13.5 10.2635 13.5C9.98013 13.5 9.74263 13.5958 9.55096 13.7875C9.35929 13.9792 9.26346 14.2167 9.26346 14.5C9.26346 14.7833 9.35929 15.0208 9.55096 15.2125C9.74263 15.4042 9.98013 15.5 10.2635 15.5ZM10.2635 12.5C10.5468 12.5 10.7843 12.4042 10.976 12.2125C11.1676 12.0208 11.2635 11.7833 11.2635 11.5V8.5C11.2635 8.21667 11.1676 7.97917 10.976 7.7875C10.7843 7.59583 10.5468 7.5 10.2635 7.5C9.98013 7.5 9.74263 7.59583 9.55096 7.7875C9.35929 7.97917 9.26346 8.21667 9.26346 8.5V11.5C9.26346 11.7833 9.35929 12.0208 9.55096 12.2125C9.74263 12.4042 9.98013 12.5 10.2635 12.5Z" fill="currentColor"/>
</svg>
