<svg width="100" height="100" viewBox="0 0 100 100" fill="none" xmlns="http://www.w3.org/2000/svg">
<path d="M50 0C22.4303 0 0 22.4303 0 50C0 77.5697 22.4303 100 50 100C77.5697 100 100 77.5697 100 50C100 22.4303 77.5697 0 50 0ZM67.9736 52.2356L40.4615 68.8558C40.0672 69.092 39.6171 69.2191 39.1574 69.224C38.6977 69.2289 38.245 69.1115 37.8457 68.8837C37.4464 68.6559 37.1149 68.326 36.8852 67.9278C36.6555 67.5296 36.5358 67.0775 36.5385 66.6178V33.3822C36.5358 32.9225 36.6555 32.4704 36.8852 32.0722C37.1149 31.674 37.4464 31.3441 37.8457 31.1163C38.245 30.8885 38.6977 30.7711 39.1574 30.776C39.6171 30.7809 40.0672 30.908 40.4615 31.1442L67.9736 47.7644C68.357 47.9981 68.674 48.3264 68.8939 48.7179C69.1138 49.1094 69.2294 49.5509 69.2294 50C69.2294 50.4491 69.1138 50.8906 68.8939 51.2821C68.674 51.6736 68.357 52.0019 67.9736 52.2356Z" fill="currentColor" fill-opacity="1"/>
</svg>
