<svg width="18" height="12" viewBox="0 0 18 12" fill="none" xmlns="http://www.w3.org/2000/svg">
<path d="M1 0C0.716667 0 0.479167 0.0958328 0.2875 0.287499C0.0958333 0.479166 0 0.716666 0 1C0 1.28333 0.0958333 1.52083 0.2875 1.7125C0.479167 1.90417 0.716667 2 1 2H5C5.28333 2 5.52083 1.90417 5.7125 1.7125C5.90417 1.52083 6 1.28333 6 1C6 0.716666 5.90417 0.479166 5.7125 0.287499C5.52083 0.0958328 5.28333 0 5 0H1ZM1 5C0.716667 5 0.479167 5.09583 0.2875 5.2875C0.0958333 5.47917 0 5.71667 0 6C0 6.28333 0.0958333 6.52083 0.2875 6.7125C0.479167 6.90417 0.716667 7 1 7H11C11.2833 7 11.5208 6.90417 11.7125 6.7125C11.9042 6.52083 12 6.28333 12 6C12 5.71667 11.9042 5.47917 11.7125 5.2875C11.5208 5.09583 11.2833 5 11 5H1ZM1 10C0.716667 10 0.479167 10.0958 0.2875 10.2875C0.0958333 10.4792 0 10.7167 0 11C0 11.2833 0.0958333 11.5208 0.2875 11.7125C0.479167 11.9042 0.716667 12 1 12H17C17.2833 12 17.5208 11.9042 17.7125 11.7125C17.9042 11.5208 18 11.2833 18 11C18 10.7167 17.9042 10.4792 17.7125 10.2875C17.5208 10.0958 17.2833 10 17 10H1Z" fill="currentColor"/>
</svg>
