<svg width="17" height="16" viewBox="0 0 17 16" fill="none" xmlns="http://www.w3.org/2000/svg">
<path d="M2.5 15.7875C1.95 15.7875 1.47917 15.5917 1.0875 15.2C0.695833 14.8084 0.5 14.3375 0.5 13.7875V11.7875C0.5 11.5042 0.595833 11.2667 0.7875 11.075C0.979167 10.8834 1.21667 10.7875 1.5 10.7875C1.78333 10.7875 2.02083 10.8834 2.2125 11.075C2.40417 11.2667 2.5 11.5042 2.5 11.7875V13.7875H14.5V11.7875C14.5 11.5042 14.5958 11.2667 14.7875 11.075C14.9792 10.8834 15.2167 10.7875 15.5 10.7875C15.7833 10.7875 16.0208 10.8834 16.2125 11.075C16.4042 11.2667 16.5 11.5042 16.5 11.7875V13.7875C16.5 14.3375 16.3042 14.8084 15.9125 15.2C15.5208 15.5917 15.05 15.7875 14.5 15.7875H2.5ZM7.5 3.63752L5.625 5.51252C5.425 5.71252 5.1875 5.80836 4.9125 5.80002C4.6375 5.79169 4.4 5.68752 4.2 5.48752C4.01667 5.28752 3.92083 5.05419 3.9125 4.78752C3.90417 4.52086 4 4.28752 4.2 4.08752L7.8 0.487524C7.9 0.387524 8.00833 0.316691 8.125 0.275024C8.24167 0.233358 8.36667 0.212524 8.5 0.212524C8.63333 0.212524 8.75833 0.233358 8.875 0.275024C8.99167 0.316691 9.1 0.387524 9.2 0.487524L12.8 4.08752C13 4.28752 13.0958 4.52086 13.0875 4.78752C13.0792 5.05419 12.9833 5.28752 12.8 5.48752C12.6 5.68752 12.3625 5.79169 12.0875 5.80002C11.8125 5.80836 11.575 5.71252 11.375 5.51252L9.5 3.63752V10.7875C9.5 11.0709 9.40417 11.3084 9.2125 11.5C9.02083 11.6917 8.78333 11.7875 8.5 11.7875C8.21667 11.7875 7.97917 11.6917 7.7875 11.5C7.59583 11.3084 7.5 11.0709 7.5 10.7875V3.63752Z" fill="currentColor"/>
</svg>
