<svg width="18" height="23" viewBox="0 0 18 23" fill="none" xmlns="http://www.w3.org/2000/svg">
<path d="M7.875 14.9434V18.4359C7.875 18.7475 7.98281 19.0088 8.19844 19.2196C8.41406 19.4305 8.68125 19.5359 9 19.5359C9.31875 19.5359 9.58594 19.4305 9.80156 19.2196C10.0172 19.0088 10.125 18.7475 10.125 18.4359V14.9434L11.1375 15.9334C11.25 16.0434 11.3766 16.1259 11.5172 16.1809C11.6578 16.2359 11.7984 16.2588 11.9391 16.2496C12.0797 16.2405 12.2156 16.2084 12.3469 16.1534C12.4781 16.0984 12.6 16.0159 12.7125 15.9059C12.9187 15.6859 13.0266 15.4292 13.0359 15.1359C13.0453 14.8425 12.9375 14.5859 12.7125 14.3659L9.7875 11.5059C9.675 11.3959 9.55312 11.318 9.42188 11.2721C9.29062 11.2263 9.15 11.2034 9 11.2034C8.85 11.2034 8.70937 11.2263 8.57812 11.2721C8.44687 11.318 8.325 11.3959 8.2125 11.5059L5.2875 14.3659C5.0625 14.5859 4.95469 14.8425 4.96406 15.1359C4.97344 15.4292 5.09062 15.6859 5.31562 15.9059C5.54062 16.1075 5.80312 16.213 6.10312 16.2221C6.40312 16.2313 6.66562 16.1259 6.89062 15.9059L7.875 14.9434ZM2.25 22.8359C1.63125 22.8359 1.10156 22.6205 0.660937 22.1896C0.220312 21.7588 0 21.2409 0 20.6359V3.03588C0 2.43088 0.220312 1.91296 0.660937 1.48213C1.10156 1.05129 1.63125 0.835876 2.25 0.835876H10.3219C10.6219 0.835876 10.9078 0.890876 11.1797 1.00088C11.4516 1.11088 11.6906 1.26671 11.8969 1.46838L17.3531 6.80338C17.5594 7.00504 17.7188 7.23879 17.8312 7.50463C17.9438 7.77046 18 8.05004 18 8.34338V20.6359C18 21.2409 17.7797 21.7588 17.3391 22.1896C16.8984 22.6205 16.3687 22.8359 15.75 22.8359H2.25ZM10.125 7.43588C10.125 7.74754 10.2328 8.00879 10.4484 8.21963C10.6641 8.43046 10.9312 8.53588 11.25 8.53588H15.75L10.125 3.03588V7.43588Z" fill="currentColor"/>
</svg>
