<?xml version="1.0" encoding="utf-8"?><svg width="16" height="12" fill="none" xmlns="http://www.w3.org/2000/svg" viewBox="0 0 16 12"><path d="M12.15 7.279H1a.968.968 0 01-.713-.288A.968.968 0 010 6.28c0-.284.096-.521.287-.713A.968.968 0 011 5.28h11.15L9.3 2.429a.916.916 0 01-.288-.7c.009-.267.105-.5.288-.7.2-.2.438-.305.712-.313a.93.93 0 01.713.288L15.3 5.579c.1.1.17.208.212.325.042.116.063.241.063.375 0 .133-.02.258-.063.375a.878.878 0 01-.212.325l-4.575 4.575a.93.93 0 01-.713.287 1.02 1.02 0 01-.712-.312c-.183-.2-.28-.434-.288-.7a.916.916 0 01.288-.7l2.85-2.85z" fill="currentColor"/></svg>