<?xml version="1.0" encoding="utf-8"?><svg width="9" height="12" fill="none" xmlns="http://www.w3.org/2000/svg" viewBox="0 0 9 12"><path d="M3.533 8.443v-7.28a.99.99 0 01.289-.716.932.932 0 01.694-.297c.27 0 .501.1.694.297a.99.99 0 01.288.716v7.264l1.84-1.913a.905.905 0 01.695-.305c.275 0 .507.102.694.305A.96.96 0 019 7.23a1.015 1.015 0 01-.289.716l-3.51 3.616a.906.906 0 01-.327.217.972.972 0 01-.74 0 .922.922 0 01-.32-.217L.289 7.945A1.006 1.006 0 010 7.238a.976.976 0 01.289-.724.937.937 0 01.694-.305c.265 0 .496.102.694.305l1.856 1.929z" fill="currentColor"/></svg>