<?xml version="1.0" encoding="utf-8"?><svg width="32" height="32" fill="none" xmlns="http://www.w3.org/2000/svg" viewBox="0 0 32 32"><path d="M10.668 29.333h10.666c5.36 0 6.32-2.146 6.6-4.76l1-10.666C29.294 10.653 28.361 8 22.668 8H9.334c-5.693 0-6.626 2.653-6.266 5.907l1 10.666c.28 2.614 1.24 4.76 6.6 4.76zM10.668 8V6.933c0-2.36 0-4.266 4.267-4.266h2.133c4.267 0 4.267 1.906 4.267 4.266V8" stroke="currentColor" stroke-width="1.5" stroke-miterlimit="10" stroke-linecap="round" stroke-linejoin="round"/><path d="M18.665 17.333v1.36c0 1.454-.013 2.64-2.666 2.64-2.64 0-2.667-1.173-2.667-2.626v-1.374c0-1.333 0-1.333 1.333-1.333h2.667c1.333 0 1.333 0 1.333 1.333zM28.868 14.667a21.979 21.979 0 01-10.2 4.026M3.492 15.027c3 2.053 6.387 3.293 9.84 3.68" stroke="currentColor" stroke-width="1.5" stroke-miterlimit="10" stroke-linecap="round" stroke-linejoin="round"/></svg>