<?xml version="1.0" encoding="utf-8"?><svg width="18" height="20" fill="none" xmlns="http://www.w3.org/2000/svg" viewBox="0 0 18 20"><path d="M11.5 16c-.7 0-1.292-.242-1.775-.725C9.242 14.792 9 14.2 9 13.5s.242-1.292.725-1.775C10.208 11.242 10.8 11 11.5 11s1.292.242 1.775.725c.483.483.725 1.075.725 1.775s-.242 1.292-.725 1.775c-.483.483-1.075.725-1.775.725zM2 20c-.55 0-1.02-.196-1.413-.587A1.926 1.926 0 010 18V4c0-.55.196-1.02.588-1.413A1.926 1.926 0 012 2h1V1c0-.283.096-.52.288-.713A.968.968 0 014 0c.283 0 .52.096.713.287C4.904.48 5 .718 5 1v1h8V1c0-.283.096-.52.287-.713A.968.968 0 0114 0c.283 0 .52.096.713.287.191.192.287.43.287.713v1h1c.55 0 1.02.196 1.413.587C17.803 2.98 18 3.45 18 4v14c0 .55-.196 1.02-.587 1.413A1.926 1.926 0 0116 20H2zm0-2h14V8H2v10z" fill="currentColor"/></svg>