<?xml version="1.0" encoding="utf-8"?><svg width="16" height="16" fill="none" xmlns="http://www.w3.org/2000/svg" viewBox="0 0 16 16"><path d="M8 16a7.79 7.79 0 01-3.12-.63 8.079 8.079 0 01-2.54-1.71 8.08 8.08 0 01-1.71-2.54A7.79 7.79 0 010 8c0-1.107.21-2.147.63-3.12.42-.973.99-1.82 1.71-2.54A8.079 8.079 0 014.88.63 7.79 7.79 0 018 0a7.79 7.79 0 013.12.63c.973.42 1.82.99 2.54 1.71s1.29 1.567 1.71 2.54c.42.973.63 2.013.63 3.12a7.79 7.79 0 01-.63 3.12 8.08 8.08 0 01-1.71 2.54 8.08 8.08 0 01-2.54 1.71A7.79 7.79 0 018 16zm0-1.6c.72 0 1.413-.117 2.08-.35a6.359 6.359 0 001.84-1.01L2.96 4.08a6.36 6.36 0 00-1.01 1.84A6.251 6.251 0 001.6 8c0 1.787.62 3.3 1.86 4.54C4.7 13.78 6.213 14.4 8 14.4zm5.04-2.48c.44-.56.777-1.173 1.01-1.84.233-.667.35-1.36.35-2.08 0-1.787-.62-3.3-1.86-4.54C11.3 2.22 9.787 1.6 8 1.6c-.72 0-1.413.117-2.08.35a6.36 6.36 0 00-1.84 1.01l8.96 8.96z" fill="currentColor"/></svg>