<?xml version="1.0" encoding="utf-8"?><svg width="42" height="44" fill="none" xmlns="http://www.w3.org/2000/svg" viewBox="0 0 42 44"><path fill-rule="evenodd" clip-rule="evenodd" d="M41.138 21.216h-4.984c-.548 0-.958-.494-.843-1.018l4.06-18.68C39.485.994 39.077.5 38.53.5H4.999a.857.857 0 00-.843.667L.02 20.198c-.114.524.295 1.018.843 1.018h4.823c.548 0 .956.494.842 1.019L2.102 42.48c-.115.525.295 1.019.843 1.019H36.66a.857.857 0 00.843-.668l4.478-20.598a.849.849 0 00-.843-1.018z" fill="#fff" fill-opacity=".7"/></svg>