<?xml version="1.0" encoding="utf-8"?><svg width="14" height="18" fill="none" xmlns="http://www.w3.org/2000/svg" viewBox="0 0 14 18"><path d="M5.95 8.686l-.725-.725a1.003 1.003 0 00-.7-.275c-.267 0-.5.1-.7.3-.2.2-.3.433-.3.7 0 .266.1.5.3.7l1.4 1.425c.2.2.438.3.713.3.275 0 .512-.1.712-.3l3.525-3.55c.2-.2.3-.434.3-.7 0-.267-.1-.5-.3-.7a.96.96 0 00-.7-.3c-.267 0-.5.1-.7.3L5.95 8.686zM7 15.51l-4.2 1.8c-.667.283-1.3.229-1.9-.163-.6-.391-.9-.946-.9-1.662V2.51c0-.55.196-1.021.588-1.413A1.926 1.926 0 012 .511h10c.55 0 1.02.196 1.412.587.392.392.588.863.588 1.413v12.975c0 .716-.3 1.27-.9 1.662-.6.392-1.233.446-1.9.163L7 15.51z" fill="currentColor"/></svg>