<?xml version="1.0" encoding="utf-8"?><svg width="20" height="22" fill="none" xmlns="http://www.w3.org/2000/svg" viewBox="0 0 20 22"><path d="M10 15.97c-.167 0-.323-.027-.469-.081a1.092 1.092 0 01-.406-.28l-4.5-4.724a1.234 1.234 0 01-.36-.919c.011-.35.13-.656.36-.919.25-.262.547-.399.89-.41.344-.01.641.115.891.377l2.344 2.461V2.091c0-.372.12-.684.36-.935A1.18 1.18 0 0110 .779c.354 0 .651.125.89.377.24.251.36.563.36.935v9.384l2.344-2.46c.25-.263.547-.389.89-.378.344.011.641.148.891.41.23.263.349.57.36.92.01.35-.11.655-.36.918l-4.5 4.725c-.125.131-.26.224-.406.279a1.324 1.324 0 01-.469.082zM2.5 21.78c-.688 0-1.276-.258-1.766-.771A2.593 2.593 0 010 19.154v-2.625c0-.372.12-.684.36-.936a1.18 1.18 0 01.89-.377c.354 0 .651.126.89.377.24.252.36.564.36.936v2.625h15v-2.625c0-.372.12-.684.36-.936a1.18 1.18 0 01.89-.377c.354 0 .651.126.89.377.24.252.36.564.36.936v2.625c0 .721-.245 1.34-.734 1.854-.49.514-1.078.77-1.766.77h-15z" fill="currentColor"/></svg>