<?xml version="1.0" encoding="utf-8"?><svg width="19" height="18" fill="none" xmlns="http://www.w3.org/2000/svg" viewBox="0 0 19 18"><path d="M9.814.896c.04 3.284.267 5.13 1.498 6.359 1.231 1.231 3.077 1.454 6.36 1.498-.129-4.283-3.577-7.732-7.858-7.857zM7.834 7.255C9.065 6.026 9.288 4.18 9.328.896a8.1 8.1 0 00-7.854 7.857c3.283-.04 5.128-.267 6.36-1.498zM1.475 9.24a8.1 8.1 0 007.853 7.856c-.04-3.284-.266-5.13-1.498-6.358C6.6 9.506 4.754 9.283 1.471 9.239h.004zM17.668 9.24c-3.283.04-5.128.266-6.36 1.498-1.23 1.232-1.453 3.078-1.497 6.358a8.1 8.1 0 007.854-7.857h.003z" fill="currentColor"/></svg>