<?xml version="1.0" encoding="utf-8"?><svg width="18" height="18" fill="none" xmlns="http://www.w3.org/2000/svg" viewBox="0 0 18 18"><path d="M2.045 18a1.992 1.992 0 01-1.444-.587C.2 17.02 0 16.55 0 16V2C0 1.45.2.98.6.587 1.002.196 1.484 0 2.046 0h6.137c.29 0 .532.096.729.287.196.192.294.43.294.713s-.098.52-.294.712A1.001 1.001 0 018.18 2H2.046v14h6.137c.29 0 .532.096.729.288.196.191.294.429.294.712s-.098.52-.294.712a1.001 1.001 0 01-.73.288H2.046zm12.452-8H7.16c-.29 0-.533-.096-.729-.287A.957.957 0 016.136 9c0-.283.098-.52.294-.713.196-.191.44-.287.73-.287h7.337L12.58 6.125a.907.907 0 01-.28-.675c0-.267.093-.5.28-.7a.98.98 0 01.716-.313.979.979 0 01.742.288L17.693 8.3a.95.95 0 010 1.4l-3.656 3.575a.963.963 0 01-.729.287 1.054 1.054 0 01-.729-.312.96.96 0 01-.268-.713.966.966 0 01.294-.687L14.497 10z" fill="currentColor"/></svg>