<?xml version="1.0" encoding="utf-8"?><svg width="14" height="19" fill="none" xmlns="http://www.w3.org/2000/svg" viewBox="0 0 14 19"><g clip-path="url(#bdclip0_514_15002)"><path fill-rule="evenodd" clip-rule="evenodd" d="M13.328.125h-9.14a.577.577 0 00-.566.461l-2.56 12.289c-.073.358.2.693.566.693h9.238c.274 0 .51-.192.565-.46l2.56-12.29c.073-.358-.297-.693-.663-.693zm-2.886 14.542H1.204a.577.577 0 00-.565.461l-.627 3.054c-.073.358.2.693.565.693h9.238c.274 0 .51-.193.565-.461l.627-3.054a.577.577 0 00-.565-.693z" fill="currentColor"/></g><defs><clipPath id="bdclip0_514_15002"><path fill="#fff" transform="translate(0 .5)" d="M0 0h14v18H0z"/></clipPath></defs></svg>