<?xml version="1.0" encoding="utf-8"?><svg width="22" height="16" fill="none" xmlns="http://www.w3.org/2000/svg" viewBox="0 0 22 16"><path d="M11.275 12.5c1.25 0 2.313-.438 3.188-1.313.875-.874 1.312-1.937 1.312-3.187 0-1.25-.438-2.313-1.313-3.188-.874-.875-1.937-1.312-3.187-1.312-1.25 0-2.313.438-3.188 1.313S6.775 6.75 6.775 8c0 1.25.437 2.313 1.312 3.188.875.874 1.938 1.312 3.188 1.312zm0-1.8c-.75 0-1.388-.262-1.913-.787A2.604 2.604 0 018.575 8c0-.75.262-1.388.787-1.912a2.604 2.604 0 011.913-.788c.75 0 1.387.263 1.912.788.526.524.788 1.162.788 1.912s-.262 1.387-.787 1.912a2.604 2.604 0 01-1.913.788zm0 4.8c-2.233 0-4.27-.6-6.113-1.8C3.321 12.5 1.867 10.917.8 8.95a1.907 1.907 0 01-.187-1.437C.653 7.354.716 7.2.8 7.05 1.867 5.083 3.32 3.5 5.162 2.3 7.004 1.1 9.042.5 11.275.5c2.233 0 4.27.6 6.112 1.8 1.842 1.2 3.296 2.783 4.363 4.75a1.906 1.906 0 01.188 1.438 2 2 0 01-.188.462c-1.067 1.967-2.52 3.55-4.363 4.75-1.841 1.2-3.879 1.8-6.112 1.8z" fill="currentColor"/></svg>