<?xml version="1.0" encoding="utf-8"?><svg width="21" height="23" fill="none" xmlns="http://www.w3.org/2000/svg" viewBox="0 0 21 23"><path d="M14.175 18.088c.735 0 1.356-.253 1.864-.76.507-.506.761-1.126.761-1.859 0-.733-.254-1.353-.761-1.86-.508-.506-1.129-.759-1.864-.759-.735 0-1.356.253-1.864.76-.507.506-.761 1.126-.761 1.859 0 .733.254 1.353.761 1.86.508.506 1.129.76 1.864.76zm5.355 4.19l-2.835-2.802a4.812 4.812 0 01-2.52.707c-1.312 0-2.428-.458-3.347-1.375-.919-.916-1.378-2.03-1.378-3.339 0-1.31.46-2.423 1.378-3.34.919-.916 2.035-1.374 3.347-1.374 1.313 0 2.428.458 3.347 1.375.919.916 1.378 2.03 1.378 3.339 0 .472-.066.921-.197 1.349-.131.428-.31.825-.538 1.191L21 20.813l-1.47 1.467zM2.1 21.232a2.024 2.024 0 01-1.483-.616A2.015 2.015 0 010 19.136V2.375c0-.576.206-1.07.617-1.48.411-.41.905-.615 1.483-.615h8.4l6.3 6.285v2.62a6.82 6.82 0 00-2.625-.524c-2.152 0-3.837.711-5.053 2.134-1.216 1.423-1.824 3.008-1.824 4.754 0 1.082.258 2.13.774 3.143.516 1.012 1.334 1.859 2.454 2.54H2.1zM9.45 7.61h5.25L9.45 2.375v5.238z" fill="currentColor"/></svg>