<?xml version="1.0" encoding="utf-8"?><svg width="18" height="16" fill="none" xmlns="http://www.w3.org/2000/svg" viewBox="0 0 18 16"><path d="M3 16a.967.967 0 01-.712-.287A.968.968 0 012 15V9H1a.968.968 0 01-.713-.287A.968.968 0 010 8c0-.283.096-.52.287-.713A.968.968 0 011 7h4c.283 0 .52.096.713.287.191.192.287.43.287.713s-.096.52-.287.713A.968.968 0 015 9H4v6c0 .283-.096.52-.288.713A.967.967 0 013 16zM3 5a.968.968 0 01-.712-.287A.968.968 0 012 4V1c0-.283.096-.52.288-.713A.968.968 0 013 0c.283 0 .52.096.712.287C3.905.48 4 .718 4 1v3c0 .283-.096.52-.288.713A.968.968 0 013 5zm4 0a.968.968 0 01-.713-.287A.968.968 0 016 4c0-.283.096-.52.287-.712A.968.968 0 017 3h1V1c0-.283.096-.52.287-.713A.968.968 0 019 0c.283 0 .52.096.713.287C9.904.48 10 .718 10 1v2h1c.283 0 .52.096.713.288.191.191.287.429.287.712s-.096.52-.287.713A.968.968 0 0111 5H7zm2 11a.967.967 0 01-.713-.287A.968.968 0 018 15V8c0-.283.096-.52.287-.713A.968.968 0 019 7c.283 0 .52.096.713.287.191.192.287.43.287.713v7c0 .283-.096.52-.287.713A.967.967 0 019 16zm6 0a.968.968 0 01-.713-.287A.968.968 0 0114 15v-2h-1a.968.968 0 01-.713-.287A.968.968 0 0112 12c0-.283.096-.52.287-.713A.968.968 0 0113 11h4c.283 0 .52.096.712.287.192.192.288.43.288.713s-.096.52-.288.713A.968.968 0 0117 13h-1v2c0 .283-.096.52-.287.713A.968.968 0 0115 16zm0-7a.968.968 0 01-.713-.287A.967.967 0 0114 8V1c0-.283.096-.52.287-.713A.968.968 0 0115 0c.283 0 .52.096.713.287.191.192.287.43.287.713v7c0 .283-.096.52-.287.713A.968.968 0 0115 9z" fill="currentColor"/></svg>