<?xml version="1.0" encoding="utf-8"?><svg width="64" height="64" fill="none" xmlns="http://www.w3.org/2000/svg" viewBox="0 0 64 64"><rect width="64" height="64" rx="32" fill="#DCFCE7"/><path d="M33.538 17.42l12.037 7.318c.45.28.8.661 1.05 1.144.25.483.375.99.375 1.525V43.95a2.96 2.96 0 01-.881 2.154C45.53 46.701 44.825 47 44 47H20c-.825 0-1.531-.299-2.119-.896A2.96 2.96 0 0117 43.95V27.407c0-.534.125-1.042.375-1.525.25-.483.6-.864 1.05-1.144l12.037-7.319A2.98 2.98 0 0132 17c.55 0 1.063.14 1.538.42zM32 34.267l11.7-7.09-11.7-7.09-11.7 7.09 11.7 7.09z" fill="#22C55E"/></svg>