<?xml version="1.0" encoding="utf-8"?><svg width="64" height="64" fill="none" xmlns="http://www.w3.org/2000/svg" viewBox="0 0 64 64"><rect width="64" height="64" rx="32" fill="#DCFCE7"/><path d="M26.627 38.762l18.635-18.12c.44-.428.953-.642 1.54-.642.586 0 1.099.214 1.538.641.44.428.66.936.66 1.524s-.22 1.096-.66 1.523l-20.174 19.67c-.44.428-.952.642-1.539.642-.586 0-1.1-.214-1.539-.641l-9.455-9.194c-.44-.428-.65-.936-.632-1.524.018-.587.248-1.095.687-1.523a2.17 2.17 0 011.567-.641 2.17 2.17 0 011.567.641l7.805 7.644z" fill="#22C55E"/></svg>