<?xml version="1.0" encoding="utf-8"?><svg width="20" height="21" fill="none" xmlns="http://www.w3.org/2000/svg" viewBox="0 0 20 21"><path d="M18.308 15.743c0 .3-.067.608-.209.908-.141.3-.325.583-.566.85-.409.45-.859.775-1.367.983-.5.209-1.042.317-1.625.317-.85 0-1.758-.2-2.717-.608a14.644 14.644 0 01-2.866-1.65 23.953 23.953 0 01-2.734-2.334A23.673 23.673 0 013.9 11.484c-.683-.95-1.233-1.9-1.633-2.841-.4-.95-.6-1.859-.6-2.725 0-.567.1-1.109.3-1.609.2-.508.517-.975.958-1.391.534-.525 1.117-.784 1.734-.784.233 0 .466.05.675.15.216.1.408.25.558.467l1.933 2.725c.15.208.259.4.334.583.075.175.116.35.116.509 0 .2-.058.4-.175.591a2.834 2.834 0 01-.466.592l-.634.658a.446.446 0 00-.133.334c0 .066.008.125.025.191.025.067.05.117.067.167.15.275.408.633.775 1.067.375.433.775.875 1.208 1.316.45.442.883.85 1.325 1.225.433.367.792.617 1.075.767.042.016.092.041.15.066a.575.575 0 00.208.034c.142 0 .25-.05.342-.142l.633-.625a2.56 2.56 0 01.6-.466 1.11 1.11 0 01.592-.175c.158 0 .325.033.508.108.184.075.375.183.584.325l2.758 1.958c.217.15.367.325.458.534.084.208.134.416.134.65z" stroke="currentColor" stroke-miterlimit="10"/><path d="M15.417 7.968c0-.5-.392-1.267-.975-1.892C13.908 5.5 13.2 5.05 12.5 5.05M18.333 7.968A5.829 5.829 0 0012.5 2.134" stroke="currentColor" stroke-linecap="round" stroke-linejoin="round"/></svg>