<?xml version="1.0" encoding="utf-8"?><svg width="16" height="17" fill="none" xmlns="http://www.w3.org/2000/svg" viewBox="0 0 16 17"><path fill-rule="evenodd" clip-rule="evenodd" d="M5.448 11.052c2.564 2.564 4.939 2.844 5.636 2.87.843.031 1.703-.657 2.075-1.362-.593-.696-1.366-1.236-2.212-1.821-.5.499-1.115 1.425-1.934 1.093-.466-.187-1.617-.717-2.622-1.723-1.005-1.006-1.535-2.156-1.724-2.621-.332-.821.597-1.438 1.097-1.937-.586-.86-1.116-1.653-1.811-2.216-.715.373-1.407 1.227-1.375 2.08.026.698.306 3.073 2.87 5.637zm5.587 4.203c-.96-.035-3.68-.411-6.53-3.26-2.849-2.85-3.224-5.57-3.26-6.53-.053-1.464 1.068-2.886 2.363-3.441a.98.98 0 01.964.106c1.072.782 1.811 1.966 2.446 2.894A1.003 1.003 0 016.9 6.3l-.904.904a6.82 6.82 0 001.338 1.962c.7.7 1.498 1.128 1.962 1.338L10.2 9.6a1 1 0 011.278-.114c.947.656 2.059 1.384 2.87 2.422a.98.98 0 01.126.99c-.558 1.302-1.97 2.411-3.439 2.357z" fill="currentColor"/></svg>