<?xml version="1.0" encoding="utf-8"?><svg width="21" height="20" fill="none" xmlns="http://www.w3.org/2000/svg" viewBox="0 0 21 20"><path d="M4.7 15.1c.85-.65 1.8-1.162 2.85-1.537a9.737 9.737 0 013.3-.563c1.15 0 2.25.188 3.3.563 1.05.374 2 .887 2.85 1.537a7.73 7.73 0 001.363-2.325A7.838 7.838 0 0018.85 10c0-2.217-.78-4.104-2.338-5.662C14.954 2.779 13.067 2 10.85 2s-4.104.78-5.663 2.338C3.63 5.896 2.85 7.783 2.85 10c0 .983.162 1.908.487 2.775.325.867.78 1.642 1.363 2.325zm6.15-4.1c-.983 0-1.813-.338-2.488-1.012C7.687 9.313 7.35 8.483 7.35 7.5c0-.983.337-1.813 1.012-2.487C9.037 4.338 9.867 4 10.85 4c.983 0 1.813.338 2.488 1.013.675.675 1.012 1.504 1.012 2.487 0 .983-.338 1.813-1.012 2.488-.675.675-1.505 1.012-2.488 1.012zm0 9a9.738 9.738 0 01-3.9-.788 10.099 10.099 0 01-3.175-2.137c-.9-.9-1.613-1.958-2.138-3.175A9.738 9.738 0 01.85 10c0-1.383.262-2.683.787-3.9a10.099 10.099 0 012.138-3.175c.9-.9 1.958-1.612 3.175-2.137A9.738 9.738 0 0110.85 0c1.383 0 2.683.263 3.9.787a10.1 10.1 0 013.175 2.138c.9.9 1.613 1.958 2.137 3.175a9.738 9.738 0 01.788 3.9 9.738 9.738 0 01-.788 3.9 10.098 10.098 0 01-2.137 3.175 10.1 10.1 0 01-3.175 2.137 9.738 9.738 0 01-3.9.788z" fill="currentColor"/></svg>