<?xml version="1.0" encoding="utf-8"?><svg width="21" height="19" fill="none" xmlns="http://www.w3.org/2000/svg" viewBox="0 0 21 19"><path d="M.988 18.5a.973.973 0 01-.85-.5 1.098 1.098 0 01-.137-.488A.898.898 0 01.138 17l9.25-16c.1-.167.23-.292.388-.375.158-.083.32-.125.488-.125.166 0 .329.042.487.125a.984.984 0 01.388.375l9.25 16c.1.167.145.337.137.512a1.099 1.099 0 01-.137.488.974.974 0 01-.85.5H.988zm9.275-3c.284 0 .521-.096.713-.287a.968.968 0 00.287-.713.968.968 0 00-.287-.713.968.968 0 00-.713-.287.967.967 0 00-.712.287.968.968 0 00-.288.713c0 .283.096.52.288.713.192.191.43.287.713.287zm0-3c.284 0 .521-.096.713-.287a.968.968 0 00.287-.713v-3a.968.968 0 00-.287-.713.968.968 0 00-.713-.287.968.968 0 00-.712.287.968.968 0 00-.288.713v3c0 .283.096.52.288.713.192.191.43.287.713.287z" fill="currentColor"/></svg>