<?xml version="1.0" encoding="utf-8"?><svg width="20" height="24" fill="none" xmlns="http://www.w3.org/2000/svg" viewBox="0 0 20 24"><path d="M1.537 20.4c-.336 0-.618-.115-.846-.345A1.167 1.167 0 01.35 19.2c0-.34.114-.625.341-.855.228-.23.51-.345.846-.345h1.188V9.6c0-1.66.495-3.135 1.484-4.425.99-1.29 2.276-2.135 3.86-2.535V1.8c0-.5.173-.925.52-1.275C8.934.175 9.354 0 9.848 0c.496 0 .916.175 1.263.525.346.35.52.775.52 1.275v.84c1.582.4 2.869 1.245 3.859 2.535.99 1.29 1.484 2.765 1.484 4.425V18h1.187c.337 0 .619.115.847.345.227.23.34.515.34.855 0 .34-.113.625-.34.855-.228.23-.51.345-.847.345H1.537zM9.85 24a2.275 2.275 0 01-1.677-.705 2.323 2.323 0 01-.698-1.695h4.75c0 .66-.233 1.225-.698 1.695A2.275 2.275 0 019.85 24zM5.1 18h9.5V9.6c0-1.32-.465-2.45-1.395-3.39-.93-.94-2.049-1.41-3.355-1.41s-2.425.47-3.355 1.41C5.565 7.15 5.1 8.28 5.1 9.6V18z" fill="currentColor"/></svg>