<?xml version="1.0" encoding="utf-8"?><svg width="140" height="150" fill="none" xmlns="http://www.w3.org/2000/svg" viewBox="0 0 140 150"><path d="M105.237 88.987l18.157-85.439A2.937 2.937 0 00120.52 0H33.567a2.94 2.94 0 00-2.873 2.327L19.65 54.279a2.937 2.937 0 002.874 3.547H51.44c1.87 0 3.263 1.72 2.873 3.548l-6.128 28.834a2.938 2.938 0 01-2.873 2.327H13.903c-1.388 0-2.585.97-2.874 2.326L.066 146.452A2.937 2.937 0 002.94 150h123.159c1.388 0 2.585-.97 2.874-2.327l10.963-51.587a2.937 2.937 0 00-2.874-3.548h-28.951a2.939 2.939 0 01-2.874-3.548v-.003z" fill="currentColor"/></svg>