<?xml version="1.0" encoding="utf-8"?><svg width="23" height="21" fill="none" xmlns="http://www.w3.org/2000/svg" viewBox="0 0 23 21"><path d="M19.5 6.5a.968.968 0 01-.712-.287.967.967 0 01-.288-.713v-1h-1a.968.968 0 01-.712-.287.967.967 0 01-.288-.713c0-.283.096-.52.288-.712A.968.968 0 0117.5 2.5h1v-1c0-.283.096-.52.288-.713A.968.968 0 0119.5.5c.283 0 .52.096.712.287.192.192.288.43.288.713v1h1c.283 0 .52.096.712.288.192.191.288.429.288.712s-.096.52-.288.713a.968.968 0 01-.712.287h-1v1c0 .283-.096.52-.288.713a.968.968 0 01-.712.287zm-9 10.5c1.25 0 2.313-.438 3.188-1.313C14.562 14.813 15 13.75 15 12.5c0-1.25-.438-2.313-1.313-3.188C12.813 8.438 11.75 8 10.5 8c-1.25 0-2.313.438-3.188 1.313C6.438 10.187 6 11.25 6 12.5c0 1.25.438 2.313 1.313 3.188C8.188 16.561 9.25 17 10.5 17zm0-2c-.7 0-1.292-.242-1.775-.725C8.242 13.792 8 13.2 8 12.5s.242-1.292.725-1.775C9.208 10.242 9.8 10 10.5 10s1.292.242 1.775.725c.483.483.725 1.075.725 1.775s-.242 1.292-.725 1.775c-.483.483-1.075.725-1.775.725zm-8 5.5c-.55 0-1.02-.196-1.413-.587A1.926 1.926 0 01.5 18.5v-12c0-.55.196-1.02.587-1.412A1.926 1.926 0 012.5 4.5h3.15L6.9 3.15c.183-.2.404-.358.662-.475.259-.117.53-.175.813-.175H13.5c.283 0 .52.096.713.288.191.191.287.429.287.712V5c0 .417.146.77.438 1.063.291.291.645.437 1.062.437h.5V7c0 .417.146.77.438 1.063.291.291.645.437 1.062.437h1.5c.283 0 .52.096.712.287.192.192.288.43.288.713v9c0 .55-.196 1.02-.587 1.413a1.926 1.926 0 01-1.413.587h-16z" fill="currentColor"/></svg>