<?xml version="1.0" encoding="utf-8"?><svg width="19" height="20" fill="none" xmlns="http://www.w3.org/2000/svg" viewBox="0 0 19 20"><path d="M8.143 11.357H1.357c-.384 0-.707-.13-.967-.39S0 10.384 0 10c0-.385.13-.707.39-.967s.583-.39.967-.39h6.786V1.857c0-.384.13-.707.39-.967S9.115.5 9.5.5s.707.13.967.39.39.583.39.967v6.786h6.786c.384 0 .707.13.967.39s.39.582.39.967c0 .384-.13.707-.39.967s-.583.39-.967.39h-6.786v6.786c0 .384-.13.707-.39.967s-.582.39-.967.39-.707-.13-.967-.39-.39-.583-.39-.967v-6.786z" fill="currentColor"/></svg>