<?xml version="1.0" encoding="utf-8"?><svg width="133" height="225" fill="none" xmlns="http://www.w3.org/2000/svg" viewBox="0 0 133 225"><g clip-path="url(#bqclip0_1253_12113)"><path fill-rule="evenodd" clip-rule="evenodd" d="M19.957 157.366h31.518c2.444 0 4.553-1.728 5.059-4.14L71.763 80.88c.506-2.412 2.615-4.14 5.058-4.14h32.073c2.427 0 4.531-1.706 5.053-4.102L129.703.222c.522-2.396 2.621-4.102 5.053-4.102h186.58c3.288 0 5.747 3.064 5.058 6.313l-4.359 20.694c-.683 3.25 1.765 6.308 5.053 6.313l161.746.25c3.282.006 5.731 3.065 5.053 6.308L447.032 258.74c-.506 2.412-2.616 4.14-5.059 4.14H277.968c-3.288 0-5.742-3.059-5.058-6.308l2.583-12.273c.683-3.249-1.771-6.308-5.059-6.308H84.995c-3.288 0-5.741-3.058-5.058-6.307l14.314-68c.684-3.249-1.77-6.307-5.058-6.307H59.854c-2.438 0-4.553 1.727-5.058 4.14l-15.224 72.345c-.506 2.413-2.62 4.14-5.058 4.14H5.174c-3.292 0-5.746-3.064-5.058-6.313l14.777-70.172c.512-2.413 2.621-4.14 5.059-4.14h.005v-.011z" fill="currentColor"/></g><defs><clipPath id="bqclip0_1253_12113"><path fill="#fff" transform="translate(0 -2)" d="M0 0h494v264H0z"/></clipPath></defs></svg>