<?xml version="1.0" encoding="utf-8"?><svg width="20" height="20" fill="none" xmlns="http://www.w3.org/2000/svg" viewBox="0 0 20 20"><path d="M1.723 3.833C2.39.95 6.732.95 7.39 3.833c.392 1.692-.683 3.125-1.617 4.017a1.78 1.78 0 01-2.441 0c-.925-.892-2-2.325-1.609-4.017zM12.56 13.833c.666-2.883 5.033-2.883 5.7 0 .391 1.692-.684 3.125-1.626 4.017a1.791 1.791 0 01-2.45 0c-.941-.892-2.016-2.325-1.625-4.017z" stroke="currentColor" stroke-width="1.25"/><path d="M10 4.167h2.233c1.541 0 2.258 1.908 1.1 2.925l-6.659 5.825c-1.158 1.008-.441 2.916 1.092 2.916H10M4.573 4.583h.01M15.405 14.583h.01" stroke="currentColor" stroke-width="1.25" stroke-linecap="round" stroke-linejoin="round"/></svg>