<?xml version="1.0" encoding="utf-8"?><svg width="76" height="124" fill="none" xmlns="http://www.w3.org/2000/svg" viewBox="0 0 76 124"><g clip-path="url(#bvclip0_514_15673)"><path fill-rule="evenodd" clip-rule="evenodd" d="M73.285 82.835h-14.27c-1.725 0-3.014-1.575-2.656-3.246l7.504-34.984c.358-1.67-.928-3.246-2.656-3.246H46.982c-1.728 0-3.014-1.575-2.656-3.245l7.51-34.982c.358-1.67-.928-3.245-2.656-3.245h-98.444a2.709 2.709 0 00-2.656 2.13l-2.764 12.88a2.71 2.71 0 01-2.653 2.13l-87.344.132c-1.28 0-2.385.887-2.653 2.13l-24.606 114.579c-.358 1.67.928 3.245 2.656 3.245h86.201a2.709 2.709 0 002.659-2.139l1.793-8.525a2.71 2.71 0 012.66-2.139h99.576a2.708 2.708 0 002.656-2.129l7.999-37.22a2.71 2.71 0 012.656-2.13h15.396c1.728 0 3.014 1.576 2.656 3.246l-7.52 34.988c-.358 1.67.925 3.242 2.65 3.245l15.683.031a2.708 2.708 0 002.665-2.148l7.498-36.137c.345-1.668-.94-3.227-2.66-3.227v.006z" fill="currentColor"/></g><defs><clipPath id="bvclip0_514_15673"><path fill="#fff" transform="translate(-172)" d="M0 0h248v137H0z"/></clipPath></defs></svg>