<?xml version="1.0" encoding="utf-8"?><svg width="90" height="124" fill="none" xmlns="http://www.w3.org/2000/svg" viewBox="0 0 90 124"><g clip-path="url(#bpclip0_514_15674)"><path fill-rule="evenodd" clip-rule="evenodd" d="M10.221 82.771h16.142a2.655 2.655 0 002.59-2.12l7.8-37.051a2.655 2.655 0 012.59-2.12H55.77c1.243 0 2.321-.874 2.588-2.101l8.07-37.088A2.654 2.654 0 0169.015.19h95.556c1.684 0 2.943 1.57 2.59 3.233l-2.232 10.599c-.35 1.664.904 3.23 2.588 3.233l82.837.128c1.681.003 2.935 1.57 2.588 3.23L228.945 134.69a2.654 2.654 0 01-2.59 2.12H142.36c-1.684 0-2.94-1.567-2.59-3.231l1.322-6.285c.35-1.664-.906-3.231-2.59-3.231H43.53c-1.684 0-2.94-1.566-2.59-3.23l7.33-34.826c.35-1.664-.906-3.23-2.59-3.23H30.654a2.657 2.657 0 00-2.59 2.12l-7.797 37.052a2.657 2.657 0 01-2.591 2.12H2.65c-1.686 0-2.943-1.569-2.59-3.233l7.568-35.939a2.66 2.66 0 012.59-2.12h.003v-.006z" fill="currentColor"/></g><defs><clipPath id="bpclip0_514_15674"><path fill="#fff" d="M0 0h253v137H0z"/></clipPath></defs></svg>