<?xml version="1.0" encoding="utf-8"?><svg width="28" height="28" fill="none" xmlns="http://www.w3.org/2000/svg" viewBox="0 0 28 28"><path d="M11.685 23.37c-3.266 0-6.03-1.13-8.292-3.393C1.131 17.715 0 14.951 0 11.685s1.131-6.03 3.393-8.292C5.655 1.131 8.42 0 11.685 0s6.03 1.131 8.292 3.393c2.263 2.262 3.394 5.026 3.394 8.292 0 1.319-.21 2.562-.63 3.73a10.713 10.713 0 01-1.707 3.102l6.472 6.472c.33.33.494.749.494 1.258 0 .51-.165.929-.494 1.259-.33.33-.75.494-1.259.494-.51 0-.929-.165-1.258-.494l-6.472-6.472a10.713 10.713 0 01-3.101 1.708 10.96 10.96 0 01-3.73.629zm0-3.595c2.248 0 4.158-.786 5.73-2.36 1.574-1.572 2.36-3.482 2.36-5.73 0-2.247-.786-4.157-2.36-5.73-1.572-1.573-3.482-2.36-5.73-2.36-2.247 0-4.157.787-5.73 2.36-1.573 1.573-2.36 3.483-2.36 5.73 0 2.248.787 4.158 2.36 5.73 1.573 1.574 3.483 2.36 5.73 2.36z" fill="currentColor"/></svg>