<?xml version="1.0" encoding="utf-8"?><svg width="18" height="18" fill="none" xmlns="http://www.w3.org/2000/svg" viewBox="0 0 18 18"><path d="M7.89 18a1.61 1.61 0 01-1.1-.405c-.307-.27-.492-.6-.555-.99l-.213-1.485a3.666 3.666 0 01-.579-.27 7.833 7.833 0 01-.532-.338l-1.465.585c-.394.165-.788.18-1.182.046a1.726 1.726 0 01-.922-.72l-1.11-1.845a1.37 1.37 0 01-.19-1.103 1.7 1.7 0 01.639-.967l1.252-.9a2.047 2.047 0 01-.023-.304v-.608c0-.097.008-.198.023-.303l-1.252-.9a1.7 1.7 0 01-.638-.968 1.37 1.37 0 01.189-1.103l1.11-1.844c.221-.345.528-.585.922-.72s.788-.12 1.182.044l1.465.585c.174-.12.355-.232.544-.337a4.86 4.86 0 01.567-.27l.213-1.485c.063-.39.248-.72.555-.99A1.61 1.61 0 017.89 0h2.22c.426 0 .793.135 1.1.405.307.27.492.6.555.99l.213 1.485c.205.075.398.165.579.27.181.105.358.218.532.337l1.465-.585c.394-.165.788-.18 1.182-.045.394.135.701.375.922.72l1.11 1.846c.221.345.284.712.19 1.102a1.7 1.7 0 01-.639.967l-1.252.9c.015.106.023.207.023.304v.608c0 .097-.015.198-.047.303l1.253.9c.33.255.543.578.638.968.094.39.031.758-.19 1.103l-1.134 1.845c-.22.345-.527.585-.921.72-.394.134-.788.12-1.182-.046l-1.418-.585a6.51 6.51 0 01-.544.338c-.189.105-.378.195-.567.27l-.213 1.485c-.063.39-.248.72-.555.99a1.61 1.61 0 01-1.1.405H7.89zm1.157-5.85c.914 0 1.694-.308 2.34-.923.646-.614.97-1.357.97-2.227 0-.87-.324-1.612-.97-2.228-.646-.615-1.426-.922-2.34-.922-.93 0-1.713.308-2.351.923-.638.615-.958 1.357-.958 2.227 0 .87.32 1.613.958 2.227.638.615 1.422.923 2.351.923z" fill="currentColor"/></svg>