<?xml version="1.0" encoding="utf-8"?><svg width="18" height="12" fill="none" xmlns="http://www.w3.org/2000/svg" viewBox="0 0 18 12"><path d="M1 0a.968.968 0 00-.713.287A.968.968 0 000 1c0 .283.096.52.287.712C.48 1.904.718 2 1 2h4c.283 0 .52-.096.713-.288A.968.968 0 006 1a.968.968 0 00-.287-.713A.968.968 0 005 0H1zm0 5a.968.968 0 00-.713.287A.968.968 0 000 6c0 .283.096.52.287.713C.48 6.904.718 7 1 7h10c.283 0 .52-.096.713-.287A.967.967 0 0012 6a.967.967 0 00-.287-.713A.968.968 0 0011 5H1zm0 5a.967.967 0 00-.713.287A.968.968 0 000 11c0 .283.096.52.287.713.192.191.43.287.713.287h16c.283 0 .52-.096.712-.287A.968.968 0 0018 11a.968.968 0 00-.288-.713A.968.968 0 0017 10H1z" fill="currentColor"/></svg>