<?xml version="1.0" encoding="utf-8"?><svg width="19" height="18" fill="none" xmlns="http://www.w3.org/2000/svg" viewBox="0 0 19 18"><path fill-rule="evenodd" clip-rule="evenodd" d="M2.585 8.512c4.349-1.906 7.248-3.162 8.7-3.768C15.426 3.01 16.287 2.71 16.848 2.7c.123-.002.399.029.578.174.15.124.192.29.212.407.02.116.045.382.025.59-.225 2.372-1.196 8.128-1.69 10.784-.21 1.125-.62 1.501-1.02 1.538-.866.08-1.524-.575-2.363-1.128-1.313-.866-2.054-1.405-3.329-2.249-1.472-.976-.518-1.512.322-2.389.22-.23 4.036-3.72 4.11-4.037.01-.04.018-.187-.07-.265-.087-.078-.215-.052-.308-.03-.132.03-2.23 1.424-6.292 4.182-.596.41-1.135.611-1.618.6-.533-.011-1.557-.302-2.319-.551-.934-.306-1.677-.467-1.612-.986.034-.27.404-.546 1.11-.828z" fill="currentColor"/></svg>