<?xml version="1.0" encoding="utf-8"?><svg width="39" height="39" fill="none" xmlns="http://www.w3.org/2000/svg" viewBox="0 0 39 39"><path fill-rule="evenodd" clip-rule="evenodd" d="M5 18.78c9.18-4.023 15.302-6.674 18.365-7.956C32.11 7.168 33.928 6.532 35.112 6.51c.26-.004.843.06 1.22.368.319.26.407.612.449.858.041.246.094.808.052 1.247-.474 5.007-2.524 17.158-3.568 22.766-.441 2.373-1.31 3.17-2.152 3.247-1.829.17-3.217-1.215-4.988-2.383-2.772-1.827-4.338-2.964-7.028-4.747-3.11-2.06-1.094-3.193.678-5.043.464-.485 8.521-7.854 8.677-8.523.02-.084.038-.395-.146-.56-.184-.164-.456-.108-.652-.063-.278.063-4.706 3.006-13.284 8.828-1.257.868-2.395 1.29-3.415 1.269-1.124-.025-3.287-.64-4.895-1.165-1.972-.645-3.54-.986-3.403-2.08.07-.57.852-1.154 2.343-1.75z" fill="#3390EC"/></svg>