<?xml version="1.0" encoding="utf-8"?><svg width="16" height="16" fill="none" xmlns="http://www.w3.org/2000/svg" viewBox="0 0 16 16"><path d="M7.96 12.8c.28 0 .517-.097.71-.29a.966.966 0 00.29-.71.966.966 0 00-.29-.71.966.966 0 00-.71-.29.966.966 0 00-.71.29.966.966 0 00-.29.71c0 .28.097.517.29.71.193.193.43.29.71.29zM8 16a7.79 7.79 0 01-3.12-.63 8.079 8.079 0 01-2.54-1.71 8.08 8.08 0 01-1.71-2.54A7.79 7.79 0 010 8c0-1.107.21-2.147.63-3.12.42-.973.99-1.82 1.71-2.54A8.079 8.079 0 014.88.63 7.79 7.79 0 018 0a7.79 7.79 0 013.12.63c.973.42 1.82.99 2.54 1.71s1.29 1.567 1.71 2.54c.42.973.63 2.013.63 3.12a7.79 7.79 0 01-.63 3.12 8.08 8.08 0 01-1.71 2.54 8.08 8.08 0 01-2.54 1.71A7.79 7.79 0 018 16zm.08-11.44c.333 0 .623.107.87.32.247.213.37.48.37.8 0 .293-.09.553-.27.78-.18.227-.383.44-.61.64a5.31 5.31 0 00-.81.88c-.233.32-.35.68-.35 1.08 0 .187.07.343.21.47.14.127.303.19.49.19.2 0 .37-.067.51-.2s.23-.3.27-.5c.053-.28.173-.53.36-.75.187-.22.387-.43.6-.63.307-.293.57-.613.79-.96.22-.347.33-.733.33-1.16 0-.68-.277-1.237-.83-1.67a3.04 3.04 0 00-1.93-.65c-.507 0-.99.107-1.45.32-.46.213-.81.54-1.05.98a.721.721 0 00-.09.51c.033.18.123.317.27.41a.796.796 0 001.08-.24c.147-.2.33-.353.55-.46.22-.107.45-.16.69-.16z" fill="currentColor"/></svg>