<?xml version="1.0" encoding="utf-8"?><svg width="17" height="16" fill="none" xmlns="http://www.w3.org/2000/svg" viewBox="0 0 17 16"><path d="M2.5 15.787c-.55 0-1.02-.195-1.413-.587A1.926 1.926 0 01.5 13.788v-2c0-.284.096-.521.287-.713a.968.968 0 01.713-.287c.283 0 .52.095.712.287.192.192.288.43.288.713v2h12v-2c0-.284.096-.521.287-.713a.968.968 0 01.713-.287c.283 0 .52.095.712.287.192.192.288.43.288.713v2c0 .55-.196 1.02-.588 1.412a1.926 1.926 0 01-1.412.588h-12zm5-12.15L5.625 5.514a.93.93 0 01-.713.287 1.02 1.02 0 01-.712-.312c-.183-.2-.28-.434-.288-.7a.916.916 0 01.288-.7l3.6-3.6c.1-.1.208-.171.325-.213.117-.042.242-.062.375-.062s.258.02.375.062A.877.877 0 019.2.488l3.6 3.6c.2.2.296.433.287.7a1.02 1.02 0 01-1 1.013.93.93 0 01-.712-.288L9.5 3.638v7.15c0 .283-.096.52-.287.712a.967.967 0 01-.713.287.967.967 0 01-.713-.287.967.967 0 01-.287-.713v-7.15z" fill="currentColor"/></svg>