<?xml version="1.0" encoding="utf-8"?><svg width="18" height="23" fill="none" xmlns="http://www.w3.org/2000/svg" viewBox="0 0 18 23"><path d="M7.875 14.943v3.493c0 .311.108.573.323.784.216.21.483.316.802.316.319 0 .586-.106.802-.316.215-.211.323-.473.323-.784v-3.493l1.012.99c.113.11.24.193.38.248.14.055.281.078.422.069.14-.01.277-.042.408-.097a1.17 1.17 0 00.366-.247c.206-.22.314-.477.323-.77a.996.996 0 00-.323-.77l-2.925-2.86a.99.99 0 00-.366-.234A1.272 1.272 0 009 11.203c-.15 0-.29.023-.422.07a.99.99 0 00-.365.233l-2.925 2.86a.996.996 0 00-.324.77c.01.293.127.55.352.77a1.2 1.2 0 00.787.316c.3.01.563-.096.788-.316l.984-.963zM2.25 22.836a2.191 2.191 0 01-1.59-.646c-.44-.431-.66-.95-.66-1.554v-17.6c0-.605.22-1.123.66-1.554.442-.43.971-.646 1.59-.646h8.072c.3 0 .586.055.858.165.272.11.51.266.717.467l5.456 5.335A2.132 2.132 0 0118 8.343v12.293c0 .605-.22 1.123-.66 1.554-.442.43-.971.646-1.59.646H2.25zm7.875-15.4c0 .312.108.573.323.784.216.21.483.316.802.316h4.5l-5.625-5.5v4.4z" fill="currentColor"/></svg>