<?xml version="1.0" encoding="utf-8"?><svg width="14" height="16" fill="none" xmlns="http://www.w3.org/2000/svg" viewBox="0 0 14 16"><path d="M2.625 16c-.481 0-.893-.174-1.236-.522a1.726 1.726 0 01-.514-1.256V2.667A.867.867 0 010 1.778a.867.867 0 01.875-.89h3.5A.867.867 0 015.25 0h3.5a.867.867 0 01.875.889h3.5a.867.867 0 01.875.889.867.867 0 01-.875.889v11.555c0 .49-.171.908-.514 1.256a1.672 1.672 0 01-1.236.522h-8.75zM7 9.689l1.662 1.689c.16.163.365.244.613.244a.823.823 0 00.612-.244.85.85 0 00.241-.622.85.85 0 00-.24-.623L8.224 8.444l1.662-1.688a.85.85 0 00.241-.623.85.85 0 00-.24-.622.823.823 0 00-.613-.244.823.823 0 00-.613.244L7 7.2 5.338 5.511a.823.823 0 00-.613-.244.823.823 0 00-.612.244.85.85 0 00-.241.622c0 .252.08.46.24.623l1.663 1.688-1.663 1.69a.85.85 0 00-.24.622c0 .251.08.459.24.622.16.163.365.244.613.244a.823.823 0 00.613-.244L7 9.688z" fill="currentColor"/></svg>