<?xml version="1.0" encoding="utf-8"?><svg width="39" height="39" fill="none" xmlns="http://www.w3.org/2000/svg" viewBox="0 0 39 39"><mask id="bxa" style="mask-type:luminance" maskUnits="userSpaceOnUse" x="2" y="2" width="35" height="35"><path d="M2.398 2.71h34.2v34.2h-34.2V2.71z" fill="#fff"/></mask><g mask="url(#bxa)"><path d="M2.398 15.207C2.398 4.92 4.608 2.71 14.896 2.71H24.1c10.289 0 12.497 2.209 12.497 12.497v9.206c0 10.288-2.208 12.497-12.497 12.497h-9.205c-10.289 0-12.498-2.209-12.498-12.497v-9.206z" fill="#07F"/><path d="M20.78 36.91h3.248c10.118 0 12.455-2.109 12.569-11.799V14.452C36.483 4.805 34.117 2.71 24.028 2.71H20.78C10.434 2.71 8.211 4.92 8.211 15.207v9.206c0 10.288 2.223 12.497 12.568 12.497z" fill="#FF2B42"/><path d="M26.523 16.846c1.739.998 2.593 1.496 2.893 2.152.256.57.256 1.225 0 1.781-.285.656-1.154 1.154-2.893 2.152l-4.731 2.736c-1.724.997-2.594 1.496-3.306 1.425a2.195 2.195 0 01-1.539-.898c-.427-.57-.427-1.567-.427-3.562V17.16c0-1.995 0-2.993.427-3.563a2.195 2.195 0 011.539-.912c.712-.085 1.567.428 3.306 1.425l4.731 2.722v.014z" fill="#fff"/></g></svg>