<?xml version="1.0" encoding="utf-8"?><svg width="19" height="18" fill="none" xmlns="http://www.w3.org/2000/svg" viewBox="0 0 19 18"><path d="M9.571.9a8.1 8.1 0 110 16.2 8.06 8.06 0 01-4.074-1.098L1.474 17.1l1.096-4.024A8.1 8.1 0 019.572.9zm-2.76 4.293l-.162.006a.81.81 0 00-.302.082c-.087.05-.168.112-.238.184-.097.092-.152.171-.211.248-.3.39-.461.868-.459 1.36.002.396.106.782.268 1.144.331.73.876 1.504 1.595 2.22.174.173.344.347.527.508a7.654 7.654 0 003.11 1.657l.46.07c.15.009.3-.003.45-.01a1.62 1.62 0 00.675-.187c.106-.055.21-.114.31-.178l.102-.073c.11-.081.177-.139.267-.233a.94.94 0 00.17-.245c.064-.132.127-.384.153-.594.02-.16.013-.248.011-.302-.003-.087-.075-.176-.154-.215l-.471-.211s-.705-.307-1.136-.503a.405.405 0 00-.143-.033.389.389 0 00-.306.103c-.004-.002-.058.044-.644.754a.283.283 0 01-.298.105 1.15 1.15 0 01-.155-.053l-.204-.088a4.861 4.861 0 01-1.275-.812c-.102-.09-.197-.187-.294-.28a5.103 5.103 0 01-.827-1.028l-.047-.077a.81.81 0 01-.083-.166.26.26 0 01.05-.214s.196-.216.288-.332a3.46 3.46 0 00.213-.303c.095-.153.125-.311.075-.434a66.253 66.253 0 00-.703-1.653c-.048-.108-.19-.186-.318-.202a2.43 2.43 0 00-.458-.01l.164-.005z" fill="currentColor"/></svg>