<?xml version="1.0" encoding="utf-8"?><svg width="19" height="18" fill="none" xmlns="http://www.w3.org/2000/svg" viewBox="0 0 19 18"><path d="M7.771 11.7L12.442 9l-4.67-2.7v5.4zm10.404-7.047c.117.423.198.99.252 1.71.063.72.09 1.34.09 1.88l.054.757c0 1.971-.144 3.42-.396 4.347-.225.81-.747 1.332-1.557 1.557-.423.117-1.197.198-2.385.252-1.17.063-2.24.09-3.23.09L9.57 15.3c-3.77 0-6.12-.144-7.047-.396-.81-.225-1.332-.747-1.557-1.557-.117-.423-.198-.99-.252-1.71-.063-.72-.09-1.341-.09-1.881L.571 9c0-1.971.144-3.42.396-4.347.225-.81.747-1.332 1.557-1.557.423-.117 1.197-.198 2.385-.252 1.17-.063 2.241-.09 3.231-.09L9.571 2.7c3.771 0 6.12.144 7.047.396.81.225 1.332.747 1.557 1.557z" fill="currentColor"/></svg>