<?xml version="1.0" encoding="utf-8"?><svg viewBox="0 0 140 225" xmlns="http://www.w3.org/2000/svg" xmlns:xlink="http://www.w3.org/1999/xlink"><style>:root>svg{display:none}:root>svg:target{display:block}</style><svg fill="none" viewBox="0 0 24 19" id="advantage" xmlns="http://www.w3.org/2000/svg"><rect x="5.763" y=".405" width="18" height="18" rx="2" fill="#EDF0F6"/><path d="M.766 17.015L2.823.888a.554.554 0 01.551-.483h4.793c.215 0 .378.192.342.402L7.485 6.863c-.053.318.32.53.567.321L15.666.75c.264-.223.598-.345.944-.345h6.805c.335 0 .476.426.205.624L1.315 17.337a.347.347 0 01-.55-.322z" fill="#FC00FF"/></svg><svg fill="none" viewBox="0 0 10 10" id="arrow_angle_down" xmlns="http://www.w3.org/2000/svg"><path d="M1 3.25l4 4 4-4" stroke="currentColor" stroke-width="1.25" stroke-linecap="round" stroke-linejoin="round"/></svg><svg fill="none" viewBox="0 0 10 11" id="arrow_angle_right" xmlns="http://www.w3.org/2000/svg"><path d="M3.25 9.5l4-4-4-4" stroke="currentColor" stroke-width="1.5" stroke-linecap="round" stroke-linejoin="round"/></svg><svg fill="none" viewBox="0 0 24 25" id="arrow_classic" xmlns="http://www.w3.org/2000/svg"><path d="M14.43 6.398l6.07 6.07-6.07 6.07M3.5 12.467h16.83" stroke="currentColor" stroke-width="1.5" stroke-miterlimit="10" stroke-linecap="round" stroke-linejoin="round"/></svg><svg fill="none" viewBox="0 0 21 21" id="arrow_slider_left" xmlns="http://www.w3.org/2000/svg"><path d="M14 2.5l-8 8 8 8" stroke="currentColor" stroke-width="1.5" stroke-linecap="round" stroke-linejoin="round"/></svg><svg fill="none" viewBox="0 0 21 21" id="arrow_slider_right" xmlns="http://www.w3.org/2000/svg"><path d="M7 18.5l8-8-8-8" stroke="currentColor" stroke-width="1.5" stroke-linecap="round" stroke-linejoin="round"/></svg><svg fill="none" viewBox="0 0 40 40" id="arrow_spoiler" xmlns="http://www.w3.org/2000/svg"><path d="M9.6 15.45L20 25.85l10.4-10.4" stroke="currentColor" stroke-width="2" stroke-linecap="round" stroke-linejoin="round"/></svg><svg fill="none" viewBox="0 0 32 32" id="briefcase" xmlns="http://www.w3.org/2000/svg"><path d="M10.668 29.333h10.666c5.36 0 6.32-2.146 6.6-4.76l1-10.666C29.294 10.653 28.361 8 22.668 8H9.334c-5.693 0-6.626 2.653-6.266 5.907l1 10.666c.28 2.614 1.24 4.76 6.6 4.76zM10.668 8V6.933c0-2.36 0-4.266 4.267-4.266h2.133c4.267 0 4.267 1.906 4.267 4.266V8" stroke="currentColor" stroke-width="1.5" stroke-miterlimit="10" stroke-linecap="round" stroke-linejoin="round"/><path d="M18.665 17.333v1.36c0 1.454-.013 2.64-2.666 2.64-2.64 0-2.667-1.173-2.667-2.626v-1.374c0-1.333 0-1.333 1.333-1.333h2.667c1.333 0 1.333 0 1.333 1.333zM28.868 14.667a21.979 21.979 0 01-10.2 4.026M3.492 15.027c3 2.053 6.387 3.293 9.84 3.68" stroke="currentColor" stroke-width="1.5" stroke-miterlimit="10" stroke-linecap="round" stroke-linejoin="round"/></svg><svg fill="none" viewBox="0 0 24 24" id="burger" xmlns="http://www.w3.org/2000/svg"><path d="M3 6.001h18m-18 6h18m-18 6h18" stroke="currentColor" stroke-width="2" stroke-linecap="round" stroke-linejoin="round"/></svg><svg fill="none" viewBox="0 0 18 19" id="burger_chevron" xmlns="http://www.w3.org/2000/svg"><path d="M1.9 6.175l7.6 7.6 7.6-7.6" stroke="currentColor" stroke-width="1.25" stroke-linecap="round" stroke-linejoin="round"/></svg><svg fill="none" viewBox="0 0 20 20" id="burger_close" xmlns="http://www.w3.org/2000/svg"><path d="M4.693 14.69L15.3 4.083M4.7 4.083L15.305 14.69" stroke="currentColor" stroke-width="1.25" stroke-linecap="round"/></svg><svg fill="none" viewBox="0 0 42 44" id="cb_icon_layout" xmlns="http://www.w3.org/2000/svg"><path fill-rule="evenodd" clip-rule="evenodd" d="M41.138 21.216h-4.984c-.548 0-.958-.494-.843-1.018l4.06-18.68C39.485.994 39.077.5 38.53.5H4.999a.857.857 0 00-.843.667L.02 20.198c-.114.524.295 1.018.843 1.018h4.823c.548 0 .956.494.842 1.019L2.102 42.48c-.115.525.295 1.019.843 1.019H36.66a.857.857 0 00.843-.668l4.478-20.598a.849.849 0 00-.843-1.018z" fill="#fff" fill-opacity=".7"/></svg><svg fill="none" viewBox="0 0 20 20" id="check" xmlns="http://www.w3.org/2000/svg"><path d="M4 9l4.5 4.5L16 6" stroke="currentColor" stroke-width="1.5" stroke-linecap="round" stroke-linejoin="round"/></svg><svg fill="none" viewBox="0 0 24 24" id="check_circle" xmlns="http://www.w3.org/2000/svg"><path d="M12 22c5.5 0 10-4.5 10-10S17.5 2 12 2 2 6.5 2 12s4.5 10 10 10z" stroke="currentColor" stroke-width="1.5" stroke-linecap="round" stroke-linejoin="round"/><path d="M7.75 12l2.83 2.83 5.67-5.66" stroke="currentColor" stroke-width="1.5" stroke-linecap="round" stroke-linejoin="round"/></svg><svg fill="none" viewBox="0 0 14 18" id="check_tag" xmlns="http://www.w3.org/2000/svg"><path d="M5.95 8.686l-.725-.725a1.003 1.003 0 00-.7-.275c-.267 0-.5.1-.7.3-.2.2-.3.433-.3.7 0 .266.1.5.3.7l1.4 1.425c.2.2.438.3.713.3.275 0 .512-.1.712-.3l3.525-3.55c.2-.2.3-.434.3-.7 0-.267-.1-.5-.3-.7a.96.96 0 00-.7-.3c-.267 0-.5.1-.7.3L5.95 8.686zM7 15.51l-4.2 1.8c-.667.283-1.3.229-1.9-.163-.6-.391-.9-.946-.9-1.662V2.51c0-.55.196-1.021.588-1.413A1.926 1.926 0 012 .511h10c.55 0 1.02.196 1.412.587.392.392.588.863.588 1.413v12.975c0 .716-.3 1.27-.9 1.662-.6.392-1.233.446-1.9.163L7 15.51z" fill="currentColor"/></svg><svg fill="none" viewBox="0 0 24 24" id="close" xmlns="http://www.w3.org/2000/svg"><path fill-rule="evenodd" clip-rule="evenodd" d="M12 13.414l5.657 5.657a1 1 0 001.414-1.414L13.414 12l5.657-5.657a1 1 0 00-1.414-1.414L12 10.586 6.343 4.93A1 1 0 004.93 6.343L10.586 12l-5.657 5.657a1 1 0 101.414 1.414L12 13.414z" fill="currentColor"/></svg><svg fill="none" viewBox="0 0 13 13" id="close_p0" xmlns="http://www.w3.org/2000/svg"><path d="M0 0l12 12M12 0L0 12" stroke="currentColor" stroke-width="1.5"/></svg><svg fill="none" viewBox="0 0 24 24" id="color" xmlns="http://www.w3.org/2000/svg"><path d="M10 4.5V18c0 1.08-.44 2.07-1.14 2.79l-.04.04c-.09.09-.19.18-.28.25-.3.26-.64.46-.99.6-.11.05-.22.09-.33.13-.39.13-.81.19-1.22.19-.27 0-.54-.03-.8-.08-.13-.03-.26-.06-.39-.1-.16-.05-.31-.1-.46-.17 0-.01 0-.01-.01 0-.28-.14-.55-.3-.8-.49l-.01-.01c-.13-.1-.25-.2-.36-.32-.11-.12-.22-.24-.33-.37-.19-.25-.35-.52-.49-.8.01-.01.01-.01 0-.01 0 0 0-.01-.01-.02-.06-.14-.11-.29-.16-.44a5.58 5.58 0 01-.1-.39c-.05-.26-.08-.53-.08-.8V4.5C2 3 3 2 4.5 2h3C9 2 10 3 10 4.5z" stroke="currentColor" stroke-width="1.5" stroke-linecap="round" stroke-linejoin="round"/><path d="M22 16.5v3c0 1.5-1 2.5-2.5 2.5H6c.41 0 .83-.06 1.22-.19.11-.04.22-.08.33-.13.35-.14.69-.34.99-.6.09-.07.19-.16.28-.25l.04-.04 6.8-6.79h3.84c1.5 0 2.5 1 2.5 2.5zM4.81 21.82c-.6-.18-1.17-.51-1.64-.99-.48-.47-.81-1.04-.99-1.64a4.02 4.02 0 002.63 2.63z" stroke="currentColor" stroke-width="1.5" stroke-linecap="round" stroke-linejoin="round"/><path d="M18.37 11.29L15.66 14l-6.8 6.79C9.56 20.07 10 19.08 10 18V8.34l2.71-2.71c1.06-1.06 2.48-1.06 3.54 0l2.12 2.12c1.06 1.06 1.06 2.48 0 3.54zM6 19a1 1 0 100-2 1 1 0 000 2z" stroke="currentColor" stroke-width="1.5" stroke-linecap="round" stroke-linejoin="round"/></svg><svg fill="none" viewBox="0 0 26 25" id="compare" xmlns="http://www.w3.org/2000/svg"><path d="M15.227 19.5a3 3 0 003 3h.417a3 3 0 003-3v-6.727a3 3 0 00-3-3h-.417a3 3 0 00-3 3V19.5zM4.144 19.5a3 3 0 003 3h.416a3 3 0 003-3v-14a3 3 0 00-3-3h-.416a3 3 0 00-3 3v14z" stroke="currentColor" stroke-width="2" stroke-linecap="round" stroke-linejoin="round"/></svg><svg fill="none" viewBox="0 0 24 24" id="description" xmlns="http://www.w3.org/2000/svg"><path d="M12.37 8.88h5.25M6.38 8.88l.75.75 2.25-2.25M12.37 15.88h5.25M6.38 15.88l.75.75 2.25-2.25" stroke="currentColor" stroke-width="1.5" stroke-linecap="round" stroke-linejoin="round"/><path d="M9 22h6c5 0 7-2 7-7V9c0-5-2-7-7-7H9C4 2 2 4 2 9v6c0 5 2 7 7 7z" stroke="currentColor" stroke-width="1.5" stroke-linecap="round" stroke-linejoin="round"/></svg><svg fill="none" viewBox="0 0 19 18" id="dzen" xmlns="http://www.w3.org/2000/svg"><path d="M9.814.896c.04 3.284.267 5.13 1.498 6.359 1.231 1.231 3.077 1.454 6.36 1.498-.129-4.283-3.577-7.732-7.858-7.857zM7.834 7.255C9.065 6.026 9.288 4.18 9.328.896a8.1 8.1 0 00-7.854 7.857c3.283-.04 5.128-.267 6.36-1.498zM1.475 9.24a8.1 8.1 0 007.853 7.856c-.04-3.284-.266-5.13-1.498-6.358C6.6 9.506 4.754 9.283 1.471 9.239h.004zM17.668 9.24c-3.283.04-5.128.266-6.36 1.498-1.23 1.232-1.453 3.078-1.497 6.358a8.1 8.1 0 007.854-7.857h.003z" fill="currentColor"/></svg><svg fill="none" viewBox="0 0 41 41" id="email_c" xmlns="http://www.w3.org/2000/svg"><path d="M28.582 34.977H11.915c-5 0-8.333-2.5-8.333-8.334V14.977c0-5.834 3.333-8.334 8.333-8.334h16.667c5 0 8.333 2.5 8.333 8.334v11.666c0 5.834-3.333 8.334-8.333 8.334z" stroke="#2453E1" stroke-width="2.5" stroke-miterlimit="10" stroke-linecap="round" stroke-linejoin="round"/><path d="M28.585 15.81l-5.217 4.167c-1.717 1.366-4.533 1.366-6.25 0l-5.2-4.167" stroke="#2453E1" stroke-width="2.5" stroke-miterlimit="10" stroke-linecap="round" stroke-linejoin="round"/></svg><svg fill="none" viewBox="0 0 32 32" id="employees" xmlns="http://www.w3.org/2000/svg"><path d="M12.211 14.493a2.43 2.43 0 00-.44 0 5.893 5.893 0 01-5.693-5.906c0-3.267 2.64-5.92 5.92-5.92a5.924 5.924 0 015.92 5.92c-.013 3.2-2.533 5.8-5.707 5.906zM21.88 5.333A4.663 4.663 0 0126.547 10c0 2.52-2 4.573-4.493 4.667a1.51 1.51 0 00-.347 0M5.545 19.413c-3.227 2.16-3.227 5.68 0 7.827 3.667 2.453 9.68 2.453 13.347 0 3.226-2.16 3.226-5.68 0-7.827-3.654-2.44-9.667-2.44-13.347 0zM24.453 26.667c.96-.2 1.867-.587 2.614-1.16 2.08-1.56 2.08-4.134 0-5.694-.734-.56-1.627-.933-2.574-1.146" stroke="currentColor" stroke-width="1.5" stroke-linecap="round" stroke-linejoin="round"/></svg><svg fill="none" viewBox="0 0 18 18" id="entry" xmlns="http://www.w3.org/2000/svg"><path d="M2.045 18a1.992 1.992 0 01-1.444-.587C.2 17.02 0 16.55 0 16V2C0 1.45.2.98.6.587 1.002.196 1.484 0 2.046 0h6.137c.29 0 .532.096.729.287.196.192.294.43.294.713s-.098.52-.294.712A1.001 1.001 0 018.18 2H2.046v14h6.137c.29 0 .532.096.729.288.196.191.294.429.294.712s-.098.52-.294.712a1.001 1.001 0 01-.73.288H2.046zm12.452-8H7.16c-.29 0-.533-.096-.729-.287A.957.957 0 016.136 9c0-.283.098-.52.294-.713.196-.191.44-.287.73-.287h7.337L12.58 6.125a.907.907 0 01-.28-.675c0-.267.093-.5.28-.7a.98.98 0 01.716-.313.979.979 0 01.742.288L17.693 8.3a.95.95 0 010 1.4l-3.656 3.575a.963.963 0 01-.729.287 1.054 1.054 0 01-.729-.312.96.96 0 01-.268-.713.966.966 0 01.294-.687L14.497 10z" fill="currentColor"/></svg><svg fill="none" viewBox="0 0 14 19" id="exc" xmlns="http://www.w3.org/2000/svg"><g clip-path="url(#ayclip0_514_15002)"><path fill-rule="evenodd" clip-rule="evenodd" d="M13.328.125h-9.14a.577.577 0 00-.566.461l-2.56 12.289c-.073.358.2.693.566.693h9.238c.274 0 .51-.192.565-.46l2.56-12.29c.073-.358-.297-.693-.663-.693zm-2.886 14.542H1.204a.577.577 0 00-.565.461l-.627 3.054c-.073.358.2.693.565.693h9.238c.274 0 .51-.193.565-.461l.627-3.054a.577.577 0 00-.565-.693z" fill="currentColor"/></g><defs><clipPath id="ayclip0_514_15002"><path fill="#fff" transform="translate(0 .5)" d="M0 0h14v18H0z"/></clipPath></defs></svg><svg fill="none" viewBox="0 0 26 26" id="favorite" xmlns="http://www.w3.org/2000/svg"><path d="M13.682 23.894c-.374.141-.99.141-1.364 0C9.128 22.726 2 17.854 2 9.594 2 5.95 4.739 3 8.116 3 10.118 3 11.889 4.038 13 5.643 14.111 4.038 15.893 3 17.884 3 21.261 3 24 5.95 24 9.595c0 8.258-7.128 13.13-10.318 14.299z" stroke="currentColor" stroke-width="2" stroke-linecap="round" stroke-linejoin="round"/></svg><svg fill="none" viewBox="0 0 21 20" id="filter" xmlns="http://www.w3.org/2000/svg"><path d="M4 7.357h9.333m0 0c0 .625.246 1.225.684 1.667.437.442 1.03.69 1.65.69.618 0 1.212-.248 1.65-.69A2.37 2.37 0 0018 7.357a2.37 2.37 0 00-.683-1.667 2.322 2.322 0 00-1.65-.69c-.62 0-1.213.248-1.65.69a2.37 2.37 0 00-.684 1.667zm-4.666 6.286H18m-9.333 0a2.37 2.37 0 01-.684 1.667 2.322 2.322 0 01-1.65.69 2.322 2.322 0 01-1.65-.69A2.37 2.37 0 014 13.643c0-.625.246-1.225.683-1.667a2.322 2.322 0 011.65-.69c.62 0 1.213.248 1.65.69a2.37 2.37 0 01.684 1.667z" stroke="currentColor" stroke-width="1.412" stroke-linecap="round" stroke-linejoin="round"/></svg><svg fill="none" viewBox="0 0 16 17" id="handset" xmlns="http://www.w3.org/2000/svg"><path fill-rule="evenodd" clip-rule="evenodd" d="M5.448 11.052c2.564 2.564 4.939 2.844 5.636 2.87.843.031 1.703-.657 2.075-1.362-.593-.696-1.366-1.236-2.212-1.821-.5.499-1.115 1.425-1.934 1.093-.466-.187-1.617-.717-2.622-1.723-1.005-1.006-1.535-2.156-1.724-2.621-.332-.821.597-1.438 1.097-1.937-.586-.86-1.116-1.653-1.811-2.216-.715.373-1.407 1.227-1.375 2.08.026.698.306 3.073 2.87 5.637zm5.587 4.203c-.96-.035-3.68-.411-6.53-3.26-2.849-2.85-3.224-5.57-3.26-6.53-.053-1.464 1.068-2.886 2.363-3.441a.98.98 0 01.964.106c1.072.782 1.811 1.966 2.446 2.894A1.003 1.003 0 016.9 6.3l-.904.904a6.82 6.82 0 001.338 1.962c.7.7 1.498 1.128 1.962 1.338L10.2 9.6a1 1 0 011.278-.114c.947.656 2.059 1.384 2.87 2.422a.98.98 0 01.126.99c-.558 1.302-1.97 2.411-3.439 2.357z" fill="currentColor"/></svg><svg fill="none" viewBox="0 0 20 21" id="handset_2" xmlns="http://www.w3.org/2000/svg"><path d="M18.308 15.743c0 .3-.067.608-.209.908-.141.3-.325.583-.566.85-.409.45-.859.775-1.367.983-.5.209-1.042.317-1.625.317-.85 0-1.758-.2-2.717-.608a14.644 14.644 0 01-2.866-1.65 23.953 23.953 0 01-2.734-2.334A23.673 23.673 0 013.9 11.484c-.683-.95-1.233-1.9-1.633-2.841-.4-.95-.6-1.859-.6-2.725 0-.567.1-1.109.3-1.609.2-.508.517-.975.958-1.391.534-.525 1.117-.784 1.734-.784.233 0 .466.05.675.15.216.1.408.25.558.467l1.933 2.725c.15.208.259.4.334.583.075.175.116.35.116.509 0 .2-.058.4-.175.591a2.834 2.834 0 01-.466.592l-.634.658a.446.446 0 00-.133.334c0 .066.008.125.025.191.025.067.05.117.067.167.15.275.408.633.775 1.067.375.433.775.875 1.208 1.316.45.442.883.85 1.325 1.225.433.367.792.617 1.075.767.042.016.092.041.15.066a.575.575 0 00.208.034c.142 0 .25-.05.342-.142l.633-.625a2.56 2.56 0 01.6-.466 1.11 1.11 0 01.592-.175c.158 0 .325.033.508.108.184.075.375.183.584.325l2.758 1.958c.217.15.367.325.458.534.084.208.134.416.134.65z" stroke="currentColor" stroke-miterlimit="10"/><path d="M15.417 7.968c0-.5-.392-1.267-.975-1.892C13.908 5.5 13.2 5.05 12.5 5.05M18.333 7.968A5.829 5.829 0 0012.5 2.134" stroke="currentColor" stroke-linecap="round" stroke-linejoin="round"/></svg><svg fill="none" viewBox="0 0 13 17" id="lightning" xmlns="http://www.w3.org/2000/svg"><path d="M.235 10.399h4.911c.186 0 .287.173.209.355l-2.54 5.89c-.133.308.23.49.47.235L12.9 6.632c.181-.193.101-.465-.136-.465H6.652c-.223 0-.312-.241-.161-.436L10.588.436c.15-.195.061-.436-.161-.436H4.595a.38.38 0 00-.332.23L.027 10.043c-.079.182.023.355.208.355z" fill="currentColor"/></svg><svg fill="none" viewBox="0 0 21 20" id="lk" xmlns="http://www.w3.org/2000/svg"><path d="M4.7 15.1c.85-.65 1.8-1.162 2.85-1.537a9.737 9.737 0 013.3-.563c1.15 0 2.25.188 3.3.563 1.05.374 2 .887 2.85 1.537a7.73 7.73 0 001.363-2.325A7.838 7.838 0 0018.85 10c0-2.217-.78-4.104-2.338-5.662C14.954 2.779 13.067 2 10.85 2s-4.104.78-5.663 2.338C3.63 5.896 2.85 7.783 2.85 10c0 .983.162 1.908.487 2.775.325.867.78 1.642 1.363 2.325zm6.15-4.1c-.983 0-1.813-.338-2.488-1.012C7.687 9.313 7.35 8.483 7.35 7.5c0-.983.337-1.813 1.012-2.487C9.037 4.338 9.867 4 10.85 4c.983 0 1.813.338 2.488 1.013.675.675 1.012 1.504 1.012 2.487 0 .983-.338 1.813-1.012 2.488-.675.675-1.505 1.012-2.488 1.012zm0 9a9.738 9.738 0 01-3.9-.788 10.099 10.099 0 01-3.175-2.137c-.9-.9-1.613-1.958-2.138-3.175A9.738 9.738 0 01.85 10c0-1.383.262-2.683.787-3.9a10.099 10.099 0 012.138-3.175c.9-.9 1.958-1.612 3.175-2.137A9.738 9.738 0 0110.85 0c1.383 0 2.683.263 3.9.787a10.1 10.1 0 013.175 2.138c.9.9 1.613 1.958 2.137 3.175a9.738 9.738 0 01.788 3.9 9.738 9.738 0 01-.788 3.9 10.098 10.098 0 01-2.137 3.175 10.1 10.1 0 01-3.175 2.137 9.738 9.738 0 01-3.9.788z" fill="currentColor"/></svg><svg fill="none" viewBox="0 0 24 24" id="location" xmlns="http://www.w3.org/2000/svg"><path d="M11.999 13.43a3.12 3.12 0 100-6.24 3.12 3.12 0 000 6.24z" stroke="currentColor" stroke-width="1.5"/><path d="M3.622 8.49c1.97-8.66 14.8-8.65 16.76.01 1.15 5.08-2.01 9.38-4.78 12.04a5.194 5.194 0 01-7.21 0c-2.76-2.66-5.92-6.97-4.77-12.05z" stroke="currentColor" stroke-width="1.5"/></svg><svg fill="none" viewBox="0 0 20 24" id="notifications" xmlns="http://www.w3.org/2000/svg"><path d="M1.537 20.4c-.336 0-.618-.115-.846-.345A1.167 1.167 0 01.35 19.2c0-.34.114-.625.341-.855.228-.23.51-.345.846-.345h1.188V9.6c0-1.66.495-3.135 1.484-4.425.99-1.29 2.276-2.135 3.86-2.535V1.8c0-.5.173-.925.52-1.275C8.934.175 9.354 0 9.848 0c.496 0 .916.175 1.263.525.346.35.52.775.52 1.275v.84c1.582.4 2.869 1.245 3.859 2.535.99 1.29 1.484 2.765 1.484 4.425V18h1.187c.337 0 .619.115.847.345.227.23.34.515.34.855 0 .34-.113.625-.34.855-.228.23-.51.345-.847.345H1.537zM9.85 24a2.275 2.275 0 01-1.677-.705 2.323 2.323 0 01-.698-1.695h4.75c0 .66-.233 1.225-.698 1.695A2.275 2.275 0 019.85 24zM5.1 18h9.5V9.6c0-1.32-.465-2.45-1.395-3.39-.93-.94-2.049-1.41-3.355-1.41s-2.425.47-3.355 1.41C5.565 7.15 5.1 8.28 5.1 9.6V18z" fill="currentColor"/></svg><svg fill="none" viewBox="0 0 140 150" id="one" xmlns="http://www.w3.org/2000/svg"><path d="M105.237 88.987l18.157-85.439A2.937 2.937 0 00120.52 0H33.567a2.94 2.94 0 00-2.873 2.327L19.65 54.279a2.937 2.937 0 002.874 3.547H51.44c1.87 0 3.263 1.72 2.873 3.548l-6.128 28.834a2.938 2.938 0 01-2.873 2.327H13.903c-1.388 0-2.585.97-2.874 2.326L.066 146.452A2.937 2.937 0 002.94 150h123.159c1.388 0 2.585-.97 2.874-2.327l10.963-51.587a2.937 2.937 0 00-2.874-3.548h-28.951a2.939 2.939 0 01-2.874-3.548v-.003z" fill="currentColor"/></svg><svg fill="none" viewBox="0 0 100 100" id="play" xmlns="http://www.w3.org/2000/svg"><path d="M50 0C22.43 0 0 22.43 0 50s22.43 50 50 50 50-22.43 50-50S77.57 0 50 0zm17.974 52.236L40.46 68.856a2.592 2.592 0 01-3.922-2.238V33.382a2.591 2.591 0 013.922-2.238l27.513 16.62a2.619 2.619 0 010 4.472z" fill="currentColor"/></svg><svg fill="none" viewBox="0 0 24 25" id="plus" xmlns="http://www.w3.org/2000/svg"><path d="M12 3.468v18m9-9H3" stroke="currentColor" stroke-width="1.5" stroke-linecap="round" stroke-linejoin="round"/></svg><svg fill="none" viewBox="0 0 24 24" id="pts" xmlns="http://www.w3.org/2000/svg"><path d="M21.66 10.44l-.98 4.18c-.84 3.61-2.5 5.07-5.62 4.77-.5-.04-1.04-.13-1.62-.27l-1.68-.4c-4.17-.99-5.46-3.05-4.48-7.23l.98-4.19c.2-.85.44-1.59.74-2.2 1.17-2.42 3.16-3.07 6.5-2.28l1.67.39c4.19.98 5.47 3.05 4.49 7.23z" stroke="currentColor" stroke-width="1.5" stroke-linecap="round" stroke-linejoin="round"/><path d="M15.06 19.39c-.62.42-1.4.77-2.35 1.08l-1.58.52c-3.97 1.28-6.06.21-7.35-3.76L2.5 13.28c-1.28-3.97-.22-6.07 3.75-7.35l1.58-.52c.41-.13.8-.24 1.17-.31-.3.61-.54 1.35-.74 2.2l-.98 4.19c-.98 4.18.31 6.24 4.48 7.23l1.68.4c.58.14 1.12.23 1.62.27zM12.64 8.53l4.85 1.23M11.66 12.4l2.9.74" stroke="currentColor" stroke-width="1.5" stroke-linecap="round" stroke-linejoin="round"/></svg><svg fill="none" viewBox="0 0 133 225" id="r_mask" xmlns="http://www.w3.org/2000/svg"><g clip-path="url(#blclip0_1253_12113)"><path fill-rule="evenodd" clip-rule="evenodd" d="M19.957 157.366h31.518c2.444 0 4.553-1.728 5.059-4.14L71.763 80.88c.506-2.412 2.615-4.14 5.058-4.14h32.073c2.427 0 4.531-1.706 5.053-4.102L129.703.222c.522-2.396 2.621-4.102 5.053-4.102h186.58c3.288 0 5.747 3.064 5.058 6.313l-4.359 20.694c-.683 3.25 1.765 6.308 5.053 6.313l161.746.25c3.282.006 5.731 3.065 5.053 6.308L447.032 258.74c-.506 2.412-2.616 4.14-5.059 4.14H277.968c-3.288 0-5.742-3.059-5.058-6.308l2.583-12.273c.683-3.249-1.771-6.308-5.059-6.308H84.995c-3.288 0-5.741-3.058-5.058-6.307l14.314-68c.684-3.249-1.77-6.307-5.058-6.307H59.854c-2.438 0-4.553 1.727-5.058 4.14l-15.224 72.345c-.506 2.413-2.62 4.14-5.058 4.14H5.174c-3.292 0-5.746-3.064-5.058-6.313l14.777-70.172c.512-2.413 2.621-4.14 5.059-4.14h.005v-.011z" fill="currentColor"/></g><defs><clipPath id="blclip0_1253_12113"><path fill="#fff" transform="translate(0 -2)" d="M0 0h494v264H0z"/></clipPath></defs></svg><svg fill="none" viewBox="0 0 20 20" id="route" xmlns="http://www.w3.org/2000/svg"><path d="M1.723 3.833C2.39.95 6.732.95 7.39 3.833c.392 1.692-.683 3.125-1.617 4.017a1.78 1.78 0 01-2.441 0c-.925-.892-2-2.325-1.609-4.017zM12.56 13.833c.666-2.883 5.033-2.883 5.7 0 .391 1.692-.684 3.125-1.626 4.017a1.791 1.791 0 01-2.45 0c-.941-.892-2.016-2.325-1.625-4.017z" stroke="currentColor" stroke-width="1.25"/><path d="M10 4.167h2.233c1.541 0 2.258 1.908 1.1 2.925l-6.659 5.825c-1.158 1.008-.441 2.916 1.092 2.916H10M4.573 4.583h.01M15.405 14.583h.01" stroke="currentColor" stroke-width="1.25" stroke-linecap="round" stroke-linejoin="round"/></svg><svg fill="none" viewBox="0 0 76 124" id="s_discount_decor_l" xmlns="http://www.w3.org/2000/svg"><g clip-path="url(#bnclip0_514_15673)"><path fill-rule="evenodd" clip-rule="evenodd" d="M73.285 82.835h-14.27c-1.725 0-3.014-1.575-2.656-3.246l7.504-34.984c.358-1.67-.928-3.246-2.656-3.246H46.982c-1.728 0-3.014-1.575-2.656-3.245l7.51-34.982c.358-1.67-.928-3.245-2.656-3.245h-98.444a2.709 2.709 0 00-2.656 2.13l-2.764 12.88a2.71 2.71 0 01-2.653 2.13l-87.344.132c-1.28 0-2.385.887-2.653 2.13l-24.606 114.579c-.358 1.67.928 3.245 2.656 3.245h86.201a2.709 2.709 0 002.659-2.139l1.793-8.525a2.71 2.71 0 012.66-2.139h99.576a2.708 2.708 0 002.656-2.129l7.999-37.22a2.71 2.71 0 012.656-2.13h15.396c1.728 0 3.014 1.576 2.656 3.246l-7.52 34.988c-.358 1.67.925 3.242 2.65 3.245l15.683.031a2.708 2.708 0 002.665-2.148l7.498-36.137c.345-1.668-.94-3.227-2.66-3.227v.006z" fill="currentColor"/></g><defs><clipPath id="bnclip0_514_15673"><path fill="#fff" transform="translate(-172)" d="M0 0h248v137H0z"/></clipPath></defs></svg><svg fill="none" viewBox="0 0 90 124" id="s_discount_decor_r" xmlns="http://www.w3.org/2000/svg"><g clip-path="url(#boclip0_514_15674)"><path fill-rule="evenodd" clip-rule="evenodd" d="M10.221 82.771h16.142a2.655 2.655 0 002.59-2.12l7.8-37.051a2.655 2.655 0 012.59-2.12H55.77c1.243 0 2.321-.874 2.588-2.101l8.07-37.088A2.654 2.654 0 0169.015.19h95.556c1.684 0 2.943 1.57 2.59 3.233l-2.232 10.599c-.35 1.664.904 3.23 2.588 3.233l82.837.128c1.681.003 2.935 1.57 2.588 3.23L228.945 134.69a2.654 2.654 0 01-2.59 2.12H142.36c-1.684 0-2.94-1.567-2.59-3.231l1.322-6.285c.35-1.664-.906-3.231-2.59-3.231H43.53c-1.684 0-2.94-1.566-2.59-3.23l7.33-34.826c.35-1.664-.906-3.23-2.59-3.23H30.654a2.657 2.657 0 00-2.59 2.12l-7.797 37.052a2.657 2.657 0 01-2.591 2.12H2.65c-1.686 0-2.943-1.569-2.59-3.233l7.568-35.939a2.66 2.66 0 012.59-2.12h.003v-.006z" fill="currentColor"/></g><defs><clipPath id="boclip0_514_15674"><path fill="#fff" d="M0 0h253v137H0z"/></clipPath></defs></svg><svg fill="none" viewBox="0 0 18 18" id="settings" xmlns="http://www.w3.org/2000/svg"><path d="M7.89 18a1.61 1.61 0 01-1.1-.405c-.307-.27-.492-.6-.555-.99l-.213-1.485a3.666 3.666 0 01-.579-.27 7.833 7.833 0 01-.532-.338l-1.465.585c-.394.165-.788.18-1.182.046a1.726 1.726 0 01-.922-.72l-1.11-1.845a1.37 1.37 0 01-.19-1.103 1.7 1.7 0 01.639-.967l1.252-.9a2.047 2.047 0 01-.023-.304v-.608c0-.097.008-.198.023-.303l-1.252-.9a1.7 1.7 0 01-.638-.968 1.37 1.37 0 01.189-1.103l1.11-1.844c.221-.345.528-.585.922-.72s.788-.12 1.182.044l1.465.585c.174-.12.355-.232.544-.337a4.86 4.86 0 01.567-.27l.213-1.485c.063-.39.248-.72.555-.99A1.61 1.61 0 017.89 0h2.22c.426 0 .793.135 1.1.405.307.27.492.6.555.99l.213 1.485c.205.075.398.165.579.27.181.105.358.218.532.337l1.465-.585c.394-.165.788-.18 1.182-.045.394.135.701.375.922.72l1.11 1.846c.221.345.284.712.19 1.102a1.7 1.7 0 01-.639.967l-1.252.9c.015.106.023.207.023.304v.608c0 .097-.015.198-.047.303l1.253.9c.33.255.543.578.638.968.094.39.031.758-.19 1.103l-1.134 1.845c-.22.345-.527.585-.921.72-.394.134-.788.12-1.182-.046l-1.418-.585a6.51 6.51 0 01-.544.338c-.189.105-.378.195-.567.27l-.213 1.485c-.063.39-.248.72-.555.99a1.61 1.61 0 01-1.1.405H7.89zm1.157-5.85c.914 0 1.694-.308 2.34-.923.646-.614.97-1.357.97-2.227 0-.87-.324-1.612-.97-2.228-.646-.615-1.426-.922-2.34-.922-.93 0-1.713.308-2.351.923-.638.615-.958 1.357-.958 2.227 0 .87.32 1.613.958 2.227.638.615 1.422.923 2.351.923z" fill="currentColor"/></svg><svg fill="none" viewBox="0 0 24 24" id="share" xmlns="http://www.w3.org/2000/svg"><path d="M13 11l8.2-8.2M22 6.8V2h-4.8M11 2H9C4 2 2 4 2 9v6c0 5 2 7 7 7h6c5 0 7-2 7-7v-2" stroke="currentColor" stroke-width="1.5" stroke-linecap="round" stroke-linejoin="round"/></svg><svg fill="none" viewBox="0 0 19 18" id="telegram" xmlns="http://www.w3.org/2000/svg"><path fill-rule="evenodd" clip-rule="evenodd" d="M2.585 8.512c4.349-1.906 7.248-3.162 8.7-3.768C15.426 3.01 16.287 2.71 16.848 2.7c.123-.002.399.029.578.174.15.124.192.29.212.407.02.116.045.382.025.59-.225 2.372-1.196 8.128-1.69 10.784-.21 1.125-.62 1.501-1.02 1.538-.866.08-1.524-.575-2.363-1.128-1.313-.866-2.054-1.405-3.329-2.249-1.472-.976-.518-1.512.322-2.389.22-.23 4.036-3.72 4.11-4.037.01-.04.018-.187-.07-.265-.087-.078-.215-.052-.308-.03-.132.03-2.23 1.424-6.292 4.182-.596.41-1.135.611-1.618.6-.533-.011-1.557-.302-2.319-.551-.934-.306-1.677-.467-1.612-.986.034-.27.404-.546 1.11-.828z" fill="currentColor"/></svg><svg fill="none" viewBox="0 0 39 39" id="tg_c" xmlns="http://www.w3.org/2000/svg"><path fill-rule="evenodd" clip-rule="evenodd" d="M5 18.78c9.18-4.023 15.302-6.674 18.365-7.956C32.11 7.168 33.928 6.532 35.112 6.51c.26-.004.843.06 1.22.368.319.26.407.612.449.858.041.246.094.808.052 1.247-.474 5.007-2.524 17.158-3.568 22.766-.441 2.373-1.31 3.17-2.152 3.247-1.829.17-3.217-1.215-4.988-2.383-2.772-1.827-4.338-2.964-7.028-4.747-3.11-2.06-1.094-3.193.678-5.043.464-.485 8.521-7.854 8.677-8.523.02-.084.038-.395-.146-.56-.184-.164-.456-.108-.652-.063-.278.063-4.706 3.006-13.284 8.828-1.257.868-2.395 1.29-3.415 1.269-1.124-.025-3.287-.64-4.895-1.165-1.972-.645-3.54-.986-3.403-2.08.07-.57.852-1.154 2.343-1.75z" fill="#3390EC"/></svg><svg fill="none" viewBox="0 0 16 16" id="timer" xmlns="http://www.w3.org/2000/svg"><path d="M8 1.333a6.666 6.666 0 110 13.333A6.666 6.666 0 018 1.333zm0 1.333a5.333 5.333 0 100 10.667A5.333 5.333 0 008 2.666zM8 4a.667.667 0 01.662.588l.005.078v3.058l1.805 1.804a.666.666 0 01-.88.998l-.063-.055-2-2a.667.667 0 01-.19-.384L7.333 8V4.666A.667.667 0 018 4z" fill="currentColor"/></svg><svg fill="none" viewBox="0 0 24 24" id="urn" xmlns="http://www.w3.org/2000/svg"><path d="M21 5.98c-3.33-.33-6.68-.5-10.02-.5-1.98 0-3.96.1-5.94.3L3 5.98M8.5 4.97l.22-1.31C8.88 2.71 9 2 10.69 2h2.62c1.69 0 1.82.75 1.97 1.67l.22 1.3M18.848 9.14l-.65 10.07c-.11 1.57-.2 2.79-2.99 2.79h-6.42c-2.79 0-2.88-1.22-2.99-2.79l-.65-10.07M10.328 16.5h3.33M9.5 12.5h5" stroke="currentColor" stroke-width="1.5" stroke-linecap="round" stroke-linejoin="round"/></svg><svg fill="none" viewBox="0 0 20 13" id="vk" xmlns="http://www.w3.org/2000/svg"><path fill-rule="evenodd" clip-rule="evenodd" d="M.04.55C.196 7.984 3.99 12.45 10.642 12.45h.377V8.197c2.445.238 4.293 1.989 5.035 4.252h3.453c-.948-3.383-3.441-5.253-4.998-5.967C16.067 5.6 18.256 3.457 18.78.55H15.64c-.68 2.358-2.7 4.502-4.62 4.704V.551H7.882v8.241C5.937 8.316 3.48 6.005 3.37.551H.04z" fill="#fff"/></svg><svg fill="none" viewBox="0 0 40 41" id="vk_c" xmlns="http://www.w3.org/2000/svg"><path fill-rule="evenodd" clip-rule="evenodd" d="M1 8.708c.309 14.991 7.714 24 20.697 24h.736v-8.577c4.77.48 8.378 4.012 9.826 8.577H39c-1.851-6.823-6.717-10.595-9.755-12.036 3.038-1.778 7.31-6.102 8.33-11.964h-6.123c-1.33 4.757-5.269 9.081-9.019 9.49v-9.49h-6.124v16.625c-3.798-.961-8.592-5.622-8.806-16.625H1z" fill="#07F"/></svg><svg fill="none" viewBox="0 0 39 39" id="vk_video_c" xmlns="http://www.w3.org/2000/svg"><mask id="bxa" style="mask-type:luminance" maskUnits="userSpaceOnUse" x="2" y="2" width="35" height="35"><path d="M2.398 2.71h34.2v34.2h-34.2V2.71z" fill="#fff"/></mask><g mask="url(#bxa)"><path d="M2.398 15.207C2.398 4.92 4.608 2.71 14.896 2.71H24.1c10.289 0 12.497 2.209 12.497 12.497v9.206c0 10.288-2.208 12.497-12.497 12.497h-9.205c-10.289 0-12.498-2.209-12.498-12.497v-9.206z" fill="#07F"/><path d="M20.78 36.91h3.248c10.118 0 12.455-2.109 12.569-11.799V14.452C36.483 4.805 34.117 2.71 24.028 2.71H20.78C10.434 2.71 8.211 4.92 8.211 15.207v9.206c0 10.288 2.223 12.497 12.568 12.497z" fill="#FF2B42"/><path d="M26.523 16.846c1.739.998 2.593 1.496 2.893 2.152.256.57.256 1.225 0 1.781-.285.656-1.154 1.154-2.893 2.152l-4.731 2.736c-1.724.997-2.594 1.496-3.306 1.425a2.195 2.195 0 01-1.539-.898c-.427-.57-.427-1.567-.427-3.562V17.16c0-1.995 0-2.993.427-3.563a2.195 2.195 0 011.539-.912c.712-.085 1.567.428 3.306 1.425l4.731 2.722v.014z" fill="#fff"/></g></svg><svg fill="none" viewBox="0 0 19 18" id="whatsapp" xmlns="http://www.w3.org/2000/svg"><path d="M9.571.9a8.1 8.1 0 110 16.2 8.06 8.06 0 01-4.074-1.098L1.474 17.1l1.096-4.024A8.1 8.1 0 019.572.9zm-2.76 4.293l-.162.006a.81.81 0 00-.302.082c-.087.05-.168.112-.238.184-.097.092-.152.171-.211.248-.3.39-.461.868-.459 1.36.002.396.106.782.268 1.144.331.73.876 1.504 1.595 2.22.174.173.344.347.527.508a7.654 7.654 0 003.11 1.657l.46.07c.15.009.3-.003.45-.01a1.62 1.62 0 00.675-.187c.106-.055.21-.114.31-.178l.102-.073c.11-.081.177-.139.267-.233a.94.94 0 00.17-.245c.064-.132.127-.384.153-.594.02-.16.013-.248.011-.302-.003-.087-.075-.176-.154-.215l-.471-.211s-.705-.307-1.136-.503a.405.405 0 00-.143-.033.389.389 0 00-.306.103c-.004-.002-.058.044-.644.754a.283.283 0 01-.298.105 1.15 1.15 0 01-.155-.053l-.204-.088a4.861 4.861 0 01-1.275-.812c-.102-.09-.197-.187-.294-.28a5.103 5.103 0 01-.827-1.028l-.047-.077a.81.81 0 01-.083-.166.26.26 0 01.05-.214s.196-.216.288-.332a3.46 3.46 0 00.213-.303c.095-.153.125-.311.075-.434a66.253 66.253 0 00-.703-1.653c-.048-.108-.19-.186-.318-.202a2.43 2.43 0 00-.458-.01l.164-.005z" fill="currentColor"/></svg><svg fill="none" viewBox="0 0 19 18" id="youtube" xmlns="http://www.w3.org/2000/svg"><path d="M7.771 11.7L12.442 9l-4.67-2.7v5.4zm10.404-7.047c.117.423.198.99.252 1.71.063.72.09 1.34.09 1.88l.054.757c0 1.971-.144 3.42-.396 4.347-.225.81-.747 1.332-1.557 1.557-.423.117-1.197.198-2.385.252-1.17.063-2.24.09-3.23.09L9.57 15.3c-3.77 0-6.12-.144-7.047-.396-.81-.225-1.332-.747-1.557-1.557-.117-.423-.198-.99-.252-1.71-.063-.72-.09-1.341-.09-1.881L.571 9c0-1.971.144-3.42.396-4.347.225-.81.747-1.332 1.557-1.557.423-.117 1.197-.198 2.385-.252 1.17-.063 2.241-.09 3.231-.09L9.571 2.7c3.771 0 6.12.144 7.047.396.81.225 1.332.747 1.557 1.557z" fill="currentColor"/></svg></svg>