<?xml version="1.0" encoding="utf-8"?><svg viewBox="0 0 100 100" xmlns="http://www.w3.org/2000/svg" xmlns:xlink="http://www.w3.org/1999/xlink"><style>:root>svg{display:none}:root>svg:target{display:block}</style><svg fill="none" viewBox="0 0 10 10" id="arrow_angle_down" xmlns="http://www.w3.org/2000/svg"><path d="M1 3.25l4 4 4-4" stroke="currentColor" stroke-width="1.25" stroke-linecap="round" stroke-linejoin="round"/></svg><svg fill="none" viewBox="0 0 10 11" id="arrow_angle_right" xmlns="http://www.w3.org/2000/svg"><path d="M3.25 9.5l4-4-4-4" stroke="currentColor" stroke-width="1.5" stroke-linecap="round" stroke-linejoin="round"/></svg><svg fill="none" viewBox="0 0 16 12" id="arrow_classic" xmlns="http://www.w3.org/2000/svg"><path d="M12.15 7.279H1a.968.968 0 01-.713-.288A.968.968 0 010 6.28c0-.284.096-.521.287-.713A.968.968 0 011 5.28h11.15L9.3 2.429a.916.916 0 01-.288-.7c.009-.267.105-.5.288-.7.2-.2.438-.305.712-.313a.93.93 0 01.713.288L15.3 5.579c.1.1.17.208.212.325.042.116.063.241.063.375 0 .133-.02.258-.063.375a.878.878 0 01-.212.325l-4.575 4.575a.93.93 0 01-.713.287 1.02 1.02 0 01-.712-.312c-.183-.2-.28-.434-.288-.7a.916.916 0 01.288-.7l2.85-2.85z" fill="currentColor"/></svg><svg fill="none" viewBox="0 0 9 12" id="arrow_dir" xmlns="http://www.w3.org/2000/svg"><path d="M3.533 8.443v-7.28a.99.99 0 01.289-.716.932.932 0 01.694-.297c.27 0 .501.1.694.297a.99.99 0 01.288.716v7.264l1.84-1.913a.905.905 0 01.695-.305c.275 0 .507.102.694.305A.96.96 0 019 7.23a1.015 1.015 0 01-.289.716l-3.51 3.616a.906.906 0 01-.327.217.972.972 0 01-.74 0 .922.922 0 01-.32-.217L.289 7.945A1.006 1.006 0 010 7.238a.976.976 0 01.289-.724.937.937 0 01.694-.305c.265 0 .496.102.694.305l1.856 1.929z" fill="currentColor"/></svg><svg fill="none" viewBox="0 0 12 12" id="arrow_right_top" xmlns="http://www.w3.org/2000/svg"><path d="M2.458 1.08h8.522m0 0v8.401m0-8.4l-9.9 9.899" stroke="currentColor" stroke-width="2" stroke-linecap="round" stroke-linejoin="round"/></svg><svg fill="none" viewBox="0 0 21 21" id="arrow_slider_left" xmlns="http://www.w3.org/2000/svg"><path d="M14 2.5l-8 8 8 8" stroke="currentColor" stroke-width="1.5" stroke-linecap="round" stroke-linejoin="round"/></svg><svg fill="none" viewBox="0 0 21 21" id="arrow_slider_right" xmlns="http://www.w3.org/2000/svg"><path d="M7 18.5l8-8-8-8" stroke="currentColor" stroke-width="1.5" stroke-linecap="round" stroke-linejoin="round"/></svg><svg fill="none" viewBox="0 0 20 21" id="attention" xmlns="http://www.w3.org/2000/svg"><path d="M10 15.5c.283 0 .52-.096.713-.287A.968.968 0 0011 14.5a.968.968 0 00-.287-.713A.968.968 0 0010 13.5a.967.967 0 00-.713.287A.968.968 0 009 14.5c0 .283.096.52.287.713.192.191.43.287.713.287zm0-4c.283 0 .52-.096.713-.287A.968.968 0 0011 10.5v-4a.967.967 0 00-.287-.713A.968.968 0 0010 5.5a.968.968 0 00-.713.287A.968.968 0 009 6.5v4c0 .283.096.52.287.713.192.191.43.287.713.287zm0 9a9.738 9.738 0 01-3.9-.788 10.099 10.099 0 01-3.175-2.137c-.9-.9-1.612-1.958-2.137-3.175A9.738 9.738 0 010 10.5c0-1.383.263-2.683.787-3.9a10.099 10.099 0 012.138-3.175c.9-.9 1.958-1.612 3.175-2.137A9.738 9.738 0 0110 .5c1.383 0 2.683.262 3.9.788a10.098 10.098 0 013.175 2.137c.9.9 1.613 1.958 2.137 3.175A9.738 9.738 0 0120 10.5a9.738 9.738 0 01-.788 3.9 10.098 10.098 0 01-2.137 3.175c-.9.9-1.958 1.613-3.175 2.137a9.738 9.738 0 01-3.9.788z" fill="currentColor"/></svg><svg fill="none" viewBox="0 0 32 32" id="briefcase" xmlns="http://www.w3.org/2000/svg"><path d="M10.668 29.333h10.666c5.36 0 6.32-2.146 6.6-4.76l1-10.666C29.294 10.653 28.361 8 22.668 8H9.334c-5.693 0-6.626 2.653-6.266 5.907l1 10.666c.28 2.614 1.24 4.76 6.6 4.76zM10.668 8V6.933c0-2.36 0-4.266 4.267-4.266h2.133c4.267 0 4.267 1.906 4.267 4.266V8" stroke="currentColor" stroke-width="1.5" stroke-miterlimit="10" stroke-linecap="round" stroke-linejoin="round"/><path d="M18.665 17.333v1.36c0 1.454-.013 2.64-2.666 2.64-2.64 0-2.667-1.173-2.667-2.626v-1.374c0-1.333 0-1.333 1.333-1.333h2.667c1.333 0 1.333 0 1.333 1.333zM28.868 14.667a21.979 21.979 0 01-10.2 4.026M3.492 15.027c3 2.053 6.387 3.293 9.84 3.68" stroke="currentColor" stroke-width="1.5" stroke-miterlimit="10" stroke-linecap="round" stroke-linejoin="round"/></svg><svg fill="none" viewBox="0 0 24 24" id="burger" xmlns="http://www.w3.org/2000/svg"><path d="M3 6.001h18m-18 6h18m-18 6h18" stroke="currentColor" stroke-width="2" stroke-linecap="round" stroke-linejoin="round"/></svg><svg fill="none" viewBox="0 0 18 19" id="burger_chevron" xmlns="http://www.w3.org/2000/svg"><path d="M1.9 6.175l7.6 7.6 7.6-7.6" stroke="currentColor" stroke-width="1.25" stroke-linecap="round" stroke-linejoin="round"/></svg><svg fill="none" viewBox="0 0 20 20" id="burger_close" xmlns="http://www.w3.org/2000/svg"><path d="M4.693 14.69L15.3 4.083M4.7 4.083L15.305 14.69" stroke="currentColor" stroke-width="1.25" stroke-linecap="round"/></svg><svg fill="none" viewBox="0 0 18 20" id="calendar" xmlns="http://www.w3.org/2000/svg"><path d="M11.5 16c-.7 0-1.292-.242-1.775-.725C9.242 14.792 9 14.2 9 13.5s.242-1.292.725-1.775C10.208 11.242 10.8 11 11.5 11s1.292.242 1.775.725c.483.483.725 1.075.725 1.775s-.242 1.292-.725 1.775c-.483.483-1.075.725-1.775.725zM2 20c-.55 0-1.02-.196-1.413-.587A1.926 1.926 0 010 18V4c0-.55.196-1.02.588-1.413A1.926 1.926 0 012 2h1V1c0-.283.096-.52.288-.713A.968.968 0 014 0c.283 0 .52.096.713.287C4.904.48 5 .718 5 1v1h8V1c0-.283.096-.52.287-.713A.968.968 0 0114 0c.283 0 .52.096.713.287.191.192.287.43.287.713v1h1c.55 0 1.02.196 1.413.587C17.803 2.98 18 3.45 18 4v14c0 .55-.196 1.02-.587 1.413A1.926 1.926 0 0116 20H2zm0-2h14V8H2v10z" fill="currentColor"/></svg><svg fill="none" viewBox="0 0 16 16" id="cancel" xmlns="http://www.w3.org/2000/svg"><path d="M8 16a7.79 7.79 0 01-3.12-.63 8.079 8.079 0 01-2.54-1.71 8.08 8.08 0 01-1.71-2.54A7.79 7.79 0 010 8c0-1.107.21-2.147.63-3.12.42-.973.99-1.82 1.71-2.54A8.079 8.079 0 014.88.63 7.79 7.79 0 018 0a7.79 7.79 0 013.12.63c.973.42 1.82.99 2.54 1.71s1.29 1.567 1.71 2.54c.42.973.63 2.013.63 3.12a7.79 7.79 0 01-.63 3.12 8.08 8.08 0 01-1.71 2.54 8.08 8.08 0 01-2.54 1.71A7.79 7.79 0 018 16zm0-1.6c.72 0 1.413-.117 2.08-.35a6.359 6.359 0 001.84-1.01L2.96 4.08a6.36 6.36 0 00-1.01 1.84A6.251 6.251 0 001.6 8c0 1.787.62 3.3 1.86 4.54C4.7 13.78 6.213 14.4 8 14.4zm5.04-2.48c.44-.56.777-1.173 1.01-1.84.233-.667.35-1.36.35-2.08 0-1.787-.62-3.3-1.86-4.54C11.3 2.22 9.787 1.6 8 1.6c-.72 0-1.413.117-2.08.35a6.36 6.36 0 00-1.84 1.01l8.96 8.96z" fill="currentColor"/></svg><svg fill="none" viewBox="0 0 20 20" id="check" xmlns="http://www.w3.org/2000/svg"><path d="M4 9l4.5 4.5L16 6" stroke="currentColor" stroke-width="1.5" stroke-linecap="round" stroke-linejoin="round"/></svg><svg fill="none" viewBox="0 0 24 24" id="check_circle" xmlns="http://www.w3.org/2000/svg"><path d="M12 22c5.5 0 10-4.5 10-10S17.5 2 12 2 2 6.5 2 12s4.5 10 10 10z" stroke="currentColor" stroke-width="1.5" stroke-linecap="round" stroke-linejoin="round"/><path d="M7.75 12l2.83 2.83 5.67-5.66" stroke="currentColor" stroke-width="1.5" stroke-linecap="round" stroke-linejoin="round"/></svg><svg fill="none" viewBox="0 0 14 18" id="check_tag" xmlns="http://www.w3.org/2000/svg"><path d="M5.95 8.686l-.725-.725a1.003 1.003 0 00-.7-.275c-.267 0-.5.1-.7.3-.2.2-.3.433-.3.7 0 .266.1.5.3.7l1.4 1.425c.2.2.438.3.713.3.275 0 .512-.1.712-.3l3.525-3.55c.2-.2.3-.434.3-.7 0-.267-.1-.5-.3-.7a.96.96 0 00-.7-.3c-.267 0-.5.1-.7.3L5.95 8.686zM7 15.51l-4.2 1.8c-.667.283-1.3.229-1.9-.163-.6-.391-.9-.946-.9-1.662V2.51c0-.55.196-1.021.588-1.413A1.926 1.926 0 012 .511h10c.55 0 1.02.196 1.412.587.392.392.588.863.588 1.413v12.975c0 .716-.3 1.27-.9 1.662-.6.392-1.233.446-1.9.163L7 15.51z" fill="currentColor"/></svg><svg fill="none" viewBox="0 0 24 24" id="close" xmlns="http://www.w3.org/2000/svg"><path fill-rule="evenodd" clip-rule="evenodd" d="M12 13.414l5.657 5.657a1 1 0 001.414-1.414L13.414 12l5.657-5.657a1 1 0 00-1.414-1.414L12 10.586 6.343 4.93A1 1 0 004.93 6.343L10.586 12l-5.657 5.657a1 1 0 101.414 1.414L12 13.414z" fill="currentColor"/></svg><svg fill="none" viewBox="0 0 20 22" id="download" xmlns="http://www.w3.org/2000/svg"><path d="M10 15.97c-.167 0-.323-.027-.469-.081a1.092 1.092 0 01-.406-.28l-4.5-4.724a1.234 1.234 0 01-.36-.919c.011-.35.13-.656.36-.919.25-.262.547-.399.89-.41.344-.01.641.115.891.377l2.344 2.461V2.091c0-.372.12-.684.36-.935A1.18 1.18 0 0110 .779c.354 0 .651.125.89.377.24.251.36.563.36.935v9.384l2.344-2.46c.25-.263.547-.389.89-.378.344.011.641.148.891.41.23.263.349.57.36.92.01.35-.11.655-.36.918l-4.5 4.725c-.125.131-.26.224-.406.279a1.324 1.324 0 01-.469.082zM2.5 21.78c-.688 0-1.276-.258-1.766-.771A2.593 2.593 0 010 19.154v-2.625c0-.372.12-.684.36-.936a1.18 1.18 0 01.89-.377c.354 0 .651.126.89.377.24.252.36.564.36.936v2.625h15v-2.625c0-.372.12-.684.36-.936a1.18 1.18 0 01.89-.377c.354 0 .651.126.89.377.24.252.36.564.36.936v2.625c0 .721-.245 1.34-.734 1.854-.49.514-1.078.77-1.766.77h-15z" fill="currentColor"/></svg><svg fill="none" viewBox="0 0 18 18" id="entry" xmlns="http://www.w3.org/2000/svg"><path d="M2.045 18a1.992 1.992 0 01-1.444-.587C.2 17.02 0 16.55 0 16V2C0 1.45.2.98.6.587 1.002.196 1.484 0 2.046 0h6.137c.29 0 .532.096.729.287.196.192.294.43.294.713s-.098.52-.294.712A1.001 1.001 0 018.18 2H2.046v14h6.137c.29 0 .532.096.729.288.196.191.294.429.294.712s-.098.52-.294.712a1.001 1.001 0 01-.73.288H2.046zm12.452-8H7.16c-.29 0-.533-.096-.729-.287A.957.957 0 016.136 9c0-.283.098-.52.294-.713.196-.191.44-.287.73-.287h7.337L12.58 6.125a.907.907 0 01-.28-.675c0-.267.093-.5.28-.7a.98.98 0 01.716-.313.979.979 0 01.742.288L17.693 8.3a.95.95 0 010 1.4l-3.656 3.575a.963.963 0 01-.729.287 1.054 1.054 0 01-.729-.312.96.96 0 01-.268-.713.966.966 0 01.294-.687L14.497 10z" fill="currentColor"/></svg><svg fill="none" viewBox="0 0 14 19" id="exc" xmlns="http://www.w3.org/2000/svg"><g clip-path="url(#auclip0_514_15002)"><path fill-rule="evenodd" clip-rule="evenodd" d="M13.328.125h-9.14a.577.577 0 00-.566.461l-2.56 12.289c-.073.358.2.693.566.693h9.238c.274 0 .51-.192.565-.46l2.56-12.29c.073-.358-.297-.693-.663-.693zm-2.886 14.542H1.204a.577.577 0 00-.565.461l-.627 3.054c-.073.358.2.693.565.693h9.238c.274 0 .51-.193.565-.461l.627-3.054a.577.577 0 00-.565-.693z" fill="currentColor"/></g><defs><clipPath id="auclip0_514_15002"><path fill="#fff" transform="translate(0 .5)" d="M0 0h14v18H0z"/></clipPath></defs></svg><svg fill="none" viewBox="0 0 22 16" id="eye" xmlns="http://www.w3.org/2000/svg"><path d="M11.275 12.5c1.25 0 2.313-.438 3.188-1.313.875-.874 1.312-1.937 1.312-3.187 0-1.25-.438-2.313-1.313-3.188-.874-.875-1.937-1.312-3.187-1.312-1.25 0-2.313.438-3.188 1.313S6.775 6.75 6.775 8c0 1.25.437 2.313 1.312 3.188.875.874 1.938 1.312 3.188 1.312zm0-1.8c-.75 0-1.388-.262-1.913-.787A2.604 2.604 0 018.575 8c0-.75.262-1.388.787-1.912a2.604 2.604 0 011.913-.788c.75 0 1.387.263 1.912.788.526.524.788 1.162.788 1.912s-.262 1.387-.787 1.912a2.604 2.604 0 01-1.913.788zm0 4.8c-2.233 0-4.27-.6-6.113-1.8C3.321 12.5 1.867 10.917.8 8.95a1.907 1.907 0 01-.187-1.437C.653 7.354.716 7.2.8 7.05 1.867 5.083 3.32 3.5 5.162 2.3 7.004 1.1 9.042.5 11.275.5c2.233 0 4.27.6 6.112 1.8 1.842 1.2 3.296 2.783 4.363 4.75a1.906 1.906 0 01.188 1.438 2 2 0 01-.188.462c-1.067 1.967-2.52 3.55-4.363 4.75-1.841 1.2-3.879 1.8-6.112 1.8z" fill="currentColor"/></svg><svg fill="none" viewBox="0 0 21 23" id="file_check" xmlns="http://www.w3.org/2000/svg"><path d="M14.175 18.088c.735 0 1.356-.253 1.864-.76.507-.506.761-1.126.761-1.859 0-.733-.254-1.353-.761-1.86-.508-.506-1.129-.759-1.864-.759-.735 0-1.356.253-1.864.76-.507.506-.761 1.126-.761 1.859 0 .733.254 1.353.761 1.86.508.506 1.129.76 1.864.76zm5.355 4.19l-2.835-2.802a4.812 4.812 0 01-2.52.707c-1.312 0-2.428-.458-3.347-1.375-.919-.916-1.378-2.03-1.378-3.339 0-1.31.46-2.423 1.378-3.34.919-.916 2.035-1.374 3.347-1.374 1.313 0 2.428.458 3.347 1.375.919.916 1.378 2.03 1.378 3.339 0 .472-.066.921-.197 1.349-.131.428-.31.825-.538 1.191L21 20.813l-1.47 1.467zM2.1 21.232a2.024 2.024 0 01-1.483-.616A2.015 2.015 0 010 19.136V2.375c0-.576.206-1.07.617-1.48.411-.41.905-.615 1.483-.615h8.4l6.3 6.285v2.62a6.82 6.82 0 00-2.625-.524c-2.152 0-3.837.711-5.053 2.134-1.216 1.423-1.824 3.008-1.824 4.754 0 1.082.258 2.13.774 3.143.516 1.012 1.334 1.859 2.454 2.54H2.1zM9.45 7.61h5.25L9.45 2.375v5.238z" fill="currentColor"/></svg><svg fill="none" viewBox="0 0 18 16" id="filter" xmlns="http://www.w3.org/2000/svg"><path d="M3 16a.967.967 0 01-.712-.287A.968.968 0 012 15V9H1a.968.968 0 01-.713-.287A.968.968 0 010 8c0-.283.096-.52.287-.713A.968.968 0 011 7h4c.283 0 .52.096.713.287.191.192.287.43.287.713s-.096.52-.287.713A.968.968 0 015 9H4v6c0 .283-.096.52-.288.713A.967.967 0 013 16zM3 5a.968.968 0 01-.712-.287A.968.968 0 012 4V1c0-.283.096-.52.288-.713A.968.968 0 013 0c.283 0 .52.096.712.287C3.905.48 4 .718 4 1v3c0 .283-.096.52-.288.713A.968.968 0 013 5zm4 0a.968.968 0 01-.713-.287A.968.968 0 016 4c0-.283.096-.52.287-.712A.968.968 0 017 3h1V1c0-.283.096-.52.287-.713A.968.968 0 019 0c.283 0 .52.096.713.287C9.904.48 10 .718 10 1v2h1c.283 0 .52.096.713.288.191.191.287.429.287.712s-.096.52-.287.713A.968.968 0 0111 5H7zm2 11a.967.967 0 01-.713-.287A.968.968 0 018 15V8c0-.283.096-.52.287-.713A.968.968 0 019 7c.283 0 .52.096.713.287.191.192.287.43.287.713v7c0 .283-.096.52-.287.713A.967.967 0 019 16zm6 0a.968.968 0 01-.713-.287A.968.968 0 0114 15v-2h-1a.968.968 0 01-.713-.287A.968.968 0 0112 12c0-.283.096-.52.287-.713A.968.968 0 0113 11h4c.283 0 .52.096.712.287.192.192.288.43.288.713s-.096.52-.288.713A.968.968 0 0117 13h-1v2c0 .283-.096.52-.287.713A.968.968 0 0115 16zm0-7a.968.968 0 01-.713-.287A.967.967 0 0114 8V1c0-.283.096-.52.287-.713A.968.968 0 0115 0c.283 0 .52.096.713.287.191.192.287.43.287.713v7c0 .283-.096.52-.287.713A.968.968 0 0115 9z" fill="currentColor"/></svg><svg fill="none" viewBox="0 0 64 64" id="form_check" xmlns="http://www.w3.org/2000/svg"><rect width="64" height="64" rx="32" fill="#DCFCE7"/><path d="M26.627 38.762l18.635-18.12c.44-.428.953-.642 1.54-.642.586 0 1.099.214 1.538.641.44.428.66.936.66 1.524s-.22 1.096-.66 1.523l-20.174 19.67c-.44.428-.952.642-1.539.642-.586 0-1.1-.214-1.539-.641l-9.455-9.194c-.44-.428-.65-.936-.632-1.524.018-.587.248-1.095.687-1.523a2.17 2.17 0 011.567-.641 2.17 2.17 0 011.567.641l7.805 7.644z" fill="#22C55E"/></svg><svg fill="none" viewBox="0 0 64 64" id="form_success" xmlns="http://www.w3.org/2000/svg"><rect width="64" height="64" rx="32" fill="#DCFCE7"/><path d="M33.538 17.42l12.037 7.318c.45.28.8.661 1.05 1.144.25.483.375.99.375 1.525V43.95a2.96 2.96 0 01-.881 2.154C45.53 46.701 44.825 47 44 47H20c-.825 0-1.531-.299-2.119-.896A2.96 2.96 0 0117 43.95V27.407c0-.534.125-1.042.375-1.525.25-.483.6-.864 1.05-1.144l12.037-7.319A2.98 2.98 0 0132 17c.55 0 1.063.14 1.538.42zM32 34.267l11.7-7.09-11.7-7.09-11.7 7.09 11.7 7.09z" fill="#22C55E"/></svg><svg fill="none" viewBox="0 0 16 17" id="handset" xmlns="http://www.w3.org/2000/svg"><path fill-rule="evenodd" clip-rule="evenodd" d="M5.448 11.052c2.564 2.564 4.939 2.844 5.636 2.87.843.031 1.703-.657 2.075-1.362-.593-.696-1.366-1.236-2.212-1.821-.5.499-1.115 1.425-1.934 1.093-.466-.187-1.617-.717-2.622-1.723-1.005-1.006-1.535-2.156-1.724-2.621-.332-.821.597-1.438 1.097-1.937-.586-.86-1.116-1.653-1.811-2.216-.715.373-1.407 1.227-1.375 2.08.026.698.306 3.073 2.87 5.637zm5.587 4.203c-.96-.035-3.68-.411-6.53-3.26-2.849-2.85-3.224-5.57-3.26-6.53-.053-1.464 1.068-2.886 2.363-3.441a.98.98 0 01.964.106c1.072.782 1.811 1.966 2.446 2.894A1.003 1.003 0 016.9 6.3l-.904.904a6.82 6.82 0 001.338 1.962c.7.7 1.498 1.128 1.962 1.338L10.2 9.6a1 1 0 011.278-.114c.947.656 2.059 1.384 2.87 2.422a.98.98 0 01.126.99c-.558 1.302-1.97 2.411-3.439 2.357z" fill="currentColor"/></svg><svg fill="none" viewBox="0 0 21 20" id="lk" xmlns="http://www.w3.org/2000/svg"><path d="M4.7 15.1c.85-.65 1.8-1.162 2.85-1.537a9.737 9.737 0 013.3-.563c1.15 0 2.25.188 3.3.563 1.05.374 2 .887 2.85 1.537a7.73 7.73 0 001.363-2.325A7.838 7.838 0 0018.85 10c0-2.217-.78-4.104-2.338-5.662C14.954 2.779 13.067 2 10.85 2s-4.104.78-5.663 2.338C3.63 5.896 2.85 7.783 2.85 10c0 .983.162 1.908.487 2.775.325.867.78 1.642 1.363 2.325zm6.15-4.1c-.983 0-1.813-.338-2.488-1.012C7.687 9.313 7.35 8.483 7.35 7.5c0-.983.337-1.813 1.012-2.487C9.037 4.338 9.867 4 10.85 4c.983 0 1.813.338 2.488 1.013.675.675 1.012 1.504 1.012 2.487 0 .983-.338 1.813-1.012 2.488-.675.675-1.505 1.012-2.488 1.012zm0 9a9.738 9.738 0 01-3.9-.788 10.099 10.099 0 01-3.175-2.137c-.9-.9-1.613-1.958-2.138-3.175A9.738 9.738 0 01.85 10c0-1.383.262-2.683.787-3.9a10.099 10.099 0 012.138-3.175c.9-.9 1.958-1.612 3.175-2.137A9.738 9.738 0 0110.85 0c1.383 0 2.683.263 3.9.787a10.1 10.1 0 013.175 2.138c.9.9 1.613 1.958 2.137 3.175a9.738 9.738 0 01.788 3.9 9.738 9.738 0 01-.788 3.9 10.098 10.098 0 01-2.137 3.175 10.1 10.1 0 01-3.175 2.137 9.738 9.738 0 01-3.9.788z" fill="currentColor"/></svg><svg fill="none" viewBox="0 0 18 16" id="message" xmlns="http://www.w3.org/2000/svg"><path d="M1.4 15.425a.99.99 0 01-.95-.088c-.3-.191-.45-.47-.45-.837V10l8-2-8-2V1.5C0 1.133.15.854.45.663A.99.99 0 011.4.575l15.4 6.5c.417.183.625.492.625.925 0 .433-.208.742-.625.925l-15.4 6.5z" fill="currentColor"/></svg><svg fill="none" viewBox="0 0 21 19" id="note" xmlns="http://www.w3.org/2000/svg"><path d="M.988 18.5a.973.973 0 01-.85-.5 1.098 1.098 0 01-.137-.488A.898.898 0 01.138 17l9.25-16c.1-.167.23-.292.388-.375.158-.083.32-.125.488-.125.166 0 .329.042.487.125a.984.984 0 01.388.375l9.25 16c.1.167.145.337.137.512a1.099 1.099 0 01-.137.488.974.974 0 01-.85.5H.988zm9.275-3c.284 0 .521-.096.713-.287a.968.968 0 00.287-.713.968.968 0 00-.287-.713.968.968 0 00-.713-.287.967.967 0 00-.712.287.968.968 0 00-.288.713c0 .283.096.52.288.713.192.191.43.287.713.287zm0-3c.284 0 .521-.096.713-.287a.968.968 0 00.287-.713v-3a.968.968 0 00-.287-.713.968.968 0 00-.713-.287.968.968 0 00-.712.287.968.968 0 00-.288.713v3c0 .283.096.52.288.713.192.191.43.287.713.287z" fill="currentColor"/></svg><svg fill="none" viewBox="0 0 20 24" id="notifications" xmlns="http://www.w3.org/2000/svg"><path d="M1.537 20.4c-.336 0-.618-.115-.846-.345A1.167 1.167 0 01.35 19.2c0-.34.114-.625.341-.855.228-.23.51-.345.846-.345h1.188V9.6c0-1.66.495-3.135 1.484-4.425.99-1.29 2.276-2.135 3.86-2.535V1.8c0-.5.173-.925.52-1.275C8.934.175 9.354 0 9.848 0c.496 0 .916.175 1.263.525.346.35.52.775.52 1.275v.84c1.582.4 2.869 1.245 3.859 2.535.99 1.29 1.484 2.765 1.484 4.425V18h1.187c.337 0 .619.115.847.345.227.23.34.515.34.855 0 .34-.113.625-.34.855-.228.23-.51.345-.847.345H1.537zM9.85 24a2.275 2.275 0 01-1.677-.705 2.323 2.323 0 01-.698-1.695h4.75c0 .66-.233 1.225-.698 1.695A2.275 2.275 0 019.85 24zM5.1 18h9.5V9.6c0-1.32-.465-2.45-1.395-3.39-.93-.94-2.049-1.41-3.355-1.41s-2.425.47-3.355 1.41C5.565 7.15 5.1 8.28 5.1 9.6V18z" fill="currentColor"/></svg><svg fill="none" viewBox="0 0 19 18" id="pencil" xmlns="http://www.w3.org/2000/svg"><path d="M2.5 16h1.425L13.7 6.225 12.275 4.8 2.5 14.575V16zm-1 2a.967.967 0 01-.713-.288A.968.968 0 01.5 17v-2.425a1.975 1.975 0 01.575-1.4L13.7.575c.2-.183.42-.325.663-.425.241-.1.495-.15.762-.15s.525.05.775.15c.25.1.467.25.65.45L17.925 2c.2.183.346.4.438.65a2.165 2.165 0 010 1.512 1.874 1.874 0 01-.438.663l-12.6 12.6a1.975 1.975 0 01-1.4.575H1.5zM12.975 5.525l-.7-.725L13.7 6.225l-.725-.7z" fill="currentColor"/></svg><svg fill="none" viewBox="0 0 23 21" id="photo" xmlns="http://www.w3.org/2000/svg"><path d="M19.5 6.5a.968.968 0 01-.712-.287.967.967 0 01-.288-.713v-1h-1a.968.968 0 01-.712-.287.967.967 0 01-.288-.713c0-.283.096-.52.288-.712A.968.968 0 0117.5 2.5h1v-1c0-.283.096-.52.288-.713A.968.968 0 0119.5.5c.283 0 .52.096.712.287.192.192.288.43.288.713v1h1c.283 0 .52.096.712.288.192.191.288.429.288.712s-.096.52-.288.713a.968.968 0 01-.712.287h-1v1c0 .283-.096.52-.288.713a.968.968 0 01-.712.287zm-9 10.5c1.25 0 2.313-.438 3.188-1.313C14.562 14.813 15 13.75 15 12.5c0-1.25-.438-2.313-1.313-3.188C12.813 8.438 11.75 8 10.5 8c-1.25 0-2.313.438-3.188 1.313C6.438 10.187 6 11.25 6 12.5c0 1.25.438 2.313 1.313 3.188C8.188 16.561 9.25 17 10.5 17zm0-2c-.7 0-1.292-.242-1.775-.725C8.242 13.792 8 13.2 8 12.5s.242-1.292.725-1.775C9.208 10.242 9.8 10 10.5 10s1.292.242 1.775.725c.483.483.725 1.075.725 1.775s-.242 1.292-.725 1.775c-.483.483-1.075.725-1.775.725zm-8 5.5c-.55 0-1.02-.196-1.413-.587A1.926 1.926 0 01.5 18.5v-12c0-.55.196-1.02.587-1.412A1.926 1.926 0 012.5 4.5h3.15L6.9 3.15c.183-.2.404-.358.662-.475.259-.117.53-.175.813-.175H13.5c.283 0 .52.096.713.288.191.191.287.429.287.712V5c0 .417.146.77.438 1.063.291.291.645.437 1.062.437h.5V7c0 .417.146.77.438 1.063.291.291.645.437 1.062.437h1.5c.283 0 .52.096.712.287.192.192.288.43.288.713v9c0 .55-.196 1.02-.587 1.413a1.926 1.926 0 01-1.413.587h-16z" fill="currentColor"/></svg><svg fill="none" viewBox="0 0 100 100" id="play" xmlns="http://www.w3.org/2000/svg"><path d="M50 0C22.43 0 0 22.43 0 50s22.43 50 50 50 50-22.43 50-50S77.57 0 50 0zm17.974 52.236L40.46 68.856a2.592 2.592 0 01-3.922-2.238V33.382a2.591 2.591 0 013.922-2.238l27.513 16.62a2.619 2.619 0 010 4.472z" fill="currentColor"/></svg><svg fill="none" viewBox="0 0 19 20" id="plus" xmlns="http://www.w3.org/2000/svg"><path d="M8.143 11.357H1.357c-.384 0-.707-.13-.967-.39S0 10.384 0 10c0-.385.13-.707.39-.967s.583-.39.967-.39h6.786V1.857c0-.384.13-.707.39-.967S9.115.5 9.5.5s.707.13.967.39.39.583.39.967v6.786h6.786c.384 0 .707.13.967.39s.39.582.39.967c0 .384-.13.707-.39.967s-.583.39-.967.39h-6.786v6.786c0 .384-.13.707-.39.967s-.582.39-.967.39-.707-.13-.967-.39-.39-.583-.39-.967v-6.786z" fill="currentColor"/></svg><svg fill="none" viewBox="0 0 28 28" id="search" xmlns="http://www.w3.org/2000/svg"><path d="M11.685 23.37c-3.266 0-6.03-1.13-8.292-3.393C1.131 17.715 0 14.951 0 11.685s1.131-6.03 3.393-8.292C5.655 1.131 8.42 0 11.685 0s6.03 1.131 8.292 3.393c2.263 2.262 3.394 5.026 3.394 8.292 0 1.319-.21 2.562-.63 3.73a10.713 10.713 0 01-1.707 3.102l6.472 6.472c.33.33.494.749.494 1.258 0 .51-.165.929-.494 1.259-.33.33-.75.494-1.259.494-.51 0-.929-.165-1.258-.494l-6.472-6.472a10.713 10.713 0 01-3.101 1.708 10.96 10.96 0 01-3.73.629zm0-3.595c2.248 0 4.158-.786 5.73-2.36 1.574-1.572 2.36-3.482 2.36-5.73 0-2.247-.786-4.157-2.36-5.73-1.572-1.573-3.482-2.36-5.73-2.36-2.247 0-4.157.787-5.73 2.36-1.573 1.573-2.36 3.483-2.36 5.73 0 2.248.787 4.158 2.36 5.73 1.573 1.574 3.483 2.36 5.73 2.36z" fill="currentColor"/></svg><svg fill="none" viewBox="0 0 18 18" id="settings" xmlns="http://www.w3.org/2000/svg"><path d="M7.89 18a1.61 1.61 0 01-1.1-.405c-.307-.27-.492-.6-.555-.99l-.213-1.485a3.666 3.666 0 01-.579-.27 7.833 7.833 0 01-.532-.338l-1.465.585c-.394.165-.788.18-1.182.046a1.726 1.726 0 01-.922-.72l-1.11-1.845a1.37 1.37 0 01-.19-1.103 1.7 1.7 0 01.639-.967l1.252-.9a2.047 2.047 0 01-.023-.304v-.608c0-.097.008-.198.023-.303l-1.252-.9a1.7 1.7 0 01-.638-.968 1.37 1.37 0 01.189-1.103l1.11-1.844c.221-.345.528-.585.922-.72s.788-.12 1.182.044l1.465.585c.174-.12.355-.232.544-.337a4.86 4.86 0 01.567-.27l.213-1.485c.063-.39.248-.72.555-.99A1.61 1.61 0 017.89 0h2.22c.426 0 .793.135 1.1.405.307.27.492.6.555.99l.213 1.485c.205.075.398.165.579.27.181.105.358.218.532.337l1.465-.585c.394-.165.788-.18 1.182-.045.394.135.701.375.922.72l1.11 1.846c.221.345.284.712.19 1.102a1.7 1.7 0 01-.639.967l-1.252.9c.015.106.023.207.023.304v.608c0 .097-.015.198-.047.303l1.253.9c.33.255.543.578.638.968.094.39.031.758-.19 1.103l-1.134 1.845c-.22.345-.527.585-.921.72-.394.134-.788.12-1.182-.046l-1.418-.585a6.51 6.51 0 01-.544.338c-.189.105-.378.195-.567.27l-.213 1.485c-.063.39-.248.72-.555.99a1.61 1.61 0 01-1.1.405H7.89zm1.157-5.85c.914 0 1.694-.308 2.34-.923.646-.614.97-1.357.97-2.227 0-.87-.324-1.612-.97-2.228-.646-.615-1.426-.922-2.34-.922-.93 0-1.713.308-2.351.923-.638.615-.958 1.357-.958 2.227 0 .87.32 1.613.958 2.227.638.615 1.422.923 2.351.923z" fill="currentColor"/></svg><svg fill="none" viewBox="0 0 18 12" id="sort" xmlns="http://www.w3.org/2000/svg"><path d="M1 0a.968.968 0 00-.713.287A.968.968 0 000 1c0 .283.096.52.287.712C.48 1.904.718 2 1 2h4c.283 0 .52-.096.713-.288A.968.968 0 006 1a.968.968 0 00-.287-.713A.968.968 0 005 0H1zm0 5a.968.968 0 00-.713.287A.968.968 0 000 6c0 .283.096.52.287.713C.48 6.904.718 7 1 7h10c.283 0 .52-.096.713-.287A.967.967 0 0012 6a.967.967 0 00-.287-.713A.968.968 0 0011 5H1zm0 5a.967.967 0 00-.713.287A.968.968 0 000 11c0 .283.096.52.287.713.192.191.43.287.713.287h16c.283 0 .52-.096.712-.287A.968.968 0 0018 11a.968.968 0 00-.288-.713A.968.968 0 0017 10H1z" fill="currentColor"/></svg><svg fill="none" viewBox="0 0 19 18" id="telegram" xmlns="http://www.w3.org/2000/svg"><path fill-rule="evenodd" clip-rule="evenodd" d="M2.585 8.512c4.349-1.906 7.248-3.162 8.7-3.768C15.426 3.01 16.287 2.71 16.848 2.7c.123-.002.399.029.578.174.15.124.192.29.212.407.02.116.045.382.025.59-.225 2.372-1.196 8.128-1.69 10.784-.21 1.125-.62 1.501-1.02 1.538-.866.08-1.524-.575-2.363-1.128-1.313-.866-2.054-1.405-3.329-2.249-1.472-.976-.518-1.512.322-2.389.22-.23 4.036-3.72 4.11-4.037.01-.04.018-.187-.07-.265-.087-.078-.215-.052-.308-.03-.132.03-2.23 1.424-6.292 4.182-.596.41-1.135.611-1.618.6-.533-.011-1.557-.302-2.319-.551-.934-.306-1.677-.467-1.612-.986.034-.27.404-.546 1.11-.828z" fill="currentColor"/></svg><svg fill="none" viewBox="0 0 16 16" id="timer" xmlns="http://www.w3.org/2000/svg"><path d="M8 1.333a6.666 6.666 0 110 13.333A6.666 6.666 0 018 1.333zm0 1.333a5.333 5.333 0 100 10.667A5.333 5.333 0 008 2.666zM8 4a.667.667 0 01.662.588l.005.078v3.058l1.805 1.804a.666.666 0 01-.88.998l-.063-.055-2-2a.667.667 0 01-.19-.384L7.333 8V4.666A.667.667 0 018 4z" fill="currentColor"/></svg><svg fill="none" viewBox="0 0 16 16" id="tooltip" xmlns="http://www.w3.org/2000/svg"><path d="M7.96 12.8c.28 0 .517-.097.71-.29a.966.966 0 00.29-.71.966.966 0 00-.29-.71.966.966 0 00-.71-.29.966.966 0 00-.71.29.966.966 0 00-.29.71c0 .28.097.517.29.71.193.193.43.29.71.29zM8 16a7.79 7.79 0 01-3.12-.63 8.079 8.079 0 01-2.54-1.71 8.08 8.08 0 01-1.71-2.54A7.79 7.79 0 010 8c0-1.107.21-2.147.63-3.12.42-.973.99-1.82 1.71-2.54A8.079 8.079 0 014.88.63 7.79 7.79 0 018 0a7.79 7.79 0 013.12.63c.973.42 1.82.99 2.54 1.71s1.29 1.567 1.71 2.54c.42.973.63 2.013.63 3.12a7.79 7.79 0 01-.63 3.12 8.08 8.08 0 01-1.71 2.54 8.08 8.08 0 01-2.54 1.71A7.79 7.79 0 018 16zm.08-11.44c.333 0 .623.107.87.32.247.213.37.48.37.8 0 .293-.09.553-.27.78-.18.227-.383.44-.61.64a5.31 5.31 0 00-.81.88c-.233.32-.35.68-.35 1.08 0 .187.07.343.21.47.14.127.303.19.49.19.2 0 .37-.067.51-.2s.23-.3.27-.5c.053-.28.173-.53.36-.75.187-.22.387-.43.6-.63.307-.293.57-.613.79-.96.22-.347.33-.733.33-1.16 0-.68-.277-1.237-.83-1.67a3.04 3.04 0 00-1.93-.65c-.507 0-.99.107-1.45.32-.46.213-.81.54-1.05.98a.721.721 0 00-.09.51c.033.18.123.317.27.41a.796.796 0 001.08-.24c.147-.2.33-.353.55-.46.22-.107.45-.16.69-.16z" fill="currentColor"/></svg><svg fill="none" viewBox="0 0 18 23" id="upload" xmlns="http://www.w3.org/2000/svg"><path d="M7.875 14.943v3.493c0 .311.108.573.323.784.216.21.483.316.802.316.319 0 .586-.106.802-.316.215-.211.323-.473.323-.784v-3.493l1.012.99c.113.11.24.193.38.248.14.055.281.078.422.069.14-.01.277-.042.408-.097a1.17 1.17 0 00.366-.247c.206-.22.314-.477.323-.77a.996.996 0 00-.323-.77l-2.925-2.86a.99.99 0 00-.366-.234A1.272 1.272 0 009 11.203c-.15 0-.29.023-.422.07a.99.99 0 00-.365.233l-2.925 2.86a.996.996 0 00-.324.77c.01.293.127.55.352.77a1.2 1.2 0 00.787.316c.3.01.563-.096.788-.316l.984-.963zM2.25 22.836a2.191 2.191 0 01-1.59-.646c-.44-.431-.66-.95-.66-1.554v-17.6c0-.605.22-1.123.66-1.554.442-.43.971-.646 1.59-.646h8.072c.3 0 .586.055.858.165.272.11.51.266.717.467l5.456 5.335A2.132 2.132 0 0118 8.343v12.293c0 .605-.22 1.123-.66 1.554-.442.43-.971.646-1.59.646H2.25zm7.875-15.4c0 .312.108.573.323.784.216.21.483.316.802.316h4.5l-5.625-5.5v4.4z" fill="currentColor"/></svg><svg fill="none" viewBox="0 0 17 16" id="upload_2" xmlns="http://www.w3.org/2000/svg"><path d="M2.5 15.787c-.55 0-1.02-.195-1.413-.587A1.926 1.926 0 01.5 13.788v-2c0-.284.096-.521.287-.713a.968.968 0 01.713-.287c.283 0 .52.095.712.287.192.192.288.43.288.713v2h12v-2c0-.284.096-.521.287-.713a.968.968 0 01.713-.287c.283 0 .52.095.712.287.192.192.288.43.288.713v2c0 .55-.196 1.02-.588 1.412a1.926 1.926 0 01-1.412.588h-12zm5-12.15L5.625 5.514a.93.93 0 01-.713.287 1.02 1.02 0 01-.712-.312c-.183-.2-.28-.434-.288-.7a.916.916 0 01.288-.7l3.6-3.6c.1-.1.208-.171.325-.213.117-.042.242-.062.375-.062s.258.02.375.062A.877.877 0 019.2.488l3.6 3.6c.2.2.296.433.287.7a1.02 1.02 0 01-1 1.013.93.93 0 01-.712-.288L9.5 3.638v7.15c0 .283-.096.52-.287.712a.967.967 0 01-.713.287.967.967 0 01-.713-.287.967.967 0 01-.287-.713v-7.15z" fill="currentColor"/></svg><svg fill="none" viewBox="0 0 14 16" id="urn" xmlns="http://www.w3.org/2000/svg"><path d="M2.625 16c-.481 0-.893-.174-1.236-.522a1.726 1.726 0 01-.514-1.256V2.667A.867.867 0 010 1.778a.867.867 0 01.875-.89h3.5A.867.867 0 015.25 0h3.5a.867.867 0 01.875.889h3.5a.867.867 0 01.875.889.867.867 0 01-.875.889v11.555c0 .49-.171.908-.514 1.256a1.672 1.672 0 01-1.236.522h-8.75zM7 9.689l1.662 1.689c.16.163.365.244.613.244a.823.823 0 00.612-.244.85.85 0 00.241-.622.85.85 0 00-.24-.623L8.224 8.444l1.662-1.688a.85.85 0 00.241-.623.85.85 0 00-.24-.622.823.823 0 00-.613-.244.823.823 0 00-.613.244L7 7.2 5.338 5.511a.823.823 0 00-.613-.244.823.823 0 00-.612.244.85.85 0 00-.241.622c0 .252.08.46.24.623l1.663 1.688-1.663 1.69a.85.85 0 00-.24.622c0 .251.08.459.24.622.16.163.365.244.613.244a.823.823 0 00.613-.244L7 9.688z" fill="currentColor"/></svg><svg fill="none" viewBox="0 0 20 13" id="vk" xmlns="http://www.w3.org/2000/svg"><path fill-rule="evenodd" clip-rule="evenodd" d="M.04.55C.196 7.984 3.99 12.45 10.642 12.45h.377V8.197c2.445.238 4.293 1.989 5.035 4.252h3.453c-.948-3.383-3.441-5.253-4.998-5.967C16.067 5.6 18.256 3.457 18.78.55H15.64c-.68 2.358-2.7 4.502-4.62 4.704V.551H7.882v8.241C5.937 8.316 3.48 6.005 3.37.551H.04z" fill="#fff"/></svg></svg>